<svg xmlns="http://www.w3.org/2000/svg" width="38" height="15" viewBox="0 0 38 15" fill="none">
<path d="M37.2171 7.5C36.9735 7.69546 36.6353 7.95851 36.2117 8.26828C35.2644 8.96107 33.8918 9.88605 32.1956 10.811C28.7973 12.6642 24.1318 14.5 19 14.5C13.8681 14.5 9.20265 12.6642 5.80435 10.811C4.10815 9.88605 2.73559 8.96107 1.78827 8.26828C1.36468 7.95851 1.02653 7.69546 0.782915 7.5C1.02653 7.30454 1.36468 7.04149 1.78827 6.73172C2.73559 6.03893 4.10815 5.11395 5.80435 4.18897C9.20265 2.3358 13.8681 0.5 19 0.5C24.1318 0.5 28.7973 2.3358 32.1956 4.18897C33.8918 5.11395 35.2644 6.03893 36.2117 6.73172C36.6353 7.04149 36.9735 7.30454 37.2171 7.5Z" stroke="white"/>
</svg>