<svg width="40" height="40" viewBox="0 0 40 40" fill="none" xmlns="http://www.w3.org/2000/svg">
<path d="M38.2171 20.5C37.9735 20.6955 37.6353 20.9585 37.2117 21.2683C36.2644 21.9611 34.8918 22.886 33.1956 23.811C29.7973 25.6642 25.1318 27.5 20 27.5C14.8681 27.5 10.2027 25.6642 6.80435 23.811C5.10815 22.886 3.73559 21.9611 2.78827 21.2683C2.36468 20.9585 2.02653 20.6955 1.78292 20.5C2.02653 20.3045 2.36468 20.0415 2.78827 19.7317C3.73559 19.0389 5.10815 18.114 6.80435 17.189C10.2027 15.3358 14.8681 13.5 20 13.5C25.1318 13.5 29.7973 15.3358 33.1956 17.189C34.8918 18.114 36.2644 19.0389 37.2117 19.7317C37.6353 20.0415 37.9735 20.3045 38.2171 20.5Z" stroke="white"/>
</svg>
