<svg width="175" height="130" viewBox="0 0 175 130" fill="none" xmlns="http://www.w3.org/2000/svg">
<mask id="mask0" mask-type="alpha" maskUnits="userSpaceOnUse" x="0" y="0" width="175" height="130">
<rect width="175" height="130" fill="#772525"/>
</mask>
<g mask="url(#mask0)">
<path d="M0 43.755V84.6181H4.06683V43.755H0Z" fill="#FAFAFA"/>
<path d="M46.9785 85.7855L49.4961 83.5153L45.3647 78.975C48.5278 75.2778 50.3998 70.1537 50.3998 64.1864C50.3998 57.8948 48.5278 52.8356 44.8483 48.879C41.1688 44.9224 36.3273 42.9766 30.453 42.9766C24.5787 42.9766 19.7372 44.9224 16.0577 48.879C12.3782 52.8356 10.5062 57.8948 10.5062 64.1864C10.5062 70.4781 12.3782 75.5373 16.0577 79.4939C19.7372 83.4505 24.5787 85.3963 30.453 85.3963C35.2944 85.3963 39.5549 83.9694 42.8471 81.3749L46.9785 85.7855ZM30.453 81.9586C25.7406 81.9586 21.932 80.3371 19.0271 77.1588C16.1868 73.9157 14.7666 69.57 14.7666 64.1864C14.7666 58.8029 16.1868 54.4571 19.0271 51.2789C21.932 48.0358 25.7406 46.4142 30.453 46.4142C35.1653 46.4142 38.9739 48.0358 41.8143 51.2789C44.7192 54.4571 46.1393 58.8029 46.1393 64.1864C46.1393 69.116 44.9128 73.2671 42.7826 76.1859L38.2639 71.2564L35.6172 73.5914L40.3941 78.7804C37.8766 80.856 34.3907 81.9586 30.453 81.9586Z" fill="#FAFAFA"/>
<path d="M91.9889 77.7734L91.9876 77.7749C87.849 82.7704 82.1609 85.429 75.7595 85.429C70.256 85.429 65.802 83.8706 62.5132 80.7006C59.2253 77.5314 57.6082 73.1946 57.6082 67.8056C57.6082 61.5047 59.8099 55.2706 63.7565 50.6622L63.7565 50.6622L63.7577 50.6607C67.8964 45.6652 73.5845 43.0066 79.9859 43.0066C85.4877 43.0066 89.8773 44.6292 93.1671 47.8003C96.4561 50.9705 98.1371 55.2427 98.1371 60.63C98.1371 66.9309 95.9354 73.165 91.9889 77.7734ZM88.8557 75.9715L88.8563 75.9708C92.3219 71.7724 94.0855 66.6566 94.0855 60.63C94.0855 56.267 92.7281 52.6634 90.2802 50.1499C87.832 47.636 84.3042 46.2241 79.9859 46.2241C74.6823 46.2241 70.2924 48.3283 66.8243 52.5297C63.3576 56.6639 61.6598 61.7805 61.6598 67.8056C61.6598 72.1686 63.0172 75.7722 65.4651 78.2857C67.9133 80.7996 71.4412 82.2115 75.7595 82.2115C81.0635 82.2115 85.388 80.1069 88.8557 75.9715ZM128.83 82.0639L128.829 82.0648C126.125 84.3254 122.578 85.429 118.177 85.429C112.671 85.429 108.416 83.9348 105.52 80.8998C102.645 77.8879 101.602 73.7238 102.287 68.5126H105.815C105.231 72.8104 106.083 76.275 108.196 78.6727C110.33 81.0955 113.733 82.4072 118.177 82.4072C121.576 82.4072 124.304 81.5876 126.185 80.0647C128.07 78.5391 129.091 76.3179 129.091 73.5461C129.091 71.7272 128.595 70.3234 127.421 69.1872C126.253 68.0572 124.425 67.2025 121.786 66.4508L115.48 64.6246C115.48 64.6246 115.48 64.6246 115.48 64.6245C112.731 63.8134 110.69 62.6166 109.336 61.0094C107.984 59.4039 107.308 57.3779 107.308 54.8895C107.308 51.4008 108.594 48.5644 111.168 46.3701L111.169 46.3689C113.743 44.1096 117.158 43.0066 121.363 43.0066C126.346 43.0066 130.146 44.4342 132.783 47.3379L132.784 47.339C135.467 50.2224 136.57 53.999 136.017 58.7488H132.554C133.04 55.0656 132.249 52.0728 130.168 49.6585C128.124 47.2118 125.161 46.0284 121.363 46.0284C118.096 46.0284 115.529 46.7822 113.777 48.2331C112.021 49.687 111.1 51.8274 111.1 54.5634C111.1 56.4107 111.545 57.8304 112.629 58.9599C113.708 60.0841 115.407 60.9067 117.885 61.5935C117.885 61.5935 117.885 61.5936 117.885 61.5936L123.411 63.159L123.411 63.1591C126.651 64.0691 129.034 65.333 130.607 66.9832C132.177 68.6302 132.947 70.6707 132.947 73.1547C132.947 76.839 131.596 79.8048 128.83 82.0639ZM149.315 71.4039H149.249L149.214 71.4586L140.666 84.6462H136.663L163.554 43.7894H167.81L174.856 84.6462H171.003L168.809 71.5041L168.793 71.4039H168.691H149.315ZM164.908 48.0857L164.891 47.9854H164.79H164.53H164.465L164.429 48.0399L151.425 68.0011L151.304 68.1864H151.525H168.106H168.247L168.224 68.0469L164.908 48.0857Z" fill="#FAFAFA" stroke="#1B1B1B" stroke-width="0.239841"/>
</g>
</svg>
