<svg width="175" height="130" viewBox="0 0 175 130" fill="none" xmlns="http://www.w3.org/2000/svg">
<mask id="mask0" mask-type="alpha" maskUnits="userSpaceOnUse" x="0" y="0" width="175" height="130">
<rect width="175" height="130" fill="#772525"/>
</mask>
<g mask="url(#mask0)">
<path d="M25.5792 35.0098C22.8375 32.4348 19.2208 31.0303 15.4583 31.0888C6.32917 31.0888 0 39.4868 0 49.7574C0 60.0281 6.32917 68.426 15.4583 68.426C20.5917 68.426 23.3333 66.6704 25.4333 64.1247H25.5792V67.5775H34.1833V17.4238H25.5792V35.0098ZM17.4125 60.5548C10.9667 60.5548 9.04167 54.9074 8.98333 49.7867C9.04167 44.6367 10.9375 39.0186 17.4125 39.0186C23.8875 39.0186 25.7542 44.666 25.8417 49.7867C25.7833 54.9074 23.8875 60.5548 17.4125 60.5548ZM64.8083 55.4634C63.9625 56.6631 61.3083 60.5255 54.5417 60.5255C49.6125 60.6133 45.5 56.7216 45.325 51.7764H71.575C71.575 39.0186 66.3833 31.0595 54.5125 31.0595C42.9917 31.0595 36.3417 39.1064 36.3417 49.7282C36.3417 60.35 43.0208 68.3968 54.5417 68.3968C64.225 68.3968 69.3583 63.7443 72.0417 59.6477L64.8083 55.4634ZM54.5708 38.1407C60.3167 38.1407 62.65 43.2907 62.65 45.1927H45.3542C46.375 40.9498 50.225 37.9944 54.5708 38.1407ZM38.325 82.2666H55.1833L36.3708 103.832V110.445H66.5V102.983H47.8917L66.5 81.418V74.805H38.325V82.2666ZM85.75 103.393C80.8208 103.481 76.7375 99.5892 76.5625 94.6733H102.812C102.812 81.9155 97.6208 73.9564 85.75 73.9564C74.2292 73.9564 67.55 82.0032 67.55 92.625C67.55 103.247 74.2292 111.294 85.75 111.294C95.4333 111.294 100.567 106.641 103.25 102.545L96.0167 98.3017C95.1417 99.5307 92.4875 103.393 85.75 103.393ZM85.75 81.0084C91.4958 81.0084 93.8292 86.1583 93.8292 88.0603H76.5625C77.5542 83.8174 81.4042 80.862 85.75 81.0084ZM123.958 103.393C119.029 103.481 114.946 99.5892 114.771 94.6733H141.021C141.021 81.9155 135.829 73.9564 123.958 73.9564C112.437 73.9564 105.758 82.0032 105.758 92.625C105.758 103.247 112.467 111.294 123.958 111.294C133.642 111.294 138.775 106.641 141.458 102.545L134.225 98.3017C133.408 99.5307 130.725 103.393 123.958 103.393ZM123.958 81.0084C129.704 81.0084 132.038 86.1583 132.038 88.0603H114.8C115.792 83.8174 119.642 80.862 123.958 81.0084ZM162.779 73.9564C159.046 73.8686 155.488 75.478 153.096 78.3163H152.921V74.805H144.317V110.445H152.921V91.6009C152.921 85.0464 156.362 82.2373 160.504 82.2373C164.937 82.2373 166.396 85.3683 166.396 88.6455V110.416H175V86.0705C174.971 78.2578 171.179 73.9564 162.779 73.9564Z" fill="white"/>
</g>
</svg>
