<svg width="32" height="32" viewBox="0 0 32 32" fill="none" xmlns="http://www.w3.org/2000/svg">
<mask id="path-1-inside-1" fill="white">
<path fill-rule="evenodd" clip-rule="evenodd" d="M19.8888 4.0743C19.303 3.48852 18.3532 3.48852 17.7674 4.0743L4.0967 17.745C3.51092 18.3308 3.51092 19.2806 4.0967 19.8664L12.1106 27.8802C12.6964 28.466 13.6461 28.466 14.2319 27.8802L27.9026 14.2095C28.4884 13.6237 28.4884 12.674 27.9026 12.0882L19.8888 4.0743ZM18.4745 4.78141C18.6698 4.58615 18.9864 4.58615 19.1816 4.78141L27.1955 12.7953C27.3908 12.9905 27.3908 13.3071 27.1955 13.5024L13.5248 27.1731C13.3295 27.3684 13.0129 27.3684 12.8177 27.1731L4.80381 19.1592C4.60855 18.964 4.60855 18.6474 4.80381 18.4521L18.4745 4.78141ZM11.8756 4.30996L4.33311 11.8524L5.04022 12.5595L12.5827 5.01707L11.8756 4.30996ZM19.4164 26.9373L26.9589 19.3948L27.666 20.1019L20.1236 27.6444L19.4164 26.9373ZM11.2863 20.636C11.807 21.1567 12.6512 21.1567 13.1719 20.636C13.6926 20.1153 13.6926 19.2711 13.1719 18.7504C12.6512 18.2297 11.807 18.2297 11.2863 18.7504C10.7656 19.2711 10.7656 20.1153 11.2863 20.636Z"/>
</mask>
<path fill-rule="evenodd" clip-rule="evenodd" d="M19.8888 4.0743C19.303 3.48852 18.3532 3.48852 17.7674 4.0743L4.0967 17.745C3.51092 18.3308 3.51092 19.2806 4.0967 19.8664L12.1106 27.8802C12.6964 28.466 13.6461 28.466 14.2319 27.8802L27.9026 14.2095C28.4884 13.6237 28.4884 12.674 27.9026 12.0882L19.8888 4.0743ZM18.4745 4.78141C18.6698 4.58615 18.9864 4.58615 19.1816 4.78141L27.1955 12.7953C27.3908 12.9905 27.3908 13.3071 27.1955 13.5024L13.5248 27.1731C13.3295 27.3684 13.0129 27.3684 12.8177 27.1731L4.80381 19.1592C4.60855 18.964 4.60855 18.6474 4.80381 18.4521L18.4745 4.78141ZM11.8756 4.30996L4.33311 11.8524L5.04022 12.5595L12.5827 5.01707L11.8756 4.30996ZM19.4164 26.9373L26.9589 19.3948L27.666 20.1019L20.1236 27.6444L19.4164 26.9373ZM11.2863 20.636C11.807 21.1567 12.6512 21.1567 13.1719 20.636C13.6926 20.1153 13.6926 19.2711 13.1719 18.7504C12.6512 18.2297 11.807 18.2297 11.2863 18.7504C10.7656 19.2711 10.7656 20.1153 11.2863 20.636Z" fill="white"/>
<path d="M17.7674 4.0743L17.0603 3.3672L17.7674 4.0743ZM4.0967 17.745L4.80381 18.4521L4.0967 17.745ZM18.4745 4.78141L19.1816 5.48852L18.4745 4.78141ZM4.80381 18.4521L4.0967 17.745L4.80381 18.4521ZM4.33311 11.8524L3.626 11.1453L2.9189 11.8524L3.626 12.5595L4.33311 11.8524ZM11.8756 4.30996L12.5827 3.60286L11.8756 2.89575L11.1685 3.60286L11.8756 4.30996ZM5.04022 12.5595L4.33311 13.2666L5.04022 13.9738L5.74732 13.2666L5.04022 12.5595ZM12.5827 5.01707L13.2898 5.72418L13.9969 5.01707L13.2898 4.30996L12.5827 5.01707ZM26.9589 19.3948L27.666 18.6877L26.9589 17.9806L26.2518 18.6877L26.9589 19.3948ZM19.4164 26.9373L18.7093 26.2302L18.0022 26.9373L18.7093 27.6444L19.4164 26.9373ZM27.666 20.1019L28.3731 20.8091L29.0802 20.1019L28.3731 19.3948L27.666 20.1019ZM20.1236 27.6444L19.4164 28.3515L20.1236 29.0586L20.8307 28.3515L20.1236 27.6444ZM18.4745 4.78141C18.6698 4.58615 18.9864 4.58615 19.1816 4.78141L20.5959 3.3672C19.6195 2.39088 18.0366 2.39089 17.0603 3.3672L18.4745 4.78141ZM4.80381 18.4521L18.4745 4.78141L17.0603 3.3672L3.3896 17.0379L4.80381 18.4521ZM4.80381 19.1592C4.60855 18.964 4.60855 18.6474 4.80381 18.4521L3.3896 17.0379C2.41329 18.0142 2.41329 19.5971 3.3896 20.5735L4.80381 19.1592ZM12.8177 27.1731L4.80381 19.1592L3.3896 20.5735L11.4035 28.5873L12.8177 27.1731ZM13.5248 27.1731C13.3295 27.3684 13.0129 27.3684 12.8177 27.1731L11.4035 28.5873C12.3798 29.5636 13.9627 29.5636 14.939 28.5873L13.5248 27.1731ZM27.1955 13.5024L13.5248 27.1731L14.939 28.5873L28.6097 14.9166L27.1955 13.5024ZM27.1955 12.7953C27.3908 12.9905 27.3908 13.3071 27.1955 13.5024L28.6097 14.9166C29.586 13.9403 29.5861 12.3574 28.6097 11.3811L27.1955 12.7953ZM19.1816 4.78141L27.1955 12.7953L28.6097 11.3811L20.5959 3.3672L19.1816 4.78141ZM19.8888 4.0743C19.303 3.48852 18.3532 3.48852 17.7674 4.0743L19.1816 5.48852C18.9864 5.68378 18.6698 5.68378 18.4745 5.48852L19.8888 4.0743ZM27.9026 12.0882L19.8888 4.0743L18.4745 5.48852L26.4884 13.5024L27.9026 12.0882ZM27.9026 14.2095C28.4884 13.6237 28.4884 12.674 27.9026 12.0882L26.4884 13.5024C26.2932 13.3071 26.2932 12.9905 26.4884 12.7953L27.9026 14.2095ZM14.2319 27.8802L27.9026 14.2095L26.4884 12.7953L12.8177 26.466L14.2319 27.8802ZM12.1106 27.8802C12.6964 28.466 13.6461 28.466 14.2319 27.8802L12.8177 26.466C13.0129 26.2708 13.3295 26.2708 13.5248 26.466L12.1106 27.8802ZM4.0967 19.8664L12.1106 27.8802L13.5248 26.466L5.51092 18.4521L4.0967 19.8664ZM4.0967 17.745C3.51092 18.3308 3.51092 19.2806 4.0967 19.8664L5.51092 18.4521C5.70618 18.6474 5.70618 18.964 5.51092 19.1592L4.0967 17.745ZM17.7674 4.0743L4.0967 17.745L5.51092 19.1592L19.1816 5.48852L17.7674 4.0743ZM5.04022 12.5595L12.5827 5.01707L11.1685 3.60286L3.626 11.1453L5.04022 12.5595ZM5.74732 11.8524L5.04022 11.1453L3.626 12.5595L4.33311 13.2666L5.74732 11.8524ZM11.8756 4.30996L4.33311 11.8524L5.74732 13.2666L13.2898 5.72418L11.8756 4.30996ZM11.1685 5.01707L11.8756 5.72418L13.2898 4.30996L12.5827 3.60286L11.1685 5.01707ZM26.2518 18.6877L18.7093 26.2302L20.1236 27.6444L27.666 20.1019L26.2518 18.6877ZM28.3731 19.3948L27.666 18.6877L26.2518 20.1019L26.9589 20.8091L28.3731 19.3948ZM20.8307 28.3515L28.3731 20.8091L26.9589 19.3948L19.4164 26.9373L20.8307 28.3515ZM18.7093 27.6444L19.4164 28.3515L20.8307 26.9373L20.1236 26.2302L18.7093 27.6444ZM12.4648 19.9289C12.3347 20.0591 12.1236 20.0591 11.9934 19.9289L10.5792 21.3432C11.4904 22.2544 12.9678 22.2544 13.8791 21.3432L12.4648 19.9289ZM12.4648 19.4575C12.595 19.5877 12.595 19.7988 12.4648 19.9289L13.8791 21.3432C14.7903 20.4319 14.7903 18.9545 13.8791 18.0433L12.4648 19.4575ZM11.9934 19.4575C12.1236 19.3274 12.3347 19.3274 12.4648 19.4575L13.8791 18.0433C12.9678 17.1321 11.4904 17.1321 10.5792 18.0433L11.9934 19.4575ZM11.9934 19.9289C11.8633 19.7988 11.8633 19.5877 11.9934 19.4575L10.5792 18.0433C9.668 18.9545 9.668 20.4319 10.5792 21.3432L11.9934 19.9289Z" fill="white" mask="url(#path-1-inside-1)"/>
</svg>
