<svg width="515" height="197" viewBox="0 0 515 197" fill="none" xmlns="http://www.w3.org/2000/svg">
<path d="M58.19 2.64V5.1H51.02V24H48.2V5.1H41.03V2.64H58.19ZM77.2166 2.64V24H74.3966V14.01H63.1166V24H60.2966V2.64H63.1166V11.55H74.3966V2.64H77.2166ZM96.437 2.64V5.1H84.467V11.79H95.657V14.16H84.467V21.54H96.587V24H81.647V2.64H96.437ZM105.786 2.64H108.696L112.926 20.49L117.756 2.64H120.846L125.616 20.49L129.996 2.64H132.816L127.116 24H124.146L119.226 6.12L114.246 24H111.276L105.786 2.64ZM144.18 2.64L152.52 24H149.37L147 17.46H138.03L135.6 24H132.6L141 2.64H144.18ZM146.16 15.21L142.53 5.34L138.84 15.21H146.16ZM169.183 2.64V5.1H162.013V24H159.193V5.1H152.023V2.64H169.183ZM186.08 2.64V5.1H174.11V11.79H185.3V14.16H174.11V21.54H186.23V24H171.29V2.64H186.08ZM189.329 2.64H198.719C203.499 2.64 205.889 4.61 205.889 8.55C205.889 9.79 205.549 10.89 204.869 11.85C204.209 12.79 203.329 13.42 202.229 13.74C202.949 13.9 203.529 14.13 203.969 14.43C204.409 14.73 204.729 15.15 204.929 15.69C205.129 16.23 205.259 16.71 205.319 17.13C205.379 17.55 205.429 18.17 205.469 18.99C205.469 19.07 205.479 19.27 205.499 19.59C205.519 19.89 205.529 20.1 205.529 20.22C205.529 20.32 205.539 20.51 205.559 20.79C205.599 21.07 205.629 21.28 205.649 21.42C205.669 21.56 205.699 21.75 205.739 21.99C205.779 22.23 205.829 22.43 205.889 22.59C205.949 22.73 206.019 22.9 206.099 23.1C206.179 23.28 206.269 23.45 206.369 23.61C206.469 23.75 206.579 23.88 206.699 24H203.459C203.319 23.8 203.199 23.55 203.099 23.25C203.019 22.95 202.959 22.6 202.919 22.2C202.879 21.78 202.849 21.45 202.829 21.21C202.809 20.95 202.789 20.58 202.769 20.1C202.749 19.62 202.739 19.35 202.739 19.29C202.639 17.47 202.259 16.26 201.599 15.66C200.959 15.06 199.679 14.76 197.759 14.76H192.149V24H189.329V2.64ZM192.149 5.04V12.51H197.459C198.119 12.51 198.669 12.49 199.109 12.45C199.569 12.41 200.069 12.32 200.609 12.18C201.149 12.04 201.579 11.84 201.899 11.58C202.239 11.32 202.519 10.95 202.739 10.47C202.959 9.99 203.069 9.41 203.069 8.73C203.069 7.29 202.629 6.32 201.749 5.82C200.889 5.3 199.709 5.04 198.209 5.04H192.149ZM220.556 2.64V24H217.736V2.64H220.556ZM240.2 8.91H237.47C237.17 6.01 235.4 4.56 232.16 4.56C230.62 4.56 229.43 4.87 228.59 5.49C227.75 6.11 227.33 6.98 227.33 8.1C227.33 8.5 227.39 8.85 227.51 9.15C227.63 9.45 227.83 9.72 228.11 9.96C228.41 10.18 228.69 10.37 228.95 10.53C229.21 10.69 229.62 10.85 230.18 11.01C230.74 11.17 231.19 11.29 231.53 11.37C231.87 11.43 232.4 11.54 233.12 11.7C234 11.88 234.73 12.05 235.31 12.21C235.89 12.35 236.58 12.59 237.38 12.93C238.18 13.27 238.81 13.65 239.27 14.07C239.75 14.47 240.16 15.01 240.5 15.69C240.86 16.37 241.04 17.14 241.04 18C241.04 19.5 240.62 20.76 239.78 21.78C238.94 22.78 237.92 23.48 236.72 23.88C235.52 24.28 234.19 24.48 232.73 24.48C230.05 24.48 227.9 23.85 226.28 22.59C224.68 21.31 223.88 19.43 223.88 16.95H226.61C226.67 18.77 227.28 20.1 228.44 20.94C229.6 21.76 231.11 22.17 232.97 22.17C234.43 22.17 235.68 21.87 236.72 21.27C237.76 20.65 238.28 19.65 238.28 18.27C238.28 17.63 238.14 17.09 237.86 16.65C237.58 16.19 237.14 15.82 236.54 15.54C235.94 15.24 235.34 15 234.74 14.82C234.14 14.64 233.35 14.44 232.37 14.22C232.23 14.2 232.13 14.18 232.07 14.16C229.87 13.66 228.43 13.26 227.75 12.96C225.67 12.06 224.63 10.51 224.63 8.31C224.63 6.27 225.38 4.75 226.88 3.75C228.4 2.73 230.23 2.22 232.37 2.22C234.71 2.22 236.58 2.78 237.98 3.9C239.38 5.02 240.12 6.69 240.2 8.91ZM252.403 2.64H261.193C263.373 2.64 265.103 3.14 266.383 4.14C267.663 5.12 268.303 6.67 268.303 8.79C268.303 13.09 265.873 15.24 261.013 15.24H255.223V24H252.403V2.64ZM255.223 5.07V12.87H260.653C262.173 12.87 263.353 12.59 264.193 12.03C265.053 11.45 265.483 10.43 265.483 8.97C265.483 8.15 265.343 7.47 265.063 6.93C264.803 6.39 264.413 5.99 263.893 5.73C263.373 5.47 262.833 5.3 262.273 5.22C261.713 5.12 261.043 5.07 260.263 5.07H255.223ZM286.226 2.64V5.1H274.256V11.79H285.446V14.16H274.256V21.54H286.376V24H271.436V2.64H286.226ZM289.475 2.64H298.865C303.645 2.64 306.035 4.61 306.035 8.55C306.035 9.79 305.695 10.89 305.015 11.85C304.355 12.79 303.475 13.42 302.375 13.74C303.095 13.9 303.675 14.13 304.115 14.43C304.555 14.73 304.875 15.15 305.075 15.69C305.275 16.23 305.405 16.71 305.465 17.13C305.525 17.55 305.575 18.17 305.615 18.99C305.615 19.07 305.625 19.27 305.645 19.59C305.665 19.89 305.675 20.1 305.675 20.22C305.675 20.32 305.685 20.51 305.705 20.79C305.745 21.07 305.775 21.28 305.795 21.42C305.815 21.56 305.845 21.75 305.885 21.99C305.925 22.23 305.975 22.43 306.035 22.59C306.095 22.73 306.165 22.9 306.245 23.1C306.325 23.28 306.415 23.45 306.515 23.61C306.615 23.75 306.725 23.88 306.845 24H303.605C303.465 23.8 303.345 23.55 303.245 23.25C303.165 22.95 303.105 22.6 303.065 22.2C303.025 21.78 302.995 21.45 302.975 21.21C302.955 20.95 302.935 20.58 302.915 20.1C302.895 19.62 302.885 19.35 302.885 19.29C302.785 17.47 302.405 16.26 301.745 15.66C301.105 15.06 299.825 14.76 297.905 14.76H292.295V24H289.475V2.64ZM292.295 5.04V12.51H297.605C298.265 12.51 298.815 12.49 299.255 12.45C299.715 12.41 300.215 12.32 300.755 12.18C301.295 12.04 301.725 11.84 302.045 11.58C302.385 11.32 302.665 10.95 302.885 10.47C303.105 9.99 303.215 9.41 303.215 8.73C303.215 7.29 302.775 6.32 301.895 5.82C301.035 5.3 299.855 5.04 298.355 5.04H292.295ZM323.783 2.64V5.1H312.563V11.76H322.463V14.13H312.563V24H309.743V2.64H323.783ZM341.429 2.64V5.1H329.459V11.79H340.649V14.16H329.459V21.54H341.579V24H326.639V2.64H341.429ZM362.769 15.93C362.529 18.63 361.589 20.74 359.949 22.26C358.329 23.76 356.189 24.51 353.529 24.51C350.489 24.51 348.079 23.51 346.299 21.51C344.519 19.49 343.629 16.77 343.629 13.35C343.629 10.15 344.519 7.49 346.299 5.37C348.099 3.23 350.579 2.16 353.739 2.16C355.999 2.16 357.989 2.77 359.709 3.99C361.429 5.21 362.389 6.9 362.589 9.06H359.769C359.449 7.66 358.749 6.57 357.669 5.79C356.589 4.99 355.259 4.59 353.679 4.59C351.299 4.59 349.499 5.43 348.279 7.11C347.079 8.79 346.479 10.86 346.479 13.32C346.479 16.04 347.119 18.18 348.399 19.74C349.679 21.3 351.429 22.08 353.649 22.08C355.469 22.08 356.919 21.56 357.999 20.52C359.079 19.46 359.729 17.93 359.949 15.93H362.769ZM380.849 2.64V5.1H373.679V24H370.859V5.1H363.689V2.64H380.849ZM386.406 20.67V24H383.076V20.67H386.406Z" fill="white"/>
<path d="M130.79 37.64L126.26 59H124.94L129.47 37.64H130.79ZM148.567 37.64L148.327 38.75H140.887L136.627 59H135.307L139.597 38.75H131.887L132.127 37.64H148.567ZM149.964 45.89H149.094L150.714 37.64H151.854L149.964 45.89ZM169.467 43.79H168.237V43.49C168.237 40.11 166.197 38.42 162.117 38.42C160.217 38.42 158.707 38.84 157.587 39.68C156.487 40.5 155.937 41.61 155.937 43.01C155.937 43.43 155.997 43.82 156.117 44.18C156.257 44.54 156.407 44.85 156.567 45.11C156.747 45.37 157.007 45.63 157.347 45.89C157.707 46.13 158.007 46.32 158.247 46.46C158.487 46.6 158.847 46.76 159.327 46.94C159.807 47.1 160.157 47.22 160.377 47.3C160.597 47.36 160.967 47.47 161.487 47.63C162.027 47.77 162.367 47.86 162.507 47.9C164.227 48.38 165.527 49 166.407 49.76C167.307 50.5 167.757 51.65 167.757 53.21C167.757 55.09 167.017 56.6 165.537 57.74C164.077 58.86 162.137 59.42 159.717 59.42C157.217 59.42 155.277 58.83 153.897 57.65C152.517 56.47 151.827 54.8 151.827 52.64C151.827 52.56 151.827 52.45 151.827 52.31C151.847 52.17 151.857 52.04 151.857 51.92H153.117V52.49C153.117 54.49 153.707 55.97 154.887 56.93C156.067 57.87 157.697 58.34 159.777 58.34C161.797 58.34 163.417 57.88 164.637 56.96C165.877 56.02 166.497 54.78 166.497 53.24C166.497 52.06 166.117 51.18 165.357 50.6C164.597 50 163.537 49.5 162.177 49.1C162.037 49.06 161.677 48.96 161.097 48.8C160.517 48.62 160.127 48.5 159.927 48.44C159.727 48.36 159.357 48.23 158.817 48.05C158.297 47.87 157.927 47.71 157.707 47.57C157.487 47.43 157.177 47.25 156.777 47.03C156.377 46.79 156.077 46.55 155.877 46.31C155.697 46.05 155.497 45.76 155.277 45.44C155.057 45.12 154.897 44.76 154.797 44.36C154.717 43.96 154.677 43.53 154.677 43.07C154.677 41.31 155.347 39.91 156.687 38.87C158.027 37.83 159.837 37.31 162.117 37.31C164.517 37.31 166.347 37.82 167.607 38.84C168.867 39.84 169.497 41.3 169.497 43.22C169.497 43.4 169.487 43.59 169.467 43.79ZM197.613 51.56C197.013 53.96 195.803 55.89 193.983 57.35C192.183 58.79 190.053 59.51 187.593 59.51C185.033 59.51 182.993 58.71 181.473 57.11C179.973 55.51 179.223 53.34 179.223 50.6C179.223 48.28 179.663 46.12 180.543 44.12C181.423 42.12 182.753 40.47 184.533 39.17C186.333 37.87 188.413 37.22 190.773 37.22C193.133 37.22 195.043 37.86 196.503 39.14C197.963 40.42 198.703 42.11 198.723 44.21H197.433C197.313 42.37 196.673 40.94 195.513 39.92C194.353 38.88 192.773 38.36 190.773 38.36C188.713 38.36 186.883 38.97 185.283 40.19C183.703 41.39 182.523 42.9 181.743 44.72C180.963 46.54 180.573 48.48 180.573 50.54C180.573 52.92 181.203 54.82 182.463 56.24C183.743 57.66 185.463 58.37 187.623 58.37C189.703 58.37 191.513 57.76 193.053 56.54C194.613 55.32 195.693 53.66 196.293 51.56H197.613ZM219.156 37.64L214.656 59H213.336L215.586 48.41H202.236L199.956 59H198.666L203.196 37.64H204.516L202.476 47.3H215.826L217.866 37.64H219.156ZM230.826 37.64L234.786 59H233.436L232.206 52.1H221.946L217.746 59H216.246L229.446 37.64H230.826ZM229.926 38.84C229.706 39.2 229.376 39.77 228.936 40.55C228.516 41.33 228.186 41.9 227.946 42.26L222.576 51.02H232.026L230.436 42.17C230.156 40.69 229.986 39.58 229.926 38.84ZM257.386 37.64L252.856 59H251.416L242.956 41.57C242.756 41.17 242.376 40.32 241.816 39.02C241.676 40.02 241.466 41.18 241.186 42.5L237.706 59H236.416L240.946 37.64H242.446L250.006 53.27C250.746 54.79 251.406 56.24 251.986 57.62L256.126 37.64H257.386ZM277.533 48.56L275.373 59H274.413L274.863 56.36C274.963 55.76 275.113 55.02 275.313 54.14C273.353 57.7 270.483 59.48 266.703 59.48C263.963 59.48 261.843 58.67 260.343 57.05C258.843 55.43 258.093 53.22 258.093 50.42C258.093 48.06 258.553 45.89 259.473 43.91C260.393 41.91 261.763 40.29 263.583 39.05C265.423 37.81 267.533 37.19 269.913 37.19C272.293 37.19 274.203 37.82 275.643 39.08C277.083 40.32 277.843 42 277.923 44.12H276.633C276.473 42.24 275.803 40.8 274.623 39.8C273.443 38.8 271.843 38.3 269.823 38.3C267.703 38.3 265.833 38.91 264.213 40.13C262.593 41.35 261.383 42.88 260.583 44.72C259.783 46.54 259.383 48.49 259.383 50.57C259.383 52.99 260.043 54.9 261.363 56.3C262.703 57.68 264.523 58.37 266.823 58.37C269.383 58.37 271.433 57.58 272.973 56C274.513 54.42 275.583 52.3 276.183 49.64H268.323L268.563 48.56H277.533ZM297.129 37.64L296.889 38.78H284.229L282.429 47.36H294.249L294.009 48.47H282.189L280.209 57.86H293.259L293.019 59H278.649L283.179 37.64H297.129ZM307.409 37.64L311.369 59H310.019L308.789 52.1H298.529L294.329 59H292.829L306.029 37.64H307.409ZM306.509 38.84C306.289 39.2 305.959 39.77 305.519 40.55C305.099 41.33 304.769 41.9 304.529 42.26L299.159 51.02H308.609L307.019 42.17C306.739 40.69 306.569 39.58 306.509 38.84ZM317.559 37.64H324.339C325.139 37.64 325.819 37.66 326.379 37.7C326.959 37.74 327.589 37.86 328.269 38.06C328.969 38.24 329.529 38.5 329.949 38.84C330.389 39.16 330.759 39.63 331.059 40.25C331.359 40.85 331.509 41.58 331.509 42.44C331.509 43.9 331.049 45.12 330.129 46.1C329.229 47.08 327.989 47.68 326.409 47.9C327.649 48.12 328.619 48.61 329.319 49.37C330.039 50.11 330.399 51.12 330.399 52.4C330.399 54.28 329.739 55.85 328.419 57.11C327.799 57.69 327.059 58.13 326.199 58.43C325.359 58.73 324.639 58.9 324.039 58.94C323.459 58.98 322.599 59 321.459 59H313.059L317.559 37.64ZM318.609 38.78L316.779 47.42H323.349C327.929 47.42 330.219 45.78 330.219 42.5C330.219 41.82 330.099 41.24 329.859 40.76C329.619 40.28 329.329 39.92 328.989 39.68C328.669 39.42 328.219 39.22 327.639 39.08C327.079 38.94 326.569 38.86 326.109 38.84C325.669 38.8 325.109 38.78 324.429 38.78H318.609ZM316.539 48.47L314.559 57.92H321.009C322.949 57.92 324.409 57.79 325.389 57.53C326.489 57.25 327.379 56.64 328.059 55.7C328.759 54.74 329.109 53.65 329.109 52.43C329.109 51.73 328.989 51.13 328.749 50.63C328.509 50.13 328.209 49.75 327.849 49.49C327.489 49.21 327.019 48.99 326.439 48.83C325.859 48.67 325.319 48.57 324.819 48.53C324.339 48.49 323.769 48.47 323.109 48.47H316.539ZM337.505 37.64L333.215 57.86H345.245L345.005 59H331.655L336.185 37.64H337.505ZM364.835 37.64L364.595 38.78H351.935L350.135 47.36H361.955L361.715 48.47H349.895L347.915 57.86H360.965L360.725 59H346.355L350.885 37.64H364.835ZM366.775 55.94L366.145 58.94C365.905 60.04 365.585 60.89 365.185 61.49C364.785 62.09 364.115 62.54 363.175 62.84L363.385 61.85C363.785 61.71 364.105 61.47 364.345 61.13C364.605 60.79 364.775 60.48 364.855 60.2C364.955 59.92 365.065 59.52 365.185 59H364.645L365.305 55.94H366.775ZM391.214 37.64L395.174 59H393.824L392.594 52.1H382.334L378.134 59H376.634L389.834 37.64H391.214ZM390.314 38.84C390.094 39.2 389.764 39.77 389.324 40.55C388.904 41.33 388.574 41.9 388.334 42.26L382.964 51.02H392.414L390.824 42.17C390.544 40.69 390.374 39.58 390.314 38.84ZM401.394 37.64H407.244C409.964 37.64 411.924 38.05 413.124 38.87C415.204 40.25 416.244 42.64 416.244 46.04C416.244 48.16 415.824 50.17 414.984 52.07C414.164 53.95 413.014 55.49 411.534 56.69C410.334 57.67 409.114 58.3 407.874 58.58C406.654 58.86 405.094 59 403.194 59H396.924L401.394 37.64ZM402.444 38.78L398.454 57.86H405.144C407.184 57.86 408.964 57.27 410.484 56.09C412.024 54.91 413.154 53.44 413.874 51.68C414.614 49.9 414.984 48 414.984 45.98C414.984 43.46 414.374 41.63 413.154 40.49C411.954 39.35 410.074 38.78 407.514 38.78H402.444ZM429.491 37.64L433.451 59H432.101L430.871 52.1H420.611L416.411 59H414.911L428.111 37.64H429.491ZM428.591 38.84C428.371 39.2 428.041 39.77 427.601 40.55C427.181 41.33 426.851 41.9 426.611 42.26L421.241 51.02H430.691L429.101 42.17C428.821 40.69 428.651 39.58 428.591 38.84ZM439.611 37.64H446.811C447.811 37.64 448.671 37.71 449.391 37.85C450.131 37.99 450.831 38.24 451.491 38.6C452.171 38.96 452.681 39.5 453.021 40.22C453.381 40.94 453.561 41.83 453.561 42.89C453.561 44.17 453.241 45.34 452.601 46.4C451.961 47.44 451.111 48.22 450.051 48.74C448.991 49.24 447.241 49.49 444.801 49.49H438.411L436.401 59H435.081L439.611 37.64ZM440.691 38.78L438.651 48.38H444.741C447.261 48.38 449.021 48.06 450.021 47.42C450.701 46.98 451.241 46.36 451.641 45.56C452.061 44.74 452.271 43.87 452.271 42.95C452.271 41.31 451.761 40.21 450.741 39.65C449.741 39.07 448.321 38.78 446.481 38.78H440.691ZM471.014 37.64L470.774 38.75H463.334L459.074 59H457.754L462.044 38.75H454.334L454.574 37.64H471.014ZM473.731 37.64L469.201 59H467.881L472.411 37.64H473.731ZM492.828 37.64L480.348 59H478.758L475.188 37.64H476.538L479.118 53.57C479.218 54.11 479.338 54.89 479.478 55.91C479.618 56.93 479.708 57.58 479.748 57.86C480.248 56.9 481.008 55.53 482.028 53.75L491.388 37.64H492.828ZM508.525 37.64L508.285 38.78H495.625L493.825 47.36H505.645L505.405 48.47H493.585L491.605 57.86H504.655L504.415 59H490.045L494.575 37.64H508.525ZM510.465 55.94L509.835 58.94C509.595 60.04 509.275 60.89 508.875 61.49C508.475 62.09 507.805 62.54 506.865 62.84L507.075 61.85C507.475 61.71 507.795 61.47 508.035 61.13C508.295 60.79 508.465 60.48 508.545 60.2C508.645 59.92 508.755 59.52 508.875 59H508.335L508.995 55.94H510.465Z" fill="white"/>
<path d="M85.33 107.64L89.29 129H87.94L86.71 122.1H76.45L72.25 129H70.75L83.95 107.64H85.33ZM84.43 108.84C84.21 109.2 83.88 109.77 83.44 110.55C83.02 111.33 82.69 111.9 82.45 112.26L77.08 121.02H86.53L84.94 112.17C84.66 110.69 84.49 109.58 84.43 108.84ZM111.89 107.64L107.36 129H105.92L97.4598 111.57C97.2598 111.17 96.8798 110.32 96.3198 109.02C96.1798 110.02 95.9698 111.18 95.6898 112.5L92.2098 129H90.9198L95.4498 107.64H96.9498L104.51 123.27C105.25 124.79 105.91 126.24 106.49 127.62L110.63 107.64H111.89ZM115.747 107.64H121.597C124.317 107.64 126.277 108.05 127.477 108.87C129.557 110.25 130.597 112.64 130.597 116.04C130.597 118.16 130.177 120.17 129.337 122.07C128.517 123.95 127.367 125.49 125.887 126.69C124.687 127.67 123.467 128.3 122.227 128.58C121.007 128.86 119.447 129 117.547 129H111.277L115.747 107.64ZM116.797 108.78L112.807 127.86H119.497C121.537 127.86 123.317 127.27 124.837 126.09C126.377 124.91 127.507 123.44 128.227 121.68C128.967 119.9 129.337 118 129.337 115.98C129.337 113.46 128.727 111.63 127.507 110.49C126.307 109.35 124.427 108.78 121.867 108.78H116.797ZM144.034 107.64H149.884C152.604 107.64 154.564 108.05 155.764 108.87C157.844 110.25 158.884 112.64 158.884 116.04C158.884 118.16 158.464 120.17 157.624 122.07C156.804 123.95 155.654 125.49 154.174 126.69C152.974 127.67 151.754 128.3 150.514 128.58C149.294 128.86 147.734 129 145.834 129H139.564L144.034 107.64ZM145.084 108.78L141.094 127.86H147.784C149.824 127.86 151.604 127.27 153.124 126.09C154.664 124.91 155.794 123.44 156.514 121.68C157.254 119.9 157.624 118 157.624 115.98C157.624 113.46 157.014 111.63 155.794 110.49C154.594 109.35 152.714 108.78 150.154 108.78H145.084ZM178.221 107.64L177.981 108.78H165.321L163.521 117.36H175.341L175.101 118.47H163.281L161.301 127.86H174.351L174.111 129H159.741L164.271 107.64H178.221ZM194.321 113.79H193.091V113.49C193.091 110.11 191.051 108.42 186.971 108.42C185.071 108.42 183.561 108.84 182.441 109.68C181.341 110.5 180.791 111.61 180.791 113.01C180.791 113.43 180.851 113.82 180.971 114.18C181.111 114.54 181.261 114.85 181.421 115.11C181.601 115.37 181.861 115.63 182.201 115.89C182.561 116.13 182.861 116.32 183.101 116.46C183.341 116.6 183.701 116.76 184.181 116.94C184.661 117.1 185.011 117.22 185.231 117.3C185.451 117.36 185.821 117.47 186.341 117.63C186.881 117.77 187.221 117.86 187.361 117.9C189.081 118.38 190.381 119 191.261 119.76C192.161 120.5 192.611 121.65 192.611 123.21C192.611 125.09 191.871 126.6 190.391 127.74C188.931 128.86 186.991 129.42 184.571 129.42C182.071 129.42 180.131 128.83 178.751 127.65C177.371 126.47 176.681 124.8 176.681 122.64C176.681 122.56 176.681 122.45 176.681 122.31C176.701 122.17 176.711 122.04 176.711 121.92H177.971V122.49C177.971 124.49 178.561 125.97 179.741 126.93C180.921 127.87 182.551 128.34 184.631 128.34C186.651 128.34 188.271 127.88 189.491 126.96C190.731 126.02 191.351 124.78 191.351 123.24C191.351 122.06 190.971 121.18 190.211 120.6C189.451 120 188.391 119.5 187.031 119.1C186.891 119.06 186.531 118.96 185.951 118.8C185.371 118.62 184.981 118.5 184.781 118.44C184.581 118.36 184.211 118.23 183.671 118.05C183.151 117.87 182.781 117.71 182.561 117.57C182.341 117.43 182.031 117.25 181.631 117.03C181.231 116.79 180.931 116.55 180.731 116.31C180.551 116.05 180.351 115.76 180.131 115.44C179.911 115.12 179.751 114.76 179.651 114.36C179.571 113.96 179.531 113.53 179.531 113.07C179.531 111.31 180.201 109.91 181.541 108.87C182.881 107.83 184.691 107.31 186.971 107.31C189.371 107.31 191.201 107.82 192.461 108.84C193.721 109.84 194.351 111.3 194.351 113.22C194.351 113.4 194.341 113.59 194.321 113.79ZM213.097 107.64L212.857 108.75H205.417L201.157 129H199.837L204.127 108.75H196.417L196.657 107.64H213.097ZM214.524 107.64H221.784C222.764 107.64 223.624 107.71 224.364 107.85C225.124 107.99 225.844 108.24 226.524 108.6C227.224 108.94 227.754 109.47 228.114 110.19C228.494 110.89 228.684 111.77 228.684 112.83C228.684 114.53 228.134 115.94 227.034 117.06C225.934 118.16 224.484 118.76 222.684 118.86C223.864 119.06 224.674 119.51 225.114 120.21C225.574 120.89 225.804 121.85 225.804 123.09C225.804 123.51 225.774 124.13 225.714 124.95C225.674 125.77 225.654 126.39 225.654 126.81C225.654 127.65 225.754 128.38 225.954 129H224.604C224.444 128.38 224.364 127.67 224.364 126.87C224.364 126.41 224.384 125.71 224.424 124.77C224.484 123.83 224.514 123.24 224.514 123C224.514 122.16 224.394 121.48 224.154 120.96C223.934 120.44 223.554 120.07 223.014 119.85C222.494 119.61 221.964 119.46 221.424 119.4C220.904 119.32 220.194 119.28 219.294 119.28H213.384L211.314 129H209.994L214.524 107.64ZM215.574 108.81L213.594 118.17H219.924C221.404 118.17 222.554 118.08 223.374 117.9C224.214 117.72 224.924 117.4 225.504 116.94C226.084 116.5 226.544 115.92 226.884 115.2C227.224 114.48 227.394 113.73 227.394 112.95C227.394 112.25 227.284 111.65 227.064 111.15C226.864 110.65 226.584 110.25 226.224 109.95C225.884 109.65 225.454 109.42 224.934 109.26C224.414 109.08 223.894 108.96 223.374 108.9C222.854 108.84 222.254 108.81 221.574 108.81H215.574ZM249.95 115.89C249.95 117.63 249.7 119.31 249.2 120.93C248.7 122.53 247.98 123.98 247.04 125.28C246.1 126.56 244.89 127.59 243.41 128.37C241.93 129.13 240.29 129.51 238.49 129.51C235.83 129.51 233.72 128.7 232.16 127.08C230.6 125.44 229.82 123.23 229.82 120.45C229.82 118.09 230.25 115.92 231.11 113.94C231.99 111.94 233.32 110.31 235.1 109.05C236.88 107.77 238.96 107.13 241.34 107.13C243.96 107.13 246.05 107.93 247.61 109.53C249.17 111.11 249.95 113.23 249.95 115.89ZM241.19 108.27C239.59 108.27 238.13 108.62 236.81 109.32C235.51 110.02 234.45 110.95 233.63 112.11C232.83 113.27 232.21 114.57 231.77 116.01C231.33 117.45 231.11 118.93 231.11 120.45C231.11 122.87 231.78 124.8 233.12 126.24C234.48 127.68 236.29 128.4 238.55 128.4C239.81 128.4 240.99 128.16 242.09 127.68C243.19 127.2 244.13 126.56 244.91 125.76C245.71 124.94 246.39 124 246.95 122.94C247.53 121.88 247.96 120.77 248.24 119.61C248.52 118.43 248.66 117.26 248.66 116.1C248.66 113.72 248 111.82 246.68 110.4C245.36 108.98 243.53 108.27 241.19 108.27ZM270.087 107.64L259.257 120.24L257.397 129H256.107L257.997 120.03L252.237 107.64H253.647L257.517 116.1C258.257 117.74 258.687 118.72 258.807 119.04C259.507 118.16 260.247 117.27 261.027 116.37L268.527 107.64H270.087ZM285.077 113.79H283.847V113.49C283.847 110.11 281.807 108.42 277.727 108.42C275.827 108.42 274.317 108.84 273.197 109.68C272.097 110.5 271.547 111.61 271.547 113.01C271.547 113.43 271.607 113.82 271.727 114.18C271.867 114.54 272.017 114.85 272.177 115.11C272.357 115.37 272.617 115.63 272.957 115.89C273.317 116.13 273.617 116.32 273.857 116.46C274.097 116.6 274.457 116.76 274.937 116.94C275.417 117.1 275.767 117.22 275.987 117.3C276.207 117.36 276.577 117.47 277.097 117.63C277.637 117.77 277.977 117.86 278.117 117.9C279.837 118.38 281.137 119 282.017 119.76C282.917 120.5 283.367 121.65 283.367 123.21C283.367 125.09 282.627 126.6 281.147 127.74C279.687 128.86 277.747 129.42 275.327 129.42C272.827 129.42 270.887 128.83 269.507 127.65C268.127 126.47 267.437 124.8 267.437 122.64C267.437 122.56 267.437 122.45 267.437 122.31C267.457 122.17 267.467 122.04 267.467 121.92H268.727V122.49C268.727 124.49 269.317 125.97 270.497 126.93C271.677 127.87 273.307 128.34 275.387 128.34C277.407 128.34 279.027 127.88 280.247 126.96C281.487 126.02 282.107 124.78 282.107 123.24C282.107 122.06 281.727 121.18 280.967 120.6C280.207 120 279.147 119.5 277.787 119.1C277.647 119.06 277.287 118.96 276.707 118.8C276.127 118.62 275.737 118.5 275.537 118.44C275.337 118.36 274.967 118.23 274.427 118.05C273.907 117.87 273.537 117.71 273.317 117.57C273.097 117.43 272.787 117.25 272.387 117.03C271.987 116.79 271.687 116.55 271.487 116.31C271.307 116.05 271.107 115.76 270.887 115.44C270.667 115.12 270.507 114.76 270.407 114.36C270.327 113.96 270.287 113.53 270.287 113.07C270.287 111.31 270.957 109.91 272.297 108.87C273.637 107.83 275.447 107.31 277.727 107.31C280.127 107.31 281.957 107.82 283.217 108.84C284.477 109.84 285.107 111.3 285.107 113.22C285.107 113.4 285.097 113.59 285.077 113.79ZM314.903 115.89C314.903 117.63 314.653 119.31 314.153 120.93C313.653 122.53 312.933 123.98 311.993 125.28C311.053 126.56 309.843 127.59 308.363 128.37C306.883 129.13 305.243 129.51 303.443 129.51C300.783 129.51 298.673 128.7 297.113 127.08C295.553 125.44 294.773 123.23 294.773 120.45C294.773 118.09 295.203 115.92 296.063 113.94C296.943 111.94 298.273 110.31 300.053 109.05C301.833 107.77 303.913 107.13 306.293 107.13C308.913 107.13 311.003 107.93 312.563 109.53C314.123 111.11 314.903 113.23 314.903 115.89ZM306.143 108.27C304.543 108.27 303.083 108.62 301.763 109.32C300.463 110.02 299.403 110.95 298.583 112.11C297.783 113.27 297.163 114.57 296.723 116.01C296.283 117.45 296.063 118.93 296.063 120.45C296.063 122.87 296.733 124.8 298.073 126.24C299.433 127.68 301.243 128.4 303.503 128.4C304.763 128.4 305.943 128.16 307.043 127.68C308.143 127.2 309.083 126.56 309.863 125.76C310.663 124.94 311.343 124 311.903 122.94C312.483 121.88 312.913 120.77 313.193 119.61C313.473 118.43 313.613 117.26 313.613 116.1C313.613 113.72 312.953 111.82 311.633 110.4C310.313 108.98 308.483 108.27 306.143 108.27ZM321.299 107.64L317.009 127.86H329.039L328.799 129H315.449L319.979 107.64H321.299ZM334.679 107.64H340.529C343.249 107.64 345.209 108.05 346.409 108.87C348.489 110.25 349.529 112.64 349.529 116.04C349.529 118.16 349.109 120.17 348.269 122.07C347.449 123.95 346.299 125.49 344.819 126.69C343.619 127.67 342.399 128.3 341.159 128.58C339.939 128.86 338.379 129 336.479 129H330.209L334.679 107.64ZM335.729 108.78L331.739 127.86H338.429C340.469 127.86 342.249 127.27 343.769 126.09C345.309 124.91 346.439 123.44 347.159 121.68C347.899 119.9 348.269 118 348.269 115.98C348.269 113.46 347.659 111.63 346.439 110.49C345.239 109.35 343.359 108.78 340.799 108.78H335.729ZM379.826 115.89C379.826 117.63 379.576 119.31 379.076 120.93C378.576 122.53 377.856 123.98 376.916 125.28C375.976 126.56 374.766 127.59 373.286 128.37C371.806 129.13 370.166 129.51 368.366 129.51C365.706 129.51 363.596 128.7 362.036 127.08C360.476 125.44 359.696 123.23 359.696 120.45C359.696 118.09 360.126 115.92 360.986 113.94C361.866 111.94 363.196 110.31 364.976 109.05C366.756 107.77 368.836 107.13 371.216 107.13C373.836 107.13 375.926 107.93 377.486 109.53C379.046 111.11 379.826 113.23 379.826 115.89ZM371.066 108.27C369.466 108.27 368.006 108.62 366.686 109.32C365.386 110.02 364.326 110.95 363.506 112.11C362.706 113.27 362.086 114.57 361.646 116.01C361.206 117.45 360.986 118.93 360.986 120.45C360.986 122.87 361.656 124.8 362.996 126.24C364.356 127.68 366.166 128.4 368.426 128.4C369.686 128.4 370.866 128.16 371.966 127.68C373.066 127.2 374.006 126.56 374.786 125.76C375.586 124.94 376.266 124 376.826 122.94C377.406 121.88 377.836 120.77 378.116 119.61C378.396 118.43 378.536 117.26 378.536 116.1C378.536 113.72 377.876 111.82 376.556 110.4C375.236 108.98 373.406 108.27 371.066 108.27ZM401.282 107.64L396.752 129H395.312L386.852 111.57C386.652 111.17 386.272 110.32 385.712 109.02C385.572 110.02 385.362 111.18 385.082 112.5L381.602 129H380.312L384.842 107.64H386.342L393.902 123.27C394.642 124.79 395.302 126.24 395.882 127.62L400.022 107.64H401.282ZM419.089 107.64L418.849 108.78H406.189L404.389 117.36H416.209L415.969 118.47H404.149L402.169 127.86H415.219L414.979 129H400.609L405.139 107.64H419.089ZM435.189 113.79H433.959V113.49C433.959 110.11 431.919 108.42 427.839 108.42C425.939 108.42 424.429 108.84 423.309 109.68C422.209 110.5 421.659 111.61 421.659 113.01C421.659 113.43 421.719 113.82 421.839 114.18C421.979 114.54 422.129 114.85 422.289 115.11C422.469 115.37 422.729 115.63 423.069 115.89C423.429 116.13 423.729 116.32 423.969 116.46C424.209 116.6 424.569 116.76 425.049 116.94C425.529 117.1 425.879 117.22 426.099 117.3C426.319 117.36 426.689 117.47 427.209 117.63C427.749 117.77 428.089 117.86 428.229 117.9C429.949 118.38 431.249 119 432.129 119.76C433.029 120.5 433.479 121.65 433.479 123.21C433.479 125.09 432.739 126.6 431.259 127.74C429.799 128.86 427.859 129.42 425.439 129.42C422.939 129.42 420.999 128.83 419.619 127.65C418.239 126.47 417.549 124.8 417.549 122.64C417.549 122.56 417.549 122.45 417.549 122.31C417.569 122.17 417.579 122.04 417.579 121.92H418.839V122.49C418.839 124.49 419.429 125.97 420.609 126.93C421.789 127.87 423.419 128.34 425.499 128.34C427.519 128.34 429.139 127.88 430.359 126.96C431.599 126.02 432.219 124.78 432.219 123.24C432.219 122.06 431.839 121.18 431.079 120.6C430.319 120 429.259 119.5 427.899 119.1C427.759 119.06 427.399 118.96 426.819 118.8C426.239 118.62 425.849 118.5 425.649 118.44C425.449 118.36 425.079 118.23 424.539 118.05C424.019 117.87 423.649 117.71 423.429 117.57C423.209 117.43 422.899 117.25 422.499 117.03C422.099 116.79 421.799 116.55 421.599 116.31C421.419 116.05 421.219 115.76 420.999 115.44C420.779 115.12 420.619 114.76 420.519 114.36C420.439 113.96 420.399 113.53 420.399 113.07C420.399 111.31 421.069 109.91 422.409 108.87C423.749 107.83 425.559 107.31 427.839 107.31C430.239 107.31 432.069 107.82 433.329 108.84C434.589 109.84 435.219 111.3 435.219 113.22C435.219 113.4 435.209 113.59 435.189 113.79ZM439.236 125.94L438.576 129H437.076L437.736 125.94H439.236Z" fill="white"/>
<path d="M20.46 85.93C20.22 88.63 19.28 90.74 17.64 92.26C16.02 93.76 13.88 94.51 11.22 94.51C8.18 94.51 5.77 93.51 3.99 91.51C2.21 89.49 1.32 86.77 1.32 83.35C1.32 80.15 2.21 77.49 3.99 75.37C5.79 73.23 8.27 72.16 11.43 72.16C13.69 72.16 15.68 72.77 17.4 73.99C19.12 75.21 20.08 76.9 20.28 79.06H17.46C17.14 77.66 16.44 76.57 15.36 75.79C14.28 74.99 12.95 74.59 11.37 74.59C8.99 74.59 7.19 75.43 5.97 77.11C4.77 78.79 4.17 80.86 4.17 83.32C4.17 86.04 4.81 88.18 6.09 89.74C7.37 91.3 9.12 92.08 11.34 92.08C13.16 92.08 14.61 91.56 15.69 90.52C16.77 89.46 17.42 87.93 17.64 85.93H20.46ZM23.7204 72.64H33.1104C37.8904 72.64 40.2804 74.61 40.2804 78.55C40.2804 79.79 39.9404 80.89 39.2604 81.85C38.6004 82.79 37.7204 83.42 36.6204 83.74C37.3404 83.9 37.9204 84.13 38.3604 84.43C38.8004 84.73 39.1204 85.15 39.3204 85.69C39.5204 86.23 39.6504 86.71 39.7104 87.13C39.7704 87.55 39.8204 88.17 39.8604 88.99C39.8604 89.07 39.8704 89.27 39.8904 89.59C39.9104 89.89 39.9204 90.1 39.9204 90.22C39.9204 90.32 39.9304 90.51 39.9504 90.79C39.9904 91.07 40.0204 91.28 40.0404 91.42C40.0604 91.56 40.0904 91.75 40.1304 91.99C40.1704 92.23 40.2204 92.43 40.2804 92.59C40.3404 92.73 40.4104 92.9 40.4904 93.1C40.5704 93.28 40.6604 93.45 40.7604 93.61C40.8604 93.75 40.9704 93.88 41.0904 94H37.8504C37.7104 93.8 37.5904 93.55 37.4904 93.25C37.4104 92.95 37.3504 92.6 37.3104 92.2C37.2704 91.78 37.2404 91.45 37.2204 91.21C37.2004 90.95 37.1804 90.58 37.1604 90.1C37.1404 89.62 37.1304 89.35 37.1304 89.29C37.0304 87.47 36.6504 86.26 35.9904 85.66C35.3504 85.06 34.0704 84.76 32.1504 84.76H26.5404V94H23.7204V72.64ZM26.5404 75.04V82.51H31.8504C32.5104 82.51 33.0604 82.49 33.5004 82.45C33.9604 82.41 34.4604 82.32 35.0004 82.18C35.5404 82.04 35.9704 81.84 36.2904 81.58C36.6304 81.32 36.9104 80.95 37.1304 80.47C37.3504 79.99 37.4604 79.41 37.4604 78.73C37.4604 77.29 37.0204 76.32 36.1404 75.82C35.2804 75.3 34.1004 75.04 32.6004 75.04H26.5404ZM58.7475 72.64V75.1H46.7775V81.79H57.9675V84.16H46.7775V91.54H58.8975V94H43.9575V72.64H58.7475ZM70.9673 72.64L79.3073 94H76.1573L73.7873 87.46H64.8173L62.3873 94H59.3873L67.7873 72.64H70.9673ZM72.9473 85.21L69.3173 75.34L65.6273 85.21H72.9473ZM95.9705 72.64V75.1H88.8005V94H85.9805V75.1H78.8105V72.64H95.9705ZM112.867 72.64V75.1H100.897V81.79H112.087V84.16H100.897V91.54H113.017V94H98.077V72.64H112.867ZM131.237 78.91H128.507C128.207 76.01 126.437 74.56 123.197 74.56C121.657 74.56 120.467 74.87 119.627 75.49C118.787 76.11 118.367 76.98 118.367 78.1C118.367 78.5 118.427 78.85 118.547 79.15C118.667 79.45 118.867 79.72 119.147 79.96C119.447 80.18 119.727 80.37 119.987 80.53C120.247 80.69 120.657 80.85 121.217 81.01C121.777 81.17 122.227 81.29 122.567 81.37C122.907 81.43 123.437 81.54 124.157 81.7C125.037 81.88 125.767 82.05 126.347 82.21C126.927 82.35 127.617 82.59 128.417 82.93C129.217 83.27 129.847 83.65 130.307 84.07C130.787 84.47 131.197 85.01 131.537 85.69C131.897 86.37 132.077 87.14 132.077 88C132.077 89.5 131.657 90.76 130.817 91.78C129.977 92.78 128.957 93.48 127.757 93.88C126.557 94.28 125.227 94.48 123.767 94.48C121.087 94.48 118.937 93.85 117.317 92.59C115.717 91.31 114.917 89.43 114.917 86.95H117.647C117.707 88.77 118.317 90.1 119.477 90.94C120.637 91.76 122.147 92.17 124.007 92.17C125.467 92.17 126.717 91.87 127.757 91.27C128.797 90.65 129.317 89.65 129.317 88.27C129.317 87.63 129.177 87.09 128.897 86.65C128.617 86.19 128.177 85.82 127.577 85.54C126.977 85.24 126.377 85 125.777 84.82C125.177 84.64 124.387 84.44 123.407 84.22C123.267 84.2 123.167 84.18 123.107 84.16C120.907 83.66 119.467 83.26 118.787 82.96C116.707 82.06 115.667 80.51 115.667 78.31C115.667 76.27 116.417 74.75 117.917 73.75C119.437 72.73 121.267 72.22 123.407 72.22C125.747 72.22 127.617 72.78 129.017 73.9C130.417 75.02 131.157 76.69 131.237 78.91ZM143.2 72.64H146.29L157.57 89.98V72.64H160.3V94H157.12L145.9 76.87V94H143.2V72.64ZM179.46 72.64V75.1H167.49V81.79H178.68V84.16H167.49V91.54H179.61V94H164.67V72.64H179.46ZM180.76 72.64H183.67L187.9 90.49L192.73 72.64H195.82L200.59 90.49L204.97 72.64H207.79L202.09 94H199.12L194.2 76.12L189.22 94H186.25L180.76 72.64ZM232.303 72.64V75.1H221.083V81.76H230.983V84.13H221.083V94H218.263V72.64H232.303ZM244.159 72.13C247.399 72.13 249.919 73.15 251.719 75.19C253.519 77.21 254.419 79.86 254.419 83.14C254.419 86.44 253.529 89.16 251.749 91.3C249.969 93.44 247.449 94.51 244.189 94.51C242.529 94.51 241.039 94.21 239.719 93.61C238.399 93.01 237.319 92.18 236.479 91.12C235.659 90.06 235.029 88.85 234.589 87.49C234.169 86.13 233.959 84.66 233.959 83.08C233.959 79.74 234.879 77.08 236.719 75.1C238.579 73.12 241.059 72.13 244.159 72.13ZM244.159 74.59C241.779 74.59 239.949 75.43 238.669 77.11C237.409 78.77 236.779 80.83 236.779 83.29C236.779 85.97 237.449 88.11 238.789 89.71C240.149 91.29 241.959 92.08 244.219 92.08C246.459 92.08 248.249 91.28 249.589 89.68C250.929 88.08 251.599 85.95 251.599 83.29C251.599 80.65 250.919 78.54 249.559 76.96C248.219 75.38 246.419 74.59 244.159 74.59ZM257.652 72.64H267.042C271.822 72.64 274.212 74.61 274.212 78.55C274.212 79.79 273.872 80.89 273.192 81.85C272.532 82.79 271.652 83.42 270.552 83.74C271.272 83.9 271.852 84.13 272.292 84.43C272.732 84.73 273.052 85.15 273.252 85.69C273.452 86.23 273.582 86.71 273.642 87.13C273.702 87.55 273.752 88.17 273.792 88.99C273.792 89.07 273.802 89.27 273.822 89.59C273.842 89.89 273.852 90.1 273.852 90.22C273.852 90.32 273.862 90.51 273.882 90.79C273.922 91.07 273.952 91.28 273.972 91.42C273.992 91.56 274.022 91.75 274.062 91.99C274.102 92.23 274.152 92.43 274.212 92.59C274.272 92.73 274.342 92.9 274.422 93.1C274.502 93.28 274.592 93.45 274.692 93.61C274.792 93.75 274.902 93.88 275.022 94H271.782C271.642 93.8 271.522 93.55 271.422 93.25C271.342 92.95 271.282 92.6 271.242 92.2C271.202 91.78 271.172 91.45 271.152 91.21C271.132 90.95 271.112 90.58 271.092 90.1C271.072 89.62 271.062 89.35 271.062 89.29C270.962 87.47 270.582 86.26 269.922 85.66C269.282 85.06 268.002 84.76 266.082 84.76H260.472V94H257.652V72.64ZM260.472 75.04V82.51H265.782C266.442 82.51 266.992 82.49 267.432 82.45C267.892 82.41 268.392 82.32 268.932 82.18C269.472 82.04 269.902 81.84 270.222 81.58C270.562 81.32 270.842 80.95 271.062 80.47C271.282 79.99 271.392 79.41 271.392 78.73C271.392 77.29 270.952 76.32 270.072 75.82C269.212 75.3 268.032 75.04 266.532 75.04H260.472ZM277.92 72.64H281.82L288.69 90.73L295.32 72.64H299.25V94H296.58V76.18L289.89 94H287.43L280.62 76.18V94H277.92V72.64ZM318.842 78.91H316.112C315.812 76.01 314.042 74.56 310.802 74.56C309.262 74.56 308.072 74.87 307.232 75.49C306.392 76.11 305.972 76.98 305.972 78.1C305.972 78.5 306.032 78.85 306.152 79.15C306.272 79.45 306.472 79.72 306.752 79.96C307.052 80.18 307.332 80.37 307.592 80.53C307.852 80.69 308.262 80.85 308.822 81.01C309.382 81.17 309.832 81.29 310.172 81.37C310.512 81.43 311.042 81.54 311.762 81.7C312.642 81.88 313.372 82.05 313.952 82.21C314.532 82.35 315.222 82.59 316.022 82.93C316.822 83.27 317.452 83.65 317.912 84.07C318.392 84.47 318.802 85.01 319.142 85.69C319.502 86.37 319.682 87.14 319.682 88C319.682 89.5 319.262 90.76 318.422 91.78C317.582 92.78 316.562 93.48 315.362 93.88C314.162 94.28 312.832 94.48 311.372 94.48C308.692 94.48 306.542 93.85 304.922 92.59C303.322 91.31 302.522 89.43 302.522 86.95H305.252C305.312 88.77 305.922 90.1 307.082 90.94C308.242 91.76 309.752 92.17 311.612 92.17C313.072 92.17 314.322 91.87 315.362 91.27C316.402 90.65 316.922 89.65 316.922 88.27C316.922 87.63 316.782 87.09 316.502 86.65C316.222 86.19 315.782 85.82 315.182 85.54C314.582 85.24 313.982 85 313.382 84.82C312.782 84.64 311.992 84.44 311.012 84.22C310.872 84.2 310.772 84.18 310.712 84.16C308.512 83.66 307.072 83.26 306.392 82.96C304.312 82.06 303.272 80.51 303.272 78.31C303.272 76.27 304.022 74.75 305.522 73.75C307.042 72.73 308.872 72.22 311.012 72.22C313.352 72.22 315.222 72.78 316.622 73.9C318.022 75.02 318.762 76.69 318.842 78.91Z" fill="white"/>
<path d="M181.82 180.608V192H180.732V180.608H181.82ZM194.263 192.08L193.719 192.768L191.927 191.408C191.18 191.995 190.199 192.288 188.983 192.288C187.383 192.288 186.087 191.744 185.095 190.656C184.103 189.557 183.607 188.128 183.607 186.368C183.607 184.587 184.103 183.147 185.095 182.048C186.087 180.939 187.378 180.384 188.967 180.384C190.556 180.384 191.847 180.933 192.839 182.032C193.831 183.131 194.327 184.56 194.327 186.32C194.327 188.219 193.767 189.728 192.647 190.848L194.263 192.08ZM191.831 190.24C192.78 189.184 193.255 187.872 193.255 186.304C193.255 184.821 192.86 183.621 192.071 182.704C191.282 181.787 190.247 181.328 188.967 181.328C187.698 181.328 186.668 181.792 185.879 182.72C185.09 183.637 184.695 184.843 184.695 186.336C184.684 187.861 185.074 189.083 185.863 190C186.652 190.907 187.708 191.36 189.031 191.36C189.82 191.36 190.508 191.157 191.095 190.752L189.591 189.616L190.151 188.928L191.831 190.24ZM200.826 180.336C202.416 180.336 203.706 180.891 204.698 182C205.701 183.109 206.202 184.555 206.202 186.336C206.202 188.107 205.706 189.541 204.714 190.64C203.722 191.728 202.421 192.272 200.81 192.272C199.21 192.272 197.92 191.723 196.938 190.624C195.957 189.525 195.466 188.085 195.466 186.304C195.466 184.523 195.957 183.083 196.938 181.984C197.93 180.885 199.226 180.336 200.826 180.336ZM200.81 181.28C199.541 181.28 198.512 181.739 197.722 182.656C196.944 183.573 196.554 184.779 196.554 186.272C196.554 187.797 196.944 189.024 197.722 189.952C198.501 190.869 199.536 191.328 200.826 191.328C202.117 191.328 203.152 190.869 203.93 189.952C204.72 189.035 205.114 187.824 205.114 186.32C205.114 184.816 204.72 183.6 203.93 182.672C203.141 181.744 202.101 181.28 200.81 181.28ZM215.87 183.888H214.814C214.771 183.045 214.467 182.405 213.902 181.968C213.347 181.52 212.595 181.296 211.646 181.296C210.75 181.296 210.051 181.483 209.55 181.856C209.048 182.229 208.798 182.757 208.798 183.44C208.798 183.685 208.824 183.904 208.878 184.096C208.942 184.277 209.048 184.437 209.198 184.576C209.358 184.715 209.502 184.832 209.63 184.928C209.768 185.013 209.987 185.104 210.286 185.2C210.584 185.285 210.824 185.355 211.006 185.408C211.187 185.451 211.475 185.515 211.87 185.6C212.296 185.696 212.643 185.776 212.91 185.84C213.176 185.904 213.48 185.989 213.822 186.096C214.163 186.203 214.435 186.309 214.638 186.416C214.851 186.523 215.07 186.656 215.294 186.816C215.518 186.976 215.688 187.152 215.806 187.344C215.923 187.536 216.019 187.765 216.094 188.032C216.179 188.288 216.222 188.576 216.222 188.896C216.222 189.675 216.003 190.325 215.566 190.848C215.139 191.371 214.616 191.733 213.998 191.936C213.379 192.139 212.691 192.24 211.934 192.24C210.515 192.24 209.4 191.893 208.59 191.2C207.79 190.507 207.39 189.552 207.39 188.336V188.24H208.43C208.43 189.275 208.744 190.053 209.374 190.576C210.014 191.099 210.894 191.36 212.014 191.36C212.995 191.36 213.768 191.152 214.334 190.736C214.899 190.32 215.182 189.744 215.182 189.008C215.182 188.293 214.91 187.787 214.366 187.488C213.832 187.179 212.819 186.848 211.326 186.496C210.846 186.389 210.488 186.304 210.254 186.24C210.03 186.176 209.726 186.064 209.342 185.904C208.958 185.744 208.67 185.573 208.478 185.392C208.296 185.2 208.131 184.944 207.982 184.624C207.832 184.304 207.758 183.931 207.758 183.504C207.758 182.544 208.11 181.787 208.814 181.232C209.528 180.667 210.499 180.384 211.726 180.384C212.963 180.384 213.95 180.683 214.686 181.28C215.422 181.867 215.816 182.736 215.87 183.888ZM222.508 180.576L227.052 192H225.852L224.476 188.416H219.26L217.868 192H216.7L221.308 180.576H222.508ZM224.14 187.536L221.9 181.6L219.596 187.536H224.14ZM229.466 185.424H228.826L228.714 180.944H229.578L229.466 185.424ZM240.479 183.888H239.423C239.38 183.045 239.076 182.405 238.511 181.968C237.956 181.52 237.204 181.296 236.255 181.296C235.359 181.296 234.66 181.483 234.159 181.856C233.658 182.229 233.407 182.757 233.407 183.44C233.407 183.685 233.434 183.904 233.487 184.096C233.551 184.277 233.658 184.437 233.807 184.576C233.967 184.715 234.111 184.832 234.239 184.928C234.378 185.013 234.596 185.104 234.895 185.2C235.194 185.285 235.434 185.355 235.615 185.408C235.796 185.451 236.084 185.515 236.479 185.6C236.906 185.696 237.252 185.776 237.519 185.84C237.786 185.904 238.09 185.989 238.431 186.096C238.772 186.203 239.044 186.309 239.247 186.416C239.46 186.523 239.679 186.656 239.903 186.816C240.127 186.976 240.298 187.152 240.415 187.344C240.532 187.536 240.628 187.765 240.703 188.032C240.788 188.288 240.831 188.576 240.831 188.896C240.831 189.675 240.612 190.325 240.175 190.848C239.748 191.371 239.226 191.733 238.607 191.936C237.988 192.139 237.3 192.24 236.543 192.24C235.124 192.24 234.01 191.893 233.199 191.2C232.399 190.507 231.999 189.552 231.999 188.336V188.24H233.039C233.039 189.275 233.354 190.053 233.983 190.576C234.623 191.099 235.503 191.36 236.623 191.36C237.604 191.36 238.378 191.152 238.943 190.736C239.508 190.32 239.791 189.744 239.791 189.008C239.791 188.293 239.519 187.787 238.975 187.488C238.442 187.179 237.428 186.848 235.935 186.496C235.455 186.389 235.098 186.304 234.863 186.24C234.639 186.176 234.335 186.064 233.951 185.904C233.567 185.744 233.279 185.573 233.087 185.392C232.906 185.2 232.74 184.944 232.591 184.624C232.442 184.304 232.367 183.931 232.367 183.504C232.367 182.544 232.719 181.787 233.423 181.232C234.138 180.667 235.108 180.384 236.335 180.384C237.572 180.384 238.559 180.683 239.295 181.28C240.031 181.867 240.426 182.736 240.479 183.888ZM254.562 191.072V192H247.074V180.608H248.162V191.072H254.562ZM256.82 180.608V192H255.732V180.608H256.82ZM268.335 180.608L263.199 185.264L268.591 192H267.199L262.431 186L260.255 187.984V192H259.183V180.608H260.255V186.736L266.895 180.608H268.335ZM277.478 180.608V181.536H270.662V185.648H277.046V186.56H270.662V191.072H277.542V192H269.574V180.608H277.478ZM296.823 180.608L293.671 192H292.503L290.183 183.984C289.885 182.928 289.693 182.144 289.607 181.632C289.522 181.909 289.41 182.309 289.271 182.832C289.143 183.355 289.047 183.728 288.983 183.952L286.711 192H285.527L282.375 180.608H283.511L285.639 188.512C285.778 189.035 285.954 189.819 286.167 190.864C286.285 190.203 286.477 189.419 286.743 188.512L288.999 180.608H290.231L292.535 188.624C292.823 189.616 293.005 190.363 293.079 190.864C293.122 190.693 293.197 190.352 293.303 189.84C293.421 189.317 293.517 188.917 293.591 188.64L295.735 180.608H296.823ZM302.539 180.576L307.083 192H305.883L304.507 188.416H299.291L297.899 192H296.731L301.339 180.576H302.539ZM304.171 187.536L301.931 181.6L299.627 187.536H304.171ZM315.945 180.608V181.536H311.945V192H310.857V181.536H306.857V180.608H315.945ZM324.9 180.608V181.536H318.084V185.648H324.468V186.56H318.084V191.072H324.964V192H316.996V180.608H324.9ZM326.48 180.608H331.632C332.709 180.608 333.568 180.864 334.208 181.376C334.859 181.877 335.184 182.645 335.184 183.68C335.184 184.416 334.987 185.029 334.592 185.52C334.208 186 333.664 186.325 332.96 186.496C333.653 186.624 334.144 186.891 334.432 187.296C334.731 187.691 334.907 188.283 334.96 189.072C334.96 189.093 334.965 189.237 334.976 189.504C334.987 189.771 334.997 190 335.008 190.192C335.029 190.384 335.056 190.613 335.088 190.88C335.131 191.147 335.184 191.376 335.248 191.568C335.323 191.76 335.408 191.904 335.504 192H334.272C334.176 191.883 334.107 191.675 334.064 191.376C334.021 191.077 333.989 190.693 333.968 190.224C333.947 189.755 333.936 189.504 333.936 189.472C333.861 188.437 333.611 187.755 333.184 187.424C332.757 187.083 332 186.912 330.912 186.912H327.568V192H326.48V180.608ZM327.568 181.536V186.048H330.784C331.253 186.048 331.659 186.021 332 185.968C332.341 185.915 332.683 185.813 333.024 185.664C333.376 185.515 333.643 185.28 333.824 184.96C334.016 184.629 334.112 184.224 334.112 183.744C334.112 182.272 333.168 181.536 331.28 181.536H327.568Z" fill="white"/>
</svg>
