<svg width="632" height="295" viewBox="0 0 632 295" fill="none" xmlns="http://www.w3.org/2000/svg">
<path d="M50.212 3.672V7.28H39.696V35H35.56V7.28H25.044V3.672H50.212ZM78.1176 3.672V35H73.9816V20.348H57.4376V35H53.3016V3.672H57.4376V16.74H73.9816V3.672H78.1176ZM106.308 3.672V7.28H88.7515V17.092H105.164V20.568H88.7515V31.392H106.528V35H84.6155V3.672H106.308ZM120.02 3.672H124.288L130.492 29.852L137.576 3.672H142.108L149.104 29.852L155.528 3.672H159.664L151.304 35H146.948L139.732 8.776L132.428 35H128.072L120.02 3.672ZM176.33 3.672L188.562 35H183.942L180.466 25.408H167.31L163.746 35H159.346L171.666 3.672H176.33ZM179.234 22.108L173.91 7.632L168.498 22.108H179.234ZM213.002 3.672V7.28H202.486V35H198.35V7.28H187.834V3.672H213.002ZM237.783 3.672V7.28H220.227V17.092H236.639V20.568H220.227V31.392H238.003V35H216.091V3.672H237.783ZM242.55 3.672H256.322C263.332 3.672 266.838 6.56133 266.838 12.34C266.838 14.1587 266.339 15.772 265.342 17.18C264.374 18.5587 263.083 19.4827 261.47 19.952C262.526 20.1867 263.376 20.524 264.022 20.964C264.667 21.404 265.136 22.02 265.43 22.812C265.723 23.604 265.914 24.308 266.002 24.924C266.09 25.54 266.163 26.4493 266.222 27.652C266.222 27.7693 266.236 28.0627 266.266 28.532C266.295 28.972 266.31 29.28 266.31 29.456C266.31 29.6027 266.324 29.8813 266.354 30.292C266.412 30.7027 266.456 31.0107 266.486 31.216C266.515 31.4213 266.559 31.7 266.618 32.052C266.676 32.404 266.75 32.6973 266.838 32.932C266.926 33.1373 267.028 33.3867 267.146 33.68C267.263 33.944 267.395 34.1933 267.542 34.428C267.688 34.6333 267.85 34.824 268.026 35H263.274C263.068 34.7067 262.892 34.34 262.746 33.9C262.628 33.46 262.54 32.9467 262.482 32.36C262.423 31.744 262.379 31.26 262.35 30.908C262.32 30.5267 262.291 29.984 262.262 29.28C262.232 28.576 262.218 28.18 262.218 28.092C262.071 25.4227 261.514 23.648 260.546 22.768C259.607 21.888 257.73 21.448 254.914 21.448H246.686V35H242.55V3.672ZM246.686 7.192V18.148H254.474C255.442 18.148 256.248 18.1187 256.894 18.06C257.568 18.0013 258.302 17.8693 259.094 17.664C259.886 17.4587 260.516 17.1653 260.986 16.784C261.484 16.4027 261.895 15.86 262.218 15.156C262.54 14.452 262.702 13.6013 262.702 12.604C262.702 10.492 262.056 9.06933 260.766 8.336C259.504 7.57333 257.774 7.192 255.574 7.192H246.686ZM288.349 3.672V35H284.213V3.672H288.349ZM317.16 12.868H313.156C312.716 8.61467 310.12 6.488 305.368 6.488C303.109 6.488 301.364 6.94267 300.132 7.852C298.9 8.76133 298.284 10.0373 298.284 11.68C298.284 12.2667 298.372 12.78 298.548 13.22C298.724 13.66 299.017 14.056 299.428 14.408C299.868 14.7307 300.278 15.0093 300.66 15.244C301.041 15.4787 301.642 15.7133 302.464 15.948C303.285 16.1827 303.945 16.3587 304.444 16.476C304.942 16.564 305.72 16.7253 306.776 16.96C308.066 17.224 309.137 17.4733 309.988 17.708C310.838 17.9133 311.85 18.2653 313.024 18.764C314.197 19.2627 315.121 19.82 315.796 20.436C316.5 21.0227 317.101 21.8147 317.6 22.812C318.128 23.8093 318.392 24.9387 318.392 26.2C318.392 28.4 317.776 30.248 316.544 31.744C315.312 33.2107 313.816 34.2373 312.056 34.824C310.296 35.4107 308.345 35.704 306.204 35.704C302.273 35.704 299.12 34.78 296.744 32.932C294.397 31.0547 293.224 28.2973 293.224 24.66H297.228C297.316 27.3293 298.21 29.28 299.912 30.512C301.613 31.7147 303.828 32.316 306.556 32.316C308.697 32.316 310.53 31.876 312.056 30.996C313.581 30.0867 314.344 28.62 314.344 26.596C314.344 25.6573 314.138 24.8653 313.728 24.22C313.317 23.5453 312.672 23.0027 311.792 22.592C310.912 22.152 310.032 21.8 309.152 21.536C308.272 21.272 307.113 20.9787 305.676 20.656C305.47 20.6267 305.324 20.5973 305.236 20.568C302.009 19.8347 299.897 19.248 298.9 18.808C295.849 17.488 294.324 15.2147 294.324 11.988C294.324 8.996 295.424 6.76667 297.624 5.3C299.853 3.804 302.537 3.056 305.676 3.056C309.108 3.056 311.85 3.87733 313.904 5.52C315.957 7.16267 317.042 9.612 317.16 12.868ZM335.057 3.672H347.949C351.146 3.672 353.684 4.40533 355.561 5.872C357.438 7.30933 358.377 9.58267 358.377 12.692C358.377 18.9987 354.813 22.152 347.685 22.152H339.193V35H335.057V3.672ZM339.193 7.236V18.676H347.157C349.386 18.676 351.117 18.2653 352.349 17.444C353.61 16.5933 354.241 15.0973 354.241 12.956C354.241 11.7533 354.036 10.756 353.625 9.964C353.244 9.172 352.672 8.58533 351.909 8.204C351.146 7.82267 350.354 7.57333 349.533 7.456C348.712 7.30933 347.729 7.236 346.585 7.236H339.193ZM384.664 3.672V7.28H367.108V17.092H383.52V20.568H367.108V31.392H384.884V35H362.972V3.672H384.664ZM389.431 3.672H403.203C410.213 3.672 413.719 6.56133 413.719 12.34C413.719 14.1587 413.22 15.772 412.223 17.18C411.255 18.5587 409.964 19.4827 408.351 19.952C409.407 20.1867 410.257 20.524 410.903 20.964C411.548 21.404 412.017 22.02 412.311 22.812C412.604 23.604 412.795 24.308 412.883 24.924C412.971 25.54 413.044 26.4493 413.103 27.652C413.103 27.7693 413.117 28.0627 413.147 28.532C413.176 28.972 413.191 29.28 413.191 29.456C413.191 29.6027 413.205 29.8813 413.235 30.292C413.293 30.7027 413.337 31.0107 413.367 31.216C413.396 31.4213 413.44 31.7 413.499 32.052C413.557 32.404 413.631 32.6973 413.719 32.932C413.807 33.1373 413.909 33.3867 414.027 33.68C414.144 33.944 414.276 34.1933 414.423 34.428C414.569 34.6333 414.731 34.824 414.907 35H410.155C409.949 34.7067 409.773 34.34 409.627 33.9C409.509 33.46 409.421 32.9467 409.363 32.36C409.304 31.744 409.26 31.26 409.231 30.908C409.201 30.5267 409.172 29.984 409.143 29.28C409.113 28.576 409.099 28.18 409.099 28.092C408.952 25.4227 408.395 23.648 407.427 22.768C406.488 21.888 404.611 21.448 401.795 21.448H393.567V35H389.431V3.672ZM393.567 7.192V18.148H401.355C402.323 18.148 403.129 18.1187 403.775 18.06C404.449 18.0013 405.183 17.8693 405.975 17.664C406.767 17.4587 407.397 17.1653 407.867 16.784C408.365 16.4027 408.776 15.86 409.099 15.156C409.421 14.452 409.583 13.6013 409.583 12.604C409.583 10.492 408.937 9.06933 407.647 8.336C406.385 7.57333 404.655 7.192 402.455 7.192H393.567ZM439.748 3.672V7.28H423.292V17.048H437.812V20.524H423.292V35H419.156V3.672H439.748ZM465.629 3.672V7.28H448.073V17.092H464.485V20.568H448.073V31.392H465.849V35H443.937V3.672H465.629ZM496.928 23.164C496.576 27.124 495.197 30.2187 492.792 32.448C490.416 34.648 487.277 35.748 483.376 35.748C478.917 35.748 475.382 34.2813 472.772 31.348C470.161 28.3853 468.856 24.396 468.856 19.38C468.856 14.6867 470.161 10.7853 472.772 7.676C475.412 4.53733 479.049 2.968 483.684 2.968C486.998 2.968 489.917 3.86266 492.44 5.652C494.962 7.44133 496.37 9.92 496.664 13.088H492.528C492.058 11.0347 491.032 9.436 489.448 8.292C487.864 7.11867 485.913 6.532 483.596 6.532C480.105 6.532 477.465 7.764 475.676 10.228C473.916 12.692 473.036 15.728 473.036 19.336C473.036 23.3253 473.974 26.464 475.852 28.752C477.729 31.04 480.296 32.184 483.552 32.184C486.221 32.184 488.348 31.4213 489.932 29.896C491.516 28.3413 492.469 26.0973 492.792 23.164H496.928ZM523.446 3.672V7.28H512.93V35H508.794V7.28H498.278V3.672H523.446ZM531.595 30.116V35H526.711V30.116H531.595Z" fill="white"/>
<path d="M68.492 59.672L61.848 91H59.912L66.556 59.672H68.492ZM94.5651 59.672L94.2131 61.3H83.3011L77.0531 91H75.1171L81.4091 61.3H70.1011L70.4531 59.672H94.5651ZM96.6135 71.772H95.3375L97.7135 59.672H99.3855L96.6135 71.772ZM125.218 68.692H123.414V68.252C123.414 63.2947 120.422 60.816 114.438 60.816C111.651 60.816 109.437 61.432 107.794 62.664C106.181 63.8667 105.374 65.4947 105.374 67.548C105.374 68.164 105.462 68.736 105.638 69.264C105.843 69.792 106.063 70.2467 106.298 70.628C106.562 71.0093 106.943 71.3907 107.442 71.772C107.97 72.124 108.41 72.4027 108.762 72.608C109.114 72.8133 109.642 73.048 110.346 73.312C111.05 73.5467 111.563 73.7227 111.886 73.84C112.209 73.928 112.751 74.0893 113.514 74.324C114.306 74.5293 114.805 74.6613 115.01 74.72C117.533 75.424 119.439 76.3333 120.73 77.448C122.05 78.5333 122.71 80.22 122.71 82.508C122.71 85.2653 121.625 87.48 119.454 89.152C117.313 90.7947 114.467 91.616 110.918 91.616C107.251 91.616 104.406 90.7507 102.382 89.02C100.358 87.2893 99.346 84.84 99.346 81.672C99.346 81.5547 99.346 81.3933 99.346 81.188C99.3753 80.9827 99.39 80.792 99.39 80.616H101.238V81.452C101.238 84.3853 102.103 86.556 103.834 87.964C105.565 89.3427 107.955 90.032 111.006 90.032C113.969 90.032 116.345 89.3573 118.134 88.008C119.953 86.6293 120.862 84.8107 120.862 82.552C120.862 80.8213 120.305 79.5307 119.19 78.68C118.075 77.8 116.521 77.0667 114.526 76.48C114.321 76.4213 113.793 76.2747 112.942 76.04C112.091 75.776 111.519 75.6 111.226 75.512C110.933 75.3947 110.39 75.204 109.598 74.94C108.835 74.676 108.293 74.4413 107.97 74.236C107.647 74.0307 107.193 73.7667 106.606 73.444C106.019 73.092 105.579 72.74 105.286 72.388C105.022 72.0067 104.729 71.5813 104.406 71.112C104.083 70.6427 103.849 70.1147 103.702 69.528C103.585 68.9413 103.526 68.3107 103.526 67.636C103.526 65.0547 104.509 63.0013 106.474 61.476C108.439 59.9507 111.094 59.188 114.438 59.188C117.958 59.188 120.642 59.936 122.49 61.432C124.338 62.8987 125.262 65.04 125.262 67.856C125.262 68.12 125.247 68.3987 125.218 68.692ZM166.499 80.088C165.619 83.608 163.844 86.4387 161.175 88.58C158.535 90.692 155.411 91.748 151.803 91.748C148.048 91.748 145.056 90.5747 142.827 88.228C140.627 85.8813 139.527 82.6987 139.527 78.68C139.527 75.2773 140.172 72.1093 141.463 69.176C142.754 66.2427 144.704 63.8227 147.315 61.916C149.955 60.0093 153.006 59.056 156.467 59.056C159.928 59.056 162.73 59.9947 164.871 61.872C167.012 63.7493 168.098 66.228 168.127 69.308H166.235C166.059 66.6093 165.12 64.512 163.419 63.016C161.718 61.4907 159.4 60.728 156.467 60.728C153.446 60.728 150.762 61.6227 148.415 63.412C146.098 65.172 144.367 67.3867 143.223 70.056C142.079 72.7253 141.507 75.5707 141.507 78.592C141.507 82.0827 142.431 84.8693 144.279 86.952C146.156 89.0347 148.679 90.076 151.847 90.076C154.898 90.076 157.552 89.1813 159.811 87.392C162.099 85.6027 163.683 83.168 164.563 80.088H166.499ZM198.095 59.672L191.495 91H189.559L192.859 75.468H173.279L169.935 91H168.043L174.687 59.672H176.623L173.631 73.84H193.211L196.203 59.672H198.095ZM215.211 59.672L221.019 91H219.039L217.235 80.88H202.187L196.027 91H193.827L213.187 59.672H215.211ZM213.891 61.432C213.568 61.96 213.084 62.796 212.439 63.94C211.823 65.084 211.339 65.92 210.987 66.448L203.111 79.296H216.971L214.639 66.316C214.228 64.1453 213.979 62.5173 213.891 61.432ZM254.165 59.672L247.521 91H245.409L233.001 65.436C232.708 64.8493 232.151 63.6027 231.329 61.696C231.124 63.1627 230.816 64.864 230.405 66.8L225.301 91H223.409L230.053 59.672H232.253L243.341 82.596C244.427 84.8253 245.395 86.952 246.245 88.976L252.317 59.672H254.165ZM283.715 75.688L280.547 91H279.139L279.799 87.128C279.945 86.248 280.165 85.1627 280.459 83.872C277.584 89.0933 273.375 91.704 267.831 91.704C263.812 91.704 260.703 90.516 258.503 88.14C256.303 85.764 255.203 82.5227 255.203 78.416C255.203 74.9547 255.877 71.772 257.227 68.868C258.576 65.9347 260.585 63.5587 263.255 61.74C265.953 59.9213 269.048 59.012 272.539 59.012C276.029 59.012 278.831 59.936 280.943 61.784C283.055 63.6027 284.169 66.0667 284.287 69.176H282.395C282.16 66.4187 281.177 64.3067 279.447 62.84C277.716 61.3733 275.369 60.64 272.407 60.64C269.297 60.64 266.555 61.5347 264.179 63.324C261.803 65.1133 260.028 67.3573 258.855 70.056C257.681 72.7253 257.095 75.5853 257.095 78.636C257.095 82.1853 258.063 84.9867 259.999 87.04C261.964 89.064 264.633 90.076 268.007 90.076C271.761 90.076 274.768 88.9173 277.027 86.6C279.285 84.2827 280.855 81.1733 281.735 77.272H270.207L270.559 75.688H283.715ZM312.456 59.672L312.104 61.344H293.536L290.896 73.928H308.232L307.88 75.556H290.544L287.64 89.328H306.78L306.428 91H285.352L291.996 59.672H312.456ZM327.533 59.672L333.341 91H331.361L329.557 80.88H314.509L308.349 91H306.149L325.509 59.672H327.533ZM326.213 61.432C325.89 61.96 325.406 62.796 324.761 63.94C324.145 65.084 323.661 65.92 323.309 66.448L315.433 79.296H329.293L326.961 66.316C326.55 64.1453 326.301 62.5173 326.213 61.432ZM342.42 59.672H352.364C353.537 59.672 354.534 59.7013 355.356 59.76C356.206 59.8187 357.13 59.9947 358.128 60.288C359.154 60.552 359.976 60.9333 360.592 61.432C361.237 61.9013 361.78 62.5907 362.22 63.5C362.66 64.38 362.88 65.4507 362.88 66.712C362.88 68.8533 362.205 70.6427 360.856 72.08C359.536 73.5173 357.717 74.3973 355.4 74.72C357.218 75.0427 358.641 75.7613 359.668 76.876C360.724 77.9613 361.252 79.4427 361.252 81.32C361.252 84.0773 360.284 86.38 358.348 88.228C357.438 89.0787 356.353 89.724 355.092 90.164C353.86 90.604 352.804 90.8533 351.924 90.912C351.073 90.9707 349.812 91 348.14 91H335.82L342.42 59.672ZM343.96 61.344L341.276 74.016H350.912C357.629 74.016 360.988 71.6107 360.988 66.8C360.988 65.8027 360.812 64.952 360.46 64.248C360.108 63.544 359.682 63.016 359.184 62.664C358.714 62.2827 358.054 61.9893 357.204 61.784C356.382 61.5787 355.634 61.4613 354.96 61.432C354.314 61.3733 353.493 61.344 352.496 61.344H343.96ZM340.924 75.556L338.02 89.416H347.48C350.325 89.416 352.466 89.2253 353.904 88.844C355.517 88.4333 356.822 87.5387 357.82 86.16C358.846 84.752 359.36 83.1533 359.36 81.364C359.36 80.3373 359.184 79.4573 358.832 78.724C358.48 77.9907 358.04 77.4333 357.512 77.052C356.984 76.6413 356.294 76.3187 355.444 76.084C354.593 75.8493 353.801 75.7027 353.068 75.644C352.364 75.5853 351.528 75.556 350.56 75.556H340.924ZM371.674 59.672L365.382 89.328H383.026L382.674 91H363.094L369.738 59.672H371.674ZM411.758 59.672L411.406 61.344H392.838L390.198 73.928H407.534L407.182 75.556H389.846L386.942 89.328H406.082L405.73 91H384.654L391.298 59.672H411.758ZM414.604 86.512L413.68 90.912C413.328 92.5253 412.858 93.772 412.272 94.652C411.685 95.532 410.702 96.192 409.324 96.632L409.632 95.18C410.218 94.9747 410.688 94.6227 411.04 94.124C411.421 93.6253 411.67 93.1707 411.788 92.76C411.934 92.3493 412.096 91.7627 412.272 91H411.48L412.448 86.512H414.604ZM450.448 59.672L456.256 91H454.276L452.472 80.88H437.424L431.264 91H429.064L448.424 59.672H450.448ZM449.128 61.432C448.805 61.96 448.321 62.796 447.676 63.94C447.06 65.084 446.576 65.92 446.224 66.448L438.348 79.296H452.208L449.876 66.316C449.465 64.1453 449.216 62.5173 449.128 61.432ZM465.378 59.672H473.958C477.948 59.672 480.822 60.2733 482.582 61.476C485.633 63.5 487.158 67.0053 487.158 71.992C487.158 75.1013 486.542 78.0493 485.31 80.836C484.108 83.5933 482.421 85.852 480.25 87.612C478.49 89.0493 476.701 89.9733 474.882 90.384C473.093 90.7947 470.805 91 468.018 91H458.822L465.378 59.672ZM466.918 61.344L461.066 89.328H470.878C473.87 89.328 476.481 88.4627 478.71 86.732C480.969 85.0013 482.626 82.8453 483.682 80.264C484.768 77.6533 485.31 74.8667 485.31 71.904C485.31 68.208 484.416 65.524 482.626 63.852C480.866 62.18 478.109 61.344 474.354 61.344H466.918ZM506.587 59.672L512.395 91H510.415L508.611 80.88H493.563L487.403 91H485.203L504.563 59.672H506.587ZM505.267 61.432C504.945 61.96 504.461 62.796 503.815 63.94C503.199 65.084 502.715 65.92 502.363 66.448L494.487 79.296H508.347L506.015 66.316C505.605 64.1453 505.355 62.5173 505.267 61.432ZM521.43 59.672H531.99C533.456 59.672 534.718 59.7747 535.774 59.98C536.859 60.1853 537.886 60.552 538.854 61.08C539.851 61.608 540.599 62.4 541.098 63.456C541.626 64.512 541.89 65.8173 541.89 67.372C541.89 69.2493 541.42 70.9653 540.482 72.52C539.543 74.0453 538.296 75.1893 536.742 75.952C535.187 76.6853 532.62 77.052 529.042 77.052H519.67L516.722 91H514.786L521.43 59.672ZM523.014 61.344L520.022 75.424H528.954C532.65 75.424 535.231 74.9547 536.698 74.016C537.695 73.3707 538.487 72.4613 539.074 71.288C539.69 70.0853 539.998 68.8093 539.998 67.46C539.998 65.0547 539.25 63.4413 537.754 62.62C536.287 61.7693 534.204 61.344 531.506 61.344H523.014ZM567.488 59.672L567.136 61.3H556.224L549.976 91H548.04L554.332 61.3H543.024L543.376 59.672H567.488ZM571.472 59.672L564.828 91H562.892L569.536 59.672H571.472ZM599.481 59.672L581.177 91H578.845L573.609 59.672H575.589L579.373 83.036C579.52 83.828 579.696 84.972 579.901 86.468C580.107 87.964 580.239 88.9173 580.297 89.328C581.031 87.92 582.145 85.9107 583.641 83.3L597.369 59.672H599.481ZM622.503 59.672L622.151 61.344H603.583L600.943 73.928H618.279L617.927 75.556H600.591L597.687 89.328H616.827L616.475 91H595.399L602.043 59.672H622.503ZM625.348 86.512L624.424 90.912C624.072 92.5253 623.603 93.772 623.016 94.652C622.429 95.532 621.447 96.192 620.068 96.632L620.376 95.18C620.963 94.9747 621.432 94.6227 621.784 94.124C622.165 93.6253 622.415 93.1707 622.532 92.76C622.679 92.3493 622.84 91.7627 623.016 91H622.224L623.192 86.512H625.348Z" fill="white"/>
<path d="M67.084 174.672L72.892 206H70.912L69.108 195.88H54.06L47.9 206H45.7L65.06 174.672H67.084ZM65.764 176.432C65.4413 176.96 64.9573 177.796 64.312 178.94C63.696 180.084 63.212 180.92 62.86 181.448L54.984 194.296H68.844L66.512 181.316C66.1013 179.145 65.852 177.517 65.764 176.432ZM106.038 174.672L99.3944 206H97.2824L84.8744 180.436C84.5811 179.849 84.0238 178.603 83.2024 176.696C82.9971 178.163 82.6891 179.864 82.2784 181.8L77.1744 206H75.2824L81.9264 174.672H84.1264L95.2144 197.596C96.2998 199.825 97.2678 201.952 98.1184 203.976L104.19 174.672H106.038ZM111.696 174.672H120.276C124.265 174.672 127.14 175.273 128.9 176.476C131.95 178.5 133.476 182.005 133.476 186.992C133.476 190.101 132.86 193.049 131.628 195.836C130.425 198.593 128.738 200.852 126.568 202.612C124.808 204.049 123.018 204.973 121.2 205.384C119.41 205.795 117.122 206 114.336 206H105.14L111.696 174.672ZM113.236 176.344L107.384 204.328H117.196C120.188 204.328 122.798 203.463 125.028 201.732C127.286 200.001 128.944 197.845 130 195.264C131.085 192.653 131.628 189.867 131.628 186.904C131.628 183.208 130.733 180.524 128.944 178.852C127.184 177.18 124.426 176.344 120.672 176.344H113.236ZM153.183 174.672H161.763C165.752 174.672 168.627 175.273 170.387 176.476C173.437 178.5 174.963 182.005 174.963 186.992C174.963 190.101 174.347 193.049 173.115 195.836C171.912 198.593 170.225 200.852 168.055 202.612C166.295 204.049 164.505 204.973 162.687 205.384C160.897 205.795 158.609 206 155.823 206H146.627L153.183 174.672ZM154.723 176.344L148.871 204.328H158.683C161.675 204.328 164.285 203.463 166.515 201.732C168.773 200.001 170.431 197.845 171.487 195.264C172.572 192.653 173.115 189.867 173.115 186.904C173.115 183.208 172.22 180.524 170.431 178.852C168.671 177.18 165.913 176.344 162.159 176.344H154.723ZM203.324 174.672L202.972 176.344H184.404L181.764 188.928H199.1L198.748 190.556H181.412L178.508 204.328H197.648L197.296 206H176.22L182.864 174.672H203.324ZM226.937 183.692H225.133V183.252C225.133 178.295 222.141 175.816 216.157 175.816C213.37 175.816 211.156 176.432 209.513 177.664C207.9 178.867 207.093 180.495 207.093 182.548C207.093 183.164 207.181 183.736 207.357 184.264C207.562 184.792 207.782 185.247 208.017 185.628C208.281 186.009 208.662 186.391 209.161 186.772C209.689 187.124 210.129 187.403 210.481 187.608C210.833 187.813 211.361 188.048 212.065 188.312C212.769 188.547 213.282 188.723 213.605 188.84C213.928 188.928 214.47 189.089 215.233 189.324C216.025 189.529 216.524 189.661 216.729 189.72C219.252 190.424 221.158 191.333 222.449 192.448C223.769 193.533 224.429 195.22 224.429 197.508C224.429 200.265 223.344 202.48 221.173 204.152C219.032 205.795 216.186 206.616 212.637 206.616C208.97 206.616 206.125 205.751 204.101 204.02C202.077 202.289 201.065 199.84 201.065 196.672C201.065 196.555 201.065 196.393 201.065 196.188C201.094 195.983 201.109 195.792 201.109 195.616H202.957V196.452C202.957 199.385 203.822 201.556 205.553 202.964C207.284 204.343 209.674 205.032 212.725 205.032C215.688 205.032 218.064 204.357 219.853 203.008C221.672 201.629 222.581 199.811 222.581 197.552C222.581 195.821 222.024 194.531 220.909 193.68C219.794 192.8 218.24 192.067 216.245 191.48C216.04 191.421 215.512 191.275 214.661 191.04C213.81 190.776 213.238 190.6 212.945 190.512C212.652 190.395 212.109 190.204 211.317 189.94C210.554 189.676 210.012 189.441 209.689 189.236C209.366 189.031 208.912 188.767 208.325 188.444C207.738 188.092 207.298 187.74 207.005 187.388C206.741 187.007 206.448 186.581 206.125 186.112C205.802 185.643 205.568 185.115 205.421 184.528C205.304 183.941 205.245 183.311 205.245 182.636C205.245 180.055 206.228 178.001 208.193 176.476C210.158 174.951 212.813 174.188 216.157 174.188C219.677 174.188 222.361 174.936 224.209 176.432C226.057 177.899 226.981 180.04 226.981 182.856C226.981 183.12 226.966 183.399 226.937 183.692ZM254.476 174.672L254.124 176.3H243.212L236.964 206H235.028L241.32 176.3H230.012L230.364 174.672H254.476ZM256.568 174.672H267.216C268.654 174.672 269.915 174.775 271 174.98C272.115 175.185 273.171 175.552 274.168 176.08C275.195 176.579 275.972 177.356 276.5 178.412C277.058 179.439 277.336 180.729 277.336 182.284C277.336 184.777 276.53 186.845 274.916 188.488C273.303 190.101 271.176 190.981 268.536 191.128C270.267 191.421 271.455 192.081 272.1 193.108C272.775 194.105 273.112 195.513 273.112 197.332C273.112 197.948 273.068 198.857 272.98 200.06C272.922 201.263 272.892 202.172 272.892 202.788C272.892 204.02 273.039 205.091 273.332 206H271.352C271.118 205.091 271 204.049 271 202.876C271 202.201 271.03 201.175 271.088 199.796C271.176 198.417 271.22 197.552 271.22 197.2C271.22 195.968 271.044 194.971 270.692 194.208C270.37 193.445 269.812 192.903 269.02 192.58C268.258 192.228 267.48 192.008 266.688 191.92C265.926 191.803 264.884 191.744 263.564 191.744H254.896L251.86 206H249.924L256.568 174.672ZM258.108 176.388L255.204 190.116H264.488C266.659 190.116 268.346 189.984 269.548 189.72C270.78 189.456 271.822 188.987 272.672 188.312C273.523 187.667 274.198 186.816 274.696 185.76C275.195 184.704 275.444 183.604 275.444 182.46C275.444 181.433 275.283 180.553 274.96 179.82C274.667 179.087 274.256 178.5 273.728 178.06C273.23 177.62 272.599 177.283 271.836 177.048C271.074 176.784 270.311 176.608 269.548 176.52C268.786 176.432 267.906 176.388 266.908 176.388H258.108ZM308.527 186.772C308.527 189.324 308.16 191.788 307.427 194.164C306.694 196.511 305.638 198.637 304.259 200.544C302.88 202.421 301.106 203.932 298.935 205.076C296.764 206.191 294.359 206.748 291.719 206.748C287.818 206.748 284.723 205.56 282.435 203.184C280.147 200.779 279.003 197.537 279.003 193.46C279.003 189.999 279.634 186.816 280.895 183.912C282.186 180.979 284.136 178.588 286.747 176.74C289.358 174.863 292.408 173.924 295.899 173.924C299.742 173.924 302.807 175.097 305.095 177.444C307.383 179.761 308.527 182.871 308.527 186.772ZM295.679 175.596C293.332 175.596 291.191 176.109 289.255 177.136C287.348 178.163 285.794 179.527 284.591 181.228C283.418 182.929 282.508 184.836 281.863 186.948C281.218 189.06 280.895 191.231 280.895 193.46C280.895 197.009 281.878 199.84 283.843 201.952C285.838 204.064 288.492 205.12 291.807 205.12C293.655 205.12 295.386 204.768 296.999 204.064C298.612 203.36 299.991 202.421 301.135 201.248C302.308 200.045 303.306 198.667 304.127 197.112C304.978 195.557 305.608 193.929 306.019 192.228C306.43 190.497 306.635 188.781 306.635 187.08C306.635 183.589 305.667 180.803 303.731 178.72C301.795 176.637 299.111 175.596 295.679 175.596ZM338.06 174.672L322.176 193.152L319.448 206H317.556L320.328 192.844L311.88 174.672H313.948L319.624 187.08C320.71 189.485 321.34 190.923 321.516 191.392C322.543 190.101 323.628 188.796 324.772 187.476L335.772 174.672H338.06ZM360.046 183.692H358.242V183.252C358.242 178.295 355.25 175.816 349.266 175.816C346.479 175.816 344.264 176.432 342.622 177.664C341.008 178.867 340.202 180.495 340.202 182.548C340.202 183.164 340.29 183.736 340.466 184.264C340.671 184.792 340.891 185.247 341.126 185.628C341.39 186.009 341.771 186.391 342.27 186.772C342.798 187.124 343.238 187.403 343.59 187.608C343.942 187.813 344.47 188.048 345.174 188.312C345.878 188.547 346.391 188.723 346.714 188.84C347.036 188.928 347.579 189.089 348.342 189.324C349.134 189.529 349.632 189.661 349.838 189.72C352.36 190.424 354.267 191.333 355.558 192.448C356.878 193.533 357.538 195.22 357.538 197.508C357.538 200.265 356.452 202.48 354.282 204.152C352.14 205.795 349.295 206.616 345.746 206.616C342.079 206.616 339.234 205.751 337.21 204.02C335.186 202.289 334.174 199.84 334.174 196.672C334.174 196.555 334.174 196.393 334.174 196.188C334.203 195.983 334.218 195.792 334.218 195.616H336.066V196.452C336.066 199.385 336.931 201.556 338.662 202.964C340.392 204.343 342.783 205.032 345.834 205.032C348.796 205.032 351.172 204.357 352.962 203.008C354.78 201.629 355.69 199.811 355.69 197.552C355.69 195.821 355.132 194.531 354.018 193.68C352.903 192.8 351.348 192.067 349.354 191.48C349.148 191.421 348.62 191.275 347.77 191.04C346.919 190.776 346.347 190.6 346.054 190.512C345.76 190.395 345.218 190.204 344.426 189.94C343.663 189.676 343.12 189.441 342.798 189.236C342.475 189.031 342.02 188.767 341.434 188.444C340.847 188.092 340.407 187.74 340.114 187.388C339.85 187.007 339.556 186.581 339.234 186.112C338.911 185.643 338.676 185.115 338.53 184.528C338.412 183.941 338.354 183.311 338.354 182.636C338.354 180.055 339.336 178.001 341.302 176.476C343.267 174.951 345.922 174.188 349.266 174.188C352.786 174.188 355.47 174.936 357.318 176.432C359.166 177.899 360.09 180.04 360.09 182.856C360.09 183.12 360.075 183.399 360.046 183.692ZM403.791 186.772C403.791 189.324 403.424 191.788 402.691 194.164C401.957 196.511 400.901 198.637 399.523 200.544C398.144 202.421 396.369 203.932 394.199 205.076C392.028 206.191 389.623 206.748 386.983 206.748C383.081 206.748 379.987 205.56 377.699 203.184C375.411 200.779 374.267 197.537 374.267 193.46C374.267 189.999 374.897 186.816 376.159 183.912C377.449 180.979 379.4 178.588 382.011 176.74C384.621 174.863 387.672 173.924 391.163 173.924C395.005 173.924 398.071 175.097 400.359 177.444C402.647 179.761 403.791 182.871 403.791 186.772ZM390.943 175.596C388.596 175.596 386.455 176.109 384.519 177.136C382.612 178.163 381.057 179.527 379.855 181.228C378.681 182.929 377.772 184.836 377.127 186.948C376.481 189.06 376.159 191.231 376.159 193.46C376.159 197.009 377.141 199.84 379.107 201.952C381.101 204.064 383.756 205.12 387.071 205.12C388.919 205.12 390.649 204.768 392.263 204.064C393.876 203.36 395.255 202.421 396.399 201.248C397.572 200.045 398.569 198.667 399.391 197.112C400.241 195.557 400.872 193.929 401.283 192.228C401.693 190.497 401.899 188.781 401.899 187.08C401.899 183.589 400.931 180.803 398.995 178.72C397.059 176.637 394.375 175.596 390.943 175.596ZM413.172 174.672L406.88 204.328H424.524L424.172 206H404.592L411.236 174.672H413.172ZM432.796 174.672H441.376C445.365 174.672 448.24 175.273 450 176.476C453.051 178.5 454.576 182.005 454.576 186.992C454.576 190.101 453.96 193.049 452.728 195.836C451.525 198.593 449.839 200.852 447.668 202.612C445.908 204.049 444.119 204.973 442.3 205.384C440.511 205.795 438.223 206 435.436 206H426.24L432.796 174.672ZM434.336 176.344L428.484 204.328H438.296C441.288 204.328 443.899 203.463 446.128 201.732C448.387 200.001 450.044 197.845 451.1 195.264C452.185 192.653 452.728 189.867 452.728 186.904C452.728 183.208 451.833 180.524 450.044 178.852C448.284 177.18 445.527 176.344 441.772 176.344H434.336ZM499.011 186.772C499.011 189.324 498.644 191.788 497.911 194.164C497.178 196.511 496.122 198.637 494.743 200.544C493.364 202.421 491.59 203.932 489.419 205.076C487.248 206.191 484.843 206.748 482.203 206.748C478.302 206.748 475.207 205.56 472.919 203.184C470.631 200.779 469.487 197.537 469.487 193.46C469.487 189.999 470.118 186.816 471.379 183.912C472.67 180.979 474.62 178.588 477.231 176.74C479.842 174.863 482.892 173.924 486.383 173.924C490.226 173.924 493.291 175.097 495.579 177.444C497.867 179.761 499.011 182.871 499.011 186.772ZM486.163 175.596C483.816 175.596 481.675 176.109 479.739 177.136C477.832 178.163 476.278 179.527 475.075 181.228C473.902 182.929 472.992 184.836 472.347 186.948C471.702 189.06 471.379 191.231 471.379 193.46C471.379 197.009 472.362 199.84 474.327 201.952C476.322 204.064 478.976 205.12 482.291 205.12C484.139 205.12 485.87 204.768 487.483 204.064C489.096 203.36 490.475 202.421 491.619 201.248C492.792 200.045 493.79 198.667 494.611 197.112C495.462 195.557 496.092 193.929 496.503 192.228C496.914 190.497 497.119 188.781 497.119 187.08C497.119 183.589 496.151 180.803 494.215 178.72C492.279 176.637 489.595 175.596 486.163 175.596ZM530.48 174.672L523.836 206H521.724L509.316 180.436C509.023 179.849 508.466 178.603 507.644 176.696C507.439 178.163 507.131 179.864 506.72 181.8L501.616 206H499.724L506.368 174.672H508.568L519.656 197.596C520.742 199.825 521.71 201.952 522.56 203.976L528.632 174.672H530.48ZM556.597 174.672L556.245 176.344H537.677L535.037 188.928H552.373L552.021 190.556H534.685L531.781 204.328H550.921L550.569 206H529.493L536.137 174.672H556.597ZM580.211 183.692H578.407V183.252C578.407 178.295 575.415 175.816 569.431 175.816C566.644 175.816 564.429 176.432 562.787 177.664C561.173 178.867 560.367 180.495 560.367 182.548C560.367 183.164 560.455 183.736 560.631 184.264C560.836 184.792 561.056 185.247 561.291 185.628C561.555 186.009 561.936 186.391 562.435 186.772C562.963 187.124 563.403 187.403 563.755 187.608C564.107 187.813 564.635 188.048 565.339 188.312C566.043 188.547 566.556 188.723 566.879 188.84C567.201 188.928 567.744 189.089 568.507 189.324C569.299 189.529 569.797 189.661 570.003 189.72C572.525 190.424 574.432 191.333 575.723 192.448C577.043 193.533 577.703 195.22 577.703 197.508C577.703 200.265 576.617 202.48 574.447 204.152C572.305 205.795 569.46 206.616 565.911 206.616C562.244 206.616 559.399 205.751 557.375 204.02C555.351 202.289 554.339 199.84 554.339 196.672C554.339 196.555 554.339 196.393 554.339 196.188C554.368 195.983 554.383 195.792 554.383 195.616H556.231V196.452C556.231 199.385 557.096 201.556 558.827 202.964C560.557 204.343 562.948 205.032 565.999 205.032C568.961 205.032 571.337 204.357 573.127 203.008C574.945 201.629 575.855 199.811 575.855 197.552C575.855 195.821 575.297 194.531 574.183 193.68C573.068 192.8 571.513 192.067 569.519 191.48C569.313 191.421 568.785 191.275 567.935 191.04C567.084 190.776 566.512 190.6 566.219 190.512C565.925 190.395 565.383 190.204 564.591 189.94C563.828 189.676 563.285 189.441 562.963 189.236C562.64 189.031 562.185 188.767 561.599 188.444C561.012 188.092 560.572 187.74 560.279 187.388C560.015 187.007 559.721 186.581 559.399 186.112C559.076 185.643 558.841 185.115 558.695 184.528C558.577 183.941 558.519 183.311 558.519 182.636C558.519 180.055 559.501 178.001 561.467 176.476C563.432 174.951 566.087 174.188 569.431 174.188C572.951 174.188 575.635 174.936 577.483 176.432C579.331 177.899 580.255 180.04 580.255 182.856C580.255 183.12 580.24 183.399 580.211 183.692ZM586.145 201.512L585.177 206H582.977L583.945 201.512H586.145Z" fill="white"/>
<path d="M30.008 138.164C29.656 142.124 28.2773 145.219 25.872 147.448C23.496 149.648 20.3573 150.748 16.456 150.748C11.9973 150.748 8.46267 149.281 5.852 146.348C3.24133 143.385 1.936 139.396 1.936 134.38C1.936 129.687 3.24133 125.785 5.852 122.676C8.492 119.537 12.1293 117.968 16.764 117.968C20.0787 117.968 22.9973 118.863 25.52 120.652C28.0427 122.441 29.4507 124.92 29.744 128.088H25.608C25.1387 126.035 24.112 124.436 22.528 123.292C20.944 122.119 18.9933 121.532 16.676 121.532C13.1853 121.532 10.5453 122.764 8.756 125.228C6.996 127.692 6.116 130.728 6.116 134.336C6.116 138.325 7.05467 141.464 8.932 143.752C10.8093 146.04 13.376 147.184 16.632 147.184C19.3013 147.184 21.428 146.421 23.012 144.896C24.596 143.341 25.5493 141.097 25.872 138.164H30.008ZM34.7899 118.672H48.5619C55.5726 118.672 59.0779 121.561 59.0779 127.34C59.0779 129.159 58.5792 130.772 57.5819 132.18C56.6139 133.559 55.3232 134.483 53.7099 134.952C54.7659 135.187 55.6166 135.524 56.2619 135.964C56.9072 136.404 57.3766 137.02 57.6699 137.812C57.9632 138.604 58.1539 139.308 58.2419 139.924C58.3299 140.54 58.4032 141.449 58.4619 142.652C58.4619 142.769 58.4766 143.063 58.5059 143.532C58.5352 143.972 58.5499 144.28 58.5499 144.456C58.5499 144.603 58.5646 144.881 58.5939 145.292C58.6526 145.703 58.6966 146.011 58.7259 146.216C58.7552 146.421 58.7992 146.7 58.8579 147.052C58.9166 147.404 58.9899 147.697 59.0779 147.932C59.1659 148.137 59.2686 148.387 59.3859 148.68C59.5032 148.944 59.6352 149.193 59.7819 149.428C59.9286 149.633 60.0899 149.824 60.2659 150H55.5139C55.3086 149.707 55.1326 149.34 54.9859 148.9C54.8686 148.46 54.7806 147.947 54.7219 147.36C54.6632 146.744 54.6192 146.26 54.5899 145.908C54.5606 145.527 54.5312 144.984 54.5019 144.28C54.4726 143.576 54.4579 143.18 54.4579 143.092C54.3112 140.423 53.7539 138.648 52.7859 137.768C51.8472 136.888 49.9699 136.448 47.1539 136.448H38.9259V150H34.7899V118.672ZM38.9259 122.192V133.148H46.7139C47.6819 133.148 48.4886 133.119 49.1339 133.06C49.8086 133.001 50.5419 132.869 51.3339 132.664C52.1259 132.459 52.7566 132.165 53.2259 131.784C53.7246 131.403 54.1352 130.86 54.4579 130.156C54.7806 129.452 54.9419 128.601 54.9419 127.604C54.9419 125.492 54.2966 124.069 53.0059 123.336C51.7446 122.573 50.0139 122.192 47.8139 122.192H38.9259ZM86.163 118.672V122.28H68.607V132.092H85.019V135.568H68.607V146.392H86.383V150H64.471V118.672H86.163ZM104.085 118.672L116.317 150H111.697L108.221 140.408H95.0654L91.5014 150H87.1014L99.4214 118.672H104.085ZM106.989 137.108L101.665 122.632L96.2534 137.108H106.989ZM140.757 118.672V122.28H130.241V150H126.105V122.28H115.589V118.672H140.757ZM165.538 118.672V122.28H147.982V132.092H164.394V135.568H147.982V146.392H165.758V150H143.846V118.672H165.538ZM192.481 127.868H188.477C188.037 123.615 185.441 121.488 180.689 121.488C178.43 121.488 176.685 121.943 175.453 122.852C174.221 123.761 173.605 125.037 173.605 126.68C173.605 127.267 173.693 127.78 173.869 128.22C174.045 128.66 174.338 129.056 174.749 129.408C175.189 129.731 175.599 130.009 175.981 130.244C176.362 130.479 176.963 130.713 177.785 130.948C178.606 131.183 179.266 131.359 179.765 131.476C180.263 131.564 181.041 131.725 182.097 131.96C183.387 132.224 184.458 132.473 185.309 132.708C186.159 132.913 187.171 133.265 188.345 133.764C189.518 134.263 190.442 134.82 191.117 135.436C191.821 136.023 192.422 136.815 192.921 137.812C193.449 138.809 193.713 139.939 193.713 141.2C193.713 143.4 193.097 145.248 191.865 146.744C190.633 148.211 189.137 149.237 187.377 149.824C185.617 150.411 183.666 150.704 181.525 150.704C177.594 150.704 174.441 149.78 172.065 147.932C169.718 146.055 168.545 143.297 168.545 139.66H172.549C172.637 142.329 173.531 144.28 175.233 145.512C176.934 146.715 179.149 147.316 181.877 147.316C184.018 147.316 185.851 146.876 187.377 145.996C188.902 145.087 189.665 143.62 189.665 141.596C189.665 140.657 189.459 139.865 189.049 139.22C188.638 138.545 187.993 138.003 187.113 137.592C186.233 137.152 185.353 136.8 184.473 136.536C183.593 136.272 182.434 135.979 180.997 135.656C180.791 135.627 180.645 135.597 180.557 135.568C177.33 134.835 175.218 134.248 174.221 133.808C171.17 132.488 169.645 130.215 169.645 126.988C169.645 123.996 170.745 121.767 172.945 120.3C175.174 118.804 177.858 118.056 180.997 118.056C184.429 118.056 187.171 118.877 189.225 120.52C191.278 122.163 192.363 124.612 192.481 127.868ZM210.026 118.672H214.558L231.102 144.104V118.672H235.106V150H230.442L213.986 124.876V150H210.026V118.672ZM263.208 118.672V122.28H245.652V132.092H262.064V135.568H245.652V146.392H263.428V150H241.516V118.672H263.208ZM265.114 118.672H269.382L275.586 144.852L282.67 118.672H287.202L294.198 144.852L300.622 118.672H304.758L296.398 150H292.042L284.826 123.776L277.522 150H273.166L265.114 118.672ZM340.711 118.672V122.28H324.255V132.048H338.775V135.524H324.255V150H320.119V118.672H340.711ZM358.101 117.924C362.853 117.924 366.549 119.42 369.189 122.412C371.829 125.375 373.149 129.261 373.149 134.072C373.149 138.912 371.843 142.901 369.233 146.04C366.622 149.179 362.926 150.748 358.145 150.748C355.71 150.748 353.525 150.308 351.589 149.428C349.653 148.548 348.069 147.331 346.837 145.776C345.634 144.221 344.71 142.447 344.065 140.452C343.449 138.457 343.141 136.301 343.141 133.984C343.141 129.085 344.49 125.184 347.189 122.28C349.917 119.376 353.554 117.924 358.101 117.924ZM358.101 121.532C354.61 121.532 351.926 122.764 350.049 125.228C348.201 127.663 347.277 130.684 347.277 134.292C347.277 138.223 348.259 141.361 350.225 143.708C352.219 146.025 354.874 147.184 358.189 147.184C361.474 147.184 364.099 146.011 366.065 143.664C368.03 141.317 369.013 138.193 369.013 134.292C369.013 130.42 368.015 127.325 366.021 125.008C364.055 122.691 361.415 121.532 358.101 121.532ZM377.89 118.672H391.662C398.673 118.672 402.178 121.561 402.178 127.34C402.178 129.159 401.68 130.772 400.682 132.18C399.714 133.559 398.424 134.483 396.81 134.952C397.866 135.187 398.717 135.524 399.362 135.964C400.008 136.404 400.477 137.02 400.77 137.812C401.064 138.604 401.254 139.308 401.342 139.924C401.43 140.54 401.504 141.449 401.562 142.652C401.562 142.769 401.577 143.063 401.606 143.532C401.636 143.972 401.65 144.28 401.65 144.456C401.65 144.603 401.665 144.881 401.694 145.292C401.753 145.703 401.797 146.011 401.826 146.216C401.856 146.421 401.9 146.7 401.958 147.052C402.017 147.404 402.09 147.697 402.178 147.932C402.266 148.137 402.369 148.387 402.486 148.68C402.604 148.944 402.736 149.193 402.882 149.428C403.029 149.633 403.19 149.824 403.366 150H398.614C398.409 149.707 398.233 149.34 398.086 148.9C397.969 148.46 397.881 147.947 397.822 147.36C397.764 146.744 397.72 146.26 397.69 145.908C397.661 145.527 397.632 144.984 397.602 144.28C397.573 143.576 397.558 143.18 397.558 143.092C397.412 140.423 396.854 138.648 395.886 137.768C394.948 136.888 393.07 136.448 390.254 136.448H382.026V150H377.89V118.672ZM382.026 122.192V133.148H389.814C390.782 133.148 391.589 133.119 392.234 133.06C392.909 133.001 393.642 132.869 394.434 132.664C395.226 132.459 395.857 132.165 396.326 131.784C396.825 131.403 397.236 130.86 397.558 130.156C397.881 129.452 398.042 128.601 398.042 127.604C398.042 125.492 397.397 124.069 396.106 123.336C394.845 122.573 393.114 122.192 390.914 122.192H382.026ZM407.615 118.672H413.335L423.411 145.204L433.135 118.672H438.899V150H434.983V123.864L425.171 150H421.563L411.575 123.864V150H407.615V118.672ZM467.635 127.868H463.631C463.191 123.615 460.595 121.488 455.843 121.488C453.585 121.488 451.839 121.943 450.607 122.852C449.375 123.761 448.759 125.037 448.759 126.68C448.759 127.267 448.847 127.78 449.023 128.22C449.199 128.66 449.493 129.056 449.903 129.408C450.343 129.731 450.754 130.009 451.135 130.244C451.517 130.479 452.118 130.713 452.939 130.948C453.761 131.183 454.421 131.359 454.919 131.476C455.418 131.564 456.195 131.725 457.251 131.96C458.542 132.224 459.613 132.473 460.463 132.708C461.314 132.913 462.326 133.265 463.499 133.764C464.673 134.263 465.597 134.82 466.271 135.436C466.975 136.023 467.577 136.815 468.075 137.812C468.603 138.809 468.867 139.939 468.867 141.2C468.867 143.4 468.251 145.248 467.019 146.744C465.787 148.211 464.291 149.237 462.531 149.824C460.771 150.411 458.821 150.704 456.679 150.704C452.749 150.704 449.595 149.78 447.219 147.932C444.873 146.055 443.699 143.297 443.699 139.66H447.703C447.791 142.329 448.686 144.28 450.387 145.512C452.089 146.715 454.303 147.316 457.031 147.316C459.173 147.316 461.006 146.876 462.531 145.996C464.057 145.087 464.819 143.62 464.819 141.596C464.819 140.657 464.614 139.865 464.203 139.22C463.793 138.545 463.147 138.003 462.267 137.592C461.387 137.152 460.507 136.8 459.627 136.536C458.747 136.272 457.589 135.979 456.151 135.656C455.946 135.627 455.799 135.597 455.711 135.568C452.485 134.835 450.373 134.248 449.375 133.808C446.325 132.488 444.799 130.215 444.799 126.988C444.799 123.996 445.899 121.767 448.099 120.3C450.329 118.804 453.013 118.056 456.151 118.056C459.583 118.056 462.326 118.877 464.379 120.52C466.433 122.163 467.518 124.612 467.635 127.868Z" fill="white"/>
<path d="M221.275 273.76V288H219.915V273.76H221.275ZM236.829 288.1L236.149 288.96L233.909 287.26C232.975 287.993 231.749 288.36 230.229 288.36C228.229 288.36 226.609 287.68 225.369 286.32C224.129 284.947 223.509 283.16 223.509 280.96C223.509 278.733 224.129 276.933 225.369 275.56C226.609 274.173 228.222 273.48 230.209 273.48C232.195 273.48 233.809 274.167 235.049 275.54C236.289 276.913 236.909 278.7 236.909 280.9C236.909 283.273 236.209 285.16 234.809 286.56L236.829 288.1ZM233.789 285.8C234.975 284.48 235.569 282.84 235.569 280.88C235.569 279.027 235.075 277.527 234.089 276.38C233.102 275.233 231.809 274.66 230.209 274.66C228.622 274.66 227.335 275.24 226.349 276.4C225.362 277.547 224.869 279.053 224.869 280.92C224.855 282.827 225.342 284.353 226.329 285.5C227.315 286.633 228.635 287.2 230.289 287.2C231.275 287.2 232.135 286.947 232.869 286.44L230.989 285.02L231.689 284.16L233.789 285.8ZM245.033 273.42C247.019 273.42 248.633 274.113 249.873 275.5C251.126 276.887 251.753 278.693 251.753 280.92C251.753 283.133 251.133 284.927 249.893 286.3C248.653 287.66 247.026 288.34 245.013 288.34C243.013 288.34 241.399 287.653 240.173 286.28C238.946 284.907 238.333 283.107 238.333 280.88C238.333 278.653 238.946 276.853 240.173 275.48C241.413 274.107 243.033 273.42 245.033 273.42ZM245.013 274.6C243.426 274.6 242.139 275.173 241.153 276.32C240.179 277.467 239.693 278.973 239.693 280.84C239.693 282.747 240.179 284.28 241.153 285.44C242.126 286.587 243.419 287.16 245.033 287.16C246.646 287.16 247.939 286.587 248.913 285.44C249.899 284.293 250.393 282.78 250.393 280.9C250.393 279.02 249.899 277.5 248.913 276.34C247.926 275.18 246.626 274.6 245.013 274.6ZM263.837 277.86H262.517C262.464 276.807 262.084 276.007 261.377 275.46C260.684 274.9 259.744 274.62 258.557 274.62C257.437 274.62 256.564 274.853 255.937 275.32C255.31 275.787 254.997 276.447 254.997 277.3C254.997 277.607 255.03 277.88 255.097 278.12C255.177 278.347 255.31 278.547 255.497 278.72C255.697 278.893 255.877 279.04 256.037 279.16C256.21 279.267 256.484 279.38 256.857 279.5C257.23 279.607 257.53 279.693 257.757 279.76C257.984 279.813 258.344 279.893 258.837 280C259.37 280.12 259.804 280.22 260.137 280.3C260.47 280.38 260.85 280.487 261.277 280.62C261.704 280.753 262.044 280.887 262.297 281.02C262.564 281.153 262.837 281.32 263.117 281.52C263.397 281.72 263.61 281.94 263.757 282.18C263.904 282.42 264.024 282.707 264.117 283.04C264.224 283.36 264.277 283.72 264.277 284.12C264.277 285.093 264.004 285.907 263.457 286.56C262.924 287.213 262.27 287.667 261.497 287.92C260.724 288.173 259.864 288.3 258.917 288.3C257.144 288.3 255.75 287.867 254.737 287C253.737 286.133 253.237 284.94 253.237 283.42V283.3H254.537C254.537 284.593 254.93 285.567 255.717 286.22C256.517 286.873 257.617 287.2 259.017 287.2C260.244 287.2 261.21 286.94 261.917 286.42C262.624 285.9 262.977 285.18 262.977 284.26C262.977 283.367 262.637 282.733 261.957 282.36C261.29 281.973 260.024 281.56 258.157 281.12C257.557 280.987 257.11 280.88 256.817 280.8C256.537 280.72 256.157 280.58 255.677 280.38C255.197 280.18 254.837 279.967 254.597 279.74C254.37 279.5 254.164 279.18 253.977 278.78C253.79 278.38 253.697 277.913 253.697 277.38C253.697 276.18 254.137 275.233 255.017 274.54C255.91 273.833 257.124 273.48 258.657 273.48C260.204 273.48 261.437 273.853 262.357 274.6C263.277 275.333 263.77 276.42 263.837 277.86ZM272.135 273.72L277.815 288H276.315L274.595 283.52H268.075L266.335 288H264.875L270.635 273.72H272.135ZM274.175 282.42L271.375 275L268.495 282.42H274.175ZM280.832 279.78H280.032L279.892 274.18H280.972L280.832 279.78ZM294.599 277.86H293.279C293.225 276.807 292.845 276.007 292.139 275.46C291.445 274.9 290.505 274.62 289.319 274.62C288.199 274.62 287.325 274.853 286.699 275.32C286.072 275.787 285.759 276.447 285.759 277.3C285.759 277.607 285.792 277.88 285.859 278.12C285.939 278.347 286.072 278.547 286.259 278.72C286.459 278.893 286.639 279.04 286.799 279.16C286.972 279.267 287.245 279.38 287.619 279.5C287.992 279.607 288.292 279.693 288.519 279.76C288.745 279.813 289.105 279.893 289.599 280C290.132 280.12 290.565 280.22 290.899 280.3C291.232 280.38 291.612 280.487 292.039 280.62C292.465 280.753 292.805 280.887 293.059 281.02C293.325 281.153 293.599 281.32 293.879 281.52C294.159 281.72 294.372 281.94 294.519 282.18C294.665 282.42 294.785 282.707 294.879 283.04C294.985 283.36 295.039 283.72 295.039 284.12C295.039 285.093 294.765 285.907 294.219 286.56C293.685 287.213 293.032 287.667 292.259 287.92C291.485 288.173 290.625 288.3 289.679 288.3C287.905 288.3 286.512 287.867 285.499 287C284.499 286.133 283.999 284.94 283.999 283.42V283.3H285.299C285.299 284.593 285.692 285.567 286.479 286.22C287.279 286.873 288.379 287.2 289.779 287.2C291.005 287.2 291.972 286.94 292.679 286.42C293.385 285.9 293.739 285.18 293.739 284.26C293.739 283.367 293.399 282.733 292.719 282.36C292.052 281.973 290.785 281.56 288.919 281.12C288.319 280.987 287.872 280.88 287.579 280.8C287.299 280.72 286.919 280.58 286.439 280.38C285.959 280.18 285.599 279.967 285.359 279.74C285.132 279.5 284.925 279.18 284.739 278.78C284.552 278.38 284.459 277.913 284.459 277.38C284.459 276.18 284.899 275.233 285.779 274.54C286.672 273.833 287.885 273.48 289.419 273.48C290.965 273.48 292.199 273.853 293.119 274.6C294.039 275.333 294.532 276.42 294.599 277.86ZM312.203 286.84V288H302.843V273.76H304.203V286.84H312.203ZM315.025 273.76V288H313.665V273.76H315.025ZM329.419 273.76L322.999 279.58L329.739 288H327.999L322.039 280.5L319.319 282.98V288H317.979V273.76H319.319V281.42L327.619 273.76H329.419ZM340.847 273.76V274.92H332.327V280.06H340.307V281.2H332.327V286.84H340.927V288H330.967V273.76H340.847ZM365.029 273.76L361.089 288H359.629L356.729 277.98C356.356 276.66 356.116 275.68 356.009 275.04C355.903 275.387 355.763 275.887 355.589 276.54C355.429 277.193 355.309 277.66 355.229 277.94L352.389 288H350.909L346.969 273.76H348.389L351.049 283.64C351.223 284.293 351.443 285.273 351.709 286.58C351.856 285.753 352.096 284.773 352.429 283.64L355.249 273.76H356.789L359.669 283.78C360.029 285.02 360.256 285.953 360.349 286.58C360.403 286.367 360.496 285.94 360.629 285.3C360.776 284.647 360.896 284.147 360.989 283.8L363.669 273.76H365.029ZM372.174 273.72L377.854 288H376.354L374.634 283.52H368.114L366.374 288H364.914L370.674 273.72H372.174ZM374.214 282.42L371.414 275L368.534 282.42H374.214ZM388.931 273.76V274.92H383.931V288H382.571V274.92H377.571V273.76H388.931ZM400.125 273.76V274.92H391.605V280.06H399.585V281.2H391.605V286.84H400.205V288H390.245V273.76H400.125ZM402.1 273.76H408.54C409.887 273.76 410.96 274.08 411.76 274.72C412.573 275.347 412.98 276.307 412.98 277.6C412.98 278.52 412.733 279.287 412.24 279.9C411.76 280.5 411.08 280.907 410.2 281.12C411.067 281.28 411.68 281.613 412.04 282.12C412.413 282.613 412.633 283.353 412.7 284.34C412.7 284.367 412.707 284.547 412.72 284.88C412.733 285.213 412.747 285.5 412.76 285.74C412.787 285.98 412.82 286.267 412.86 286.6C412.913 286.933 412.98 287.22 413.06 287.46C413.153 287.7 413.26 287.88 413.38 288H411.84C411.72 287.853 411.633 287.593 411.58 287.22C411.527 286.847 411.487 286.367 411.46 285.78C411.433 285.193 411.42 284.88 411.42 284.84C411.327 283.547 411.013 282.693 410.48 282.28C409.947 281.853 409 281.64 407.64 281.64H403.46V288H402.1V273.76ZM403.46 274.92V280.56H407.48C408.067 280.56 408.573 280.527 409 280.46C409.427 280.393 409.853 280.267 410.28 280.08C410.72 279.893 411.053 279.6 411.28 279.2C411.52 278.787 411.64 278.28 411.64 277.68C411.64 275.84 410.46 274.92 408.1 274.92H403.46Z" fill="white"/>
</svg>
