<svg width="864" height="291" viewBox="0 0 864 291" fill="none" xmlns="http://www.w3.org/2000/svg">
<path fill-rule="evenodd" clip-rule="evenodd" d="M93.6492 1.4001V5.5001H81.6992V37.0001H76.9992V5.5001H65.0492V1.4001H93.6492ZM125.86 1.4001V37.0001H121.16V20.3501H102.36V37.0001H97.6602V1.4001H102.36V16.2501H121.16V1.4001H125.86ZM158.394 1.4001V5.5001H138.444V16.6501H157.094V20.6001H138.444V32.9001H158.644V37.0001H133.744V1.4001H158.394ZM174.977 1.4001H179.827L186.877 31.1501L194.927 1.4001H200.077L208.027 31.1501L215.327 1.4001H220.027L210.527 37.0001H205.577L197.377 7.2001L189.077 37.0001H184.127L174.977 1.4001ZM239.466 1.4001L253.366 37.0001H248.116L244.166 26.1001H229.216L225.166 37.0001H220.166L234.166 1.4001H239.466ZM242.766 22.3501L236.716 5.9001L230.566 22.3501H242.766ZM281.637 1.4001V5.5001H269.688V37.0001H264.987V5.5001H253.038V1.4001H281.637ZM310.298 1.4001V5.5001H290.348V16.6501H308.998V20.6001H290.348V32.9001H310.548V37.0001H285.648V1.4001H310.298ZM316.215 1.4001H331.865C339.832 1.4001 343.815 4.68343 343.815 11.2501C343.815 13.3168 343.248 15.1501 342.115 16.7501C341.015 18.3168 339.548 19.3668 337.715 19.9001C338.915 20.1668 339.882 20.5501 340.615 21.0501C341.348 21.5501 341.882 22.2501 342.215 23.1501C342.548 24.0501 342.765 24.8501 342.865 25.5501C342.965 26.2501 343.048 27.2834 343.115 28.6501C343.115 28.7834 343.132 29.1168 343.165 29.6501C343.198 30.1501 343.215 30.5001 343.215 30.7001C343.215 30.8668 343.232 31.1834 343.265 31.6501L343.415 32.7001C343.448 32.9334 343.498 33.2501 343.565 33.6501C343.632 34.0501 343.715 34.3834 343.815 34.6501C343.915 34.8834 344.031 35.1668 344.165 35.5001C344.298 35.8001 344.448 36.0834 344.615 36.3501C344.781 36.5834 344.965 36.8001 345.165 37.0001H339.765C339.531 36.6668 339.332 36.2501 339.165 35.7501C339.031 35.2501 338.931 34.6668 338.865 34.0001C338.798 33.3001 338.748 32.7501 338.715 32.3501C338.681 31.9168 338.648 31.3001 338.615 30.5001C338.582 29.7001 338.565 29.2501 338.565 29.1501C338.398 26.1168 337.765 24.1001 336.665 23.1001C335.598 22.1001 333.465 21.6001 330.265 21.6001H320.915V37.0001H316.215V1.4001ZM320.915 5.4001V17.8501H329.765C330.865 17.8501 331.781 17.8168 332.515 17.7501C333.281 17.6834 334.115 17.5334 335.015 17.3001C335.915 17.0668 336.632 16.7334 337.165 16.3001C337.732 15.8668 338.198 15.2501 338.565 14.4501C338.931 13.6501 339.115 12.6834 339.115 11.5501C339.115 9.1501 338.382 7.53343 336.915 6.7001C335.482 5.83343 333.515 5.4001 331.015 5.4001H320.915ZM369.259 1.4001V37.0001H364.559V1.4001H369.259ZM402.499 11.8501H397.949C397.449 7.01677 394.499 4.6001 389.099 4.6001C386.532 4.6001 384.549 5.11677 383.149 6.1501C381.749 7.18343 381.049 8.63343 381.049 10.5001C381.049 11.1668 381.149 11.7501 381.349 12.2501C381.549 12.7501 381.882 13.2001 382.349 13.6001C382.849 13.9668 383.315 14.2834 383.749 14.5501C384.182 14.8168 384.865 15.0834 385.799 15.3501C386.732 15.6168 387.482 15.8168 388.049 15.9501C388.615 16.0501 389.499 16.2334 390.699 16.5001C392.165 16.8001 393.382 17.0834 394.349 17.3501C395.315 17.5834 396.465 17.9834 397.799 18.5501C399.132 19.1168 400.182 19.7501 400.949 20.4501C401.749 21.1168 402.432 22.0168 402.999 23.1501C403.599 24.2834 403.899 25.5668 403.899 27.0001C403.899 29.5001 403.199 31.6001 401.799 33.3001C400.399 34.9668 398.699 36.1334 396.699 36.8001C394.699 37.4668 392.482 37.8001 390.049 37.8001C385.582 37.8001 381.999 36.7501 379.299 34.6501C376.632 32.5168 375.299 29.3834 375.299 25.2501H379.849C379.949 28.2834 380.965 30.5001 382.899 31.9001C384.832 33.2668 387.349 33.9501 390.449 33.9501C392.882 33.9501 394.965 33.4501 396.699 32.4501C398.432 31.4168 399.299 29.7501 399.299 27.4501C399.299 26.3834 399.065 25.4834 398.599 24.7501C398.132 23.9834 397.399 23.3668 396.399 22.9001C395.399 22.4001 394.399 22.0001 393.399 21.7001C392.399 21.4001 391.082 21.0668 389.449 20.7001C389.215 20.6668 389.049 20.6334 388.949 20.6001C385.282 19.7668 382.882 19.1001 381.749 18.6001C378.282 17.1001 376.549 14.5168 376.549 10.8501C376.549 7.4501 377.799 4.91677 380.299 3.2501C382.832 1.5501 385.882 0.700099 389.449 0.700099C393.349 0.700099 396.465 1.63343 398.799 3.5001C401.132 5.36677 402.365 8.1501 402.499 11.8501ZM423.837 1.4001H438.487C442.12 1.4001 445.003 2.23343 447.137 3.9001C449.27 5.53343 450.337 8.11677 450.337 11.6501C450.337 18.8168 446.287 22.4001 438.187 22.4001H428.537V37.0001H423.837V1.4001ZM428.537 5.4501V18.4501H437.587C440.12 18.4501 442.087 17.9834 443.487 17.0501C444.92 16.0834 445.637 14.3834 445.637 11.9501C445.637 10.5834 445.403 9.4501 444.937 8.5501C444.503 7.6501 443.853 6.98343 442.987 6.5501C442.12 6.11676 441.22 5.83343 440.287 5.7001C439.353 5.53343 438.237 5.4501 436.937 5.4501H428.537ZM480.709 1.4001V5.5001H460.759V16.6501H479.409V20.6001H460.759V32.9001H480.959V37.0001H456.059V1.4001H480.709ZM486.625 1.4001H502.275C510.242 1.4001 514.225 4.68343 514.225 11.2501C514.225 13.3168 513.658 15.1501 512.525 16.7501C511.425 18.3168 509.958 19.3668 508.125 19.9001C509.325 20.1668 510.292 20.5501 511.025 21.0501C511.758 21.5501 512.292 22.2501 512.625 23.1501C512.958 24.0501 513.175 24.8501 513.275 25.5501C513.375 26.2501 513.458 27.2834 513.525 28.6501C513.525 28.7834 513.542 29.1168 513.575 29.6501C513.608 30.1501 513.625 30.5001 513.625 30.7001C513.625 30.8668 513.642 31.1834 513.675 31.6501L513.825 32.7001C513.858 32.9334 513.908 33.2501 513.975 33.6501C514.042 34.0501 514.125 34.3834 514.225 34.6501C514.325 34.8834 514.442 35.1668 514.575 35.5001C514.708 35.8001 514.858 36.0834 515.025 36.3501C515.192 36.5834 515.375 36.8001 515.575 37.0001H510.175C509.942 36.6668 509.742 36.2501 509.575 35.7501C509.442 35.2501 509.342 34.6668 509.275 34.0001C509.208 33.3001 509.158 32.7501 509.125 32.3501C509.092 31.9168 509.058 31.3001 509.025 30.5001C508.992 29.7001 508.975 29.2501 508.975 29.1501C508.808 26.1168 508.175 24.1001 507.075 23.1001C506.008 22.1001 503.875 21.6001 500.675 21.6001H491.325V37.0001H486.625V1.4001ZM491.325 5.4001V17.8501H500.175C501.275 17.8501 502.192 17.8168 502.925 17.7501C503.692 17.6834 504.525 17.5334 505.425 17.3001C506.325 17.0668 507.042 16.7334 507.575 16.3001C508.142 15.8668 508.608 15.2501 508.975 14.4501C509.342 13.6501 509.525 12.6834 509.525 11.5501C509.525 9.1501 508.792 7.53343 507.325 6.7001C505.892 5.83343 503.925 5.4001 501.425 5.4001H491.325ZM544.304 1.4001V5.5001H525.604V16.6001H542.104V20.5501H525.604V37.0001H520.904V1.4001H544.304ZM574.214 1.4001V5.5001H554.264V16.6501H572.914V20.6001H554.264V32.9001H574.464V37.0001H549.564V1.4001H574.214ZM610.281 23.5501C609.881 28.0501 608.314 31.5668 605.581 34.1001C602.881 36.6001 599.314 37.8501 594.881 37.8501C589.814 37.8501 585.797 36.1834 582.831 32.8501C579.864 29.4834 578.381 24.9501 578.381 19.2501C578.381 13.9168 579.864 9.48343 582.831 5.9501C585.831 2.38343 589.964 0.600098 595.231 0.600098C598.997 0.600098 602.314 1.61676 605.181 3.6501C608.047 5.68343 609.648 8.5001 609.981 12.1001H605.281C604.747 9.76677 603.581 7.9501 601.781 6.6501C599.981 5.31676 597.764 4.6501 595.131 4.6501C591.164 4.6501 588.164 6.0501 586.131 8.8501C584.131 11.6501 583.131 15.1001 583.131 19.2001C583.131 23.7334 584.198 27.3001 586.331 29.9001C588.464 32.5001 591.381 33.8001 595.081 33.8001C598.114 33.8001 600.531 32.9334 602.331 31.2001C604.131 29.4334 605.214 26.8834 605.581 23.5501H610.281ZM640.915 1.4001V5.5001H628.965V37.0001H624.265V5.5001H612.315V1.4001H640.915ZM650.676 31.4501V37.0001H645.126V31.4501H650.676ZM218.649 57.4001L211.099 93.0001H208.899L216.449 57.4001H218.649ZM248.778 57.4001L248.378 59.2501H235.978L228.878 93.0001H226.678L233.828 59.2501H220.978L221.378 57.4001H248.778ZM251.605 71.1501H250.155L252.855 57.4001H254.755L251.605 71.1501ZM284.611 67.6501H282.561V67.1501C282.561 61.5168 279.161 58.7001 272.361 58.7001C269.194 58.7001 266.677 59.4001 264.811 60.8001C262.977 62.1668 262.061 64.0168 262.061 66.3501C262.061 67.0501 262.161 67.7001 262.361 68.3001C262.594 68.9001 262.844 69.4168 263.111 69.8501C263.411 70.2834 263.844 70.7168 264.411 71.1501C265.011 71.5501 265.511 71.8668 265.911 72.1001C266.311 72.3334 266.911 72.6001 267.711 72.9001C268.511 73.1668 269.094 73.3668 269.461 73.5001C269.827 73.6001 270.444 73.7834 271.311 74.0501C272.211 74.2834 272.777 74.4334 273.011 74.5001C275.877 75.3001 278.044 76.3334 279.511 77.6001C281.011 78.8334 281.761 80.7501 281.761 83.3501C281.761 86.4834 280.527 89.0001 278.061 90.9001C275.627 92.7668 272.394 93.7001 268.361 93.7001C264.194 93.7001 260.961 92.7168 258.661 90.7501C256.361 88.7834 255.211 86.0001 255.211 82.4001V81.8501C255.244 81.6168 255.261 81.4001 255.261 81.2001H257.361V82.1501C257.361 85.4834 258.344 87.9501 260.311 89.5501C262.277 91.1168 264.994 91.9001 268.461 91.9001C271.827 91.9001 274.527 91.1334 276.561 89.6001C278.627 88.0334 279.661 85.9668 279.661 83.4001C279.661 81.4334 279.027 79.9668 277.761 79.0001C276.494 78.0001 274.727 77.1668 272.461 76.5001C272.227 76.4334 271.627 76.2668 270.661 76.0001C269.694 75.7001 269.044 75.5001 268.711 75.4001C268.377 75.2668 267.761 75.0501 266.861 74.7501C265.994 74.4501 265.377 74.1834 265.011 73.9501C264.644 73.7168 264.127 73.4168 263.461 73.0501C262.794 72.6501 262.294 72.2501 261.961 71.8501C261.661 71.4168 261.327 70.9334 260.961 70.4001C260.594 69.8668 260.327 69.2668 260.161 68.6001C260.027 67.9334 259.961 67.2168 259.961 66.4501C259.961 63.5168 261.077 61.1834 263.311 59.4501C265.544 57.7168 268.561 56.8501 272.361 56.8501C276.361 56.8501 279.411 57.7001 281.511 59.4001C283.611 61.0668 284.661 63.5001 284.661 66.7001C284.661 67.0001 284.644 67.3168 284.611 67.6501ZM332.521 80.6001C331.521 84.6001 329.504 87.8168 326.471 90.2501C323.471 92.6501 319.921 93.8501 315.821 93.8501C311.554 93.8501 308.154 92.5168 305.621 89.8501C303.121 87.1834 301.871 83.5668 301.871 79.0001C301.871 75.1334 302.604 71.5334 304.071 68.2001C305.537 64.8668 307.754 62.1168 310.721 59.9501C313.721 57.7834 317.187 56.7001 321.121 56.7001C325.054 56.7001 328.237 57.7668 330.671 59.9001C333.104 62.0334 334.337 64.8501 334.371 68.3501H332.221C332.021 65.2834 330.954 62.9001 329.021 61.2001C327.087 59.4668 324.454 58.6001 321.121 58.6001C317.687 58.6001 314.637 59.6168 311.971 61.6501C309.337 63.6501 307.371 66.1668 306.071 69.2001C304.771 72.2334 304.121 75.4668 304.121 78.9001C304.121 82.8668 305.171 86.0334 307.271 88.4001C309.404 90.7668 312.271 91.9501 315.871 91.9501C319.337 91.9501 322.354 90.9334 324.921 88.9001C327.521 86.8668 329.321 84.1001 330.321 80.6001H332.521ZM368.926 57.4001L361.426 93.0001H359.226L362.976 75.3501H340.726L336.926 93.0001H334.776L342.326 57.4001H344.526L341.126 73.5001H363.376L366.776 57.4001H368.926ZM388.875 57.4001L395.475 93.0001H393.225L391.175 81.5001H374.075L367.075 93.0001H364.575L386.575 57.4001H388.875ZM387.375 59.4001C387.009 60.0001 386.459 60.9501 385.725 62.2501C385.025 63.5501 384.475 64.5001 384.075 65.1001L375.125 79.7001H390.875L388.225 64.9501C387.759 62.4834 387.475 60.6334 387.375 59.4001ZM433.642 57.4001L426.092 93.0001H423.692L409.592 63.9501C409.258 63.2834 408.625 61.8668 407.692 59.7001C407.458 61.3668 407.108 63.3001 406.642 65.5001L400.842 93.0001H398.692L406.242 57.4001H408.742L421.342 83.4501C422.575 85.9834 423.675 88.4001 424.642 90.7001L431.542 57.4001H433.642ZM467.72 75.6001L464.12 93.0001H462.52L463.27 88.6001C463.437 87.6001 463.687 86.3668 464.02 84.9001C460.754 90.8334 455.97 93.8001 449.67 93.8001C445.104 93.8001 441.57 92.4501 439.07 89.7501C436.57 87.0501 435.32 83.3668 435.32 78.7001C435.32 74.7668 436.087 71.1501 437.62 67.8501C439.154 64.5168 441.437 61.8168 444.47 59.7501C447.537 57.6834 451.054 56.6501 455.02 56.6501C458.987 56.6501 462.17 57.7001 464.57 59.8001C466.97 61.8668 468.237 64.6668 468.37 68.2001H466.22C465.954 65.0668 464.837 62.6668 462.87 61.0001C460.904 59.3334 458.237 58.5001 454.87 58.5001C451.337 58.5001 448.22 59.5168 445.52 61.5501C442.82 63.5834 440.804 66.1334 439.47 69.2001C438.137 72.2334 437.47 75.4834 437.47 78.9501C437.47 82.9834 438.57 86.1668 440.77 88.5001C443.004 90.8001 446.037 91.9501 449.87 91.9501C454.137 91.9501 457.554 90.6334 460.12 88.0001C462.687 85.3668 464.47 81.8334 465.47 77.4001H452.37L452.77 75.6001H467.72ZM500.881 57.4001L500.481 59.3001H479.381L476.381 73.6001H496.081L495.681 75.4501H475.981L472.681 91.1001H494.431L494.031 93.0001H470.081L477.631 57.4001H500.881ZM518.514 57.4001L525.114 93.0001H522.864L520.814 81.5001H503.714L496.714 93.0001H494.214L516.214 57.4001H518.514ZM517.014 59.4001C516.647 60.0001 516.097 60.9501 515.364 62.2501C514.664 63.5501 514.114 64.5001 513.714 65.1001L504.764 79.7001H520.514L517.864 64.9501C517.397 62.4834 517.114 60.6334 517.014 59.4001ZM535.93 57.4001H547.23C548.564 57.4001 549.697 57.4334 550.63 57.5001C551.597 57.5668 552.647 57.7668 553.78 58.1001C554.947 58.4001 555.88 58.8334 556.58 59.4001C557.314 59.9334 557.93 60.7168 558.43 61.7501C558.93 62.7501 559.18 63.9668 559.18 65.4001C559.18 67.8334 558.414 69.8668 556.88 71.5001C555.38 73.1334 553.314 74.1334 550.68 74.5001C552.747 74.8668 554.364 75.6834 555.53 76.9501C556.73 78.1834 557.33 79.8668 557.33 82.0001C557.33 85.1334 556.23 87.7501 554.03 89.8501C552.997 90.8168 551.764 91.5501 550.33 92.0501C548.93 92.5501 547.73 92.8334 546.73 92.9001C545.764 92.9668 544.33 93.0001 542.43 93.0001H528.43L535.93 57.4001ZM537.68 59.3001L534.63 73.7001H545.58C553.214 73.7001 557.03 70.9668 557.03 65.5001C557.03 64.3668 556.83 63.4001 556.43 62.6001C556.03 61.8001 555.547 61.2001 554.98 60.8001C554.447 60.3668 553.697 60.0334 552.73 59.8001C551.797 59.5668 550.947 59.4334 550.18 59.4001C549.447 59.3334 548.514 59.3001 547.38 59.3001H537.68ZM534.23 75.4501L530.93 91.2001H541.68C544.914 91.2001 547.347 90.9834 548.98 90.5501C550.814 90.0834 552.297 89.0668 553.43 87.5001C554.597 85.9001 555.18 84.0834 555.18 82.0501C555.18 80.8834 554.98 79.8834 554.58 79.0501C554.18 78.2168 553.68 77.5834 553.08 77.1501C552.48 76.6834 551.697 76.3168 550.73 76.0501C549.764 75.7834 548.864 75.6168 548.03 75.5501C547.23 75.4834 546.28 75.4501 545.18 75.4501H534.23ZM569.675 57.4001L562.525 91.1001H582.575L582.175 93.0001H559.925L567.475 57.4001H569.675ZM615.725 57.4001L615.325 59.3001H594.225L591.225 73.6001H610.925L610.525 75.4501H590.825L587.525 91.1001H609.275L608.875 93.0001H584.925L592.475 57.4001H615.725ZM619.458 87.9001L618.408 92.9001C618.008 94.7334 617.474 96.1501 616.808 97.1501C616.141 98.1501 615.024 98.9001 613.458 99.4001L613.808 97.7501C614.474 97.5168 615.008 97.1168 615.408 96.5501C615.841 95.9834 616.124 95.4668 616.258 95.0001C616.424 94.5334 616.608 93.8668 616.808 93.0001H615.908L617.008 87.9001H619.458ZM661.19 57.4001L667.79 93.0001H665.54L663.49 81.5001H646.39L639.39 93.0001H636.89L658.89 57.4001H661.19ZM659.69 59.4001C659.323 60.0001 658.773 60.9501 658.04 62.2501C657.34 63.5501 656.79 64.5001 656.39 65.1001L647.44 79.7001H663.19L660.54 64.9501C660.073 62.4834 659.79 60.6334 659.69 59.4001ZM678.656 57.4001H688.406C692.94 57.4001 696.206 58.0834 698.206 59.4501C701.673 61.7501 703.406 65.7334 703.406 71.4001C703.406 74.9334 702.706 78.2834 701.306 81.4501C699.94 84.5834 698.023 87.1501 695.556 89.1501C693.556 90.7834 691.523 91.8334 689.456 92.3001C687.423 92.7668 684.823 93.0001 681.656 93.0001H671.206L678.656 57.4001ZM680.406 59.3001L673.756 91.1001H684.906C688.306 91.1001 691.273 90.1168 693.806 88.1501C696.373 86.1834 698.256 83.7334 699.456 80.8001C700.69 77.8334 701.306 74.6668 701.306 71.3001C701.306 67.1001 700.29 64.0501 698.256 62.1501C696.256 60.2501 693.123 59.3001 688.856 59.3001H680.406ZM725.985 57.4001L732.585 93.0001H730.335L728.285 81.5001H711.185L704.185 93.0001H701.685L723.685 57.4001H725.985ZM724.485 59.4001C724.118 60.0001 723.568 60.9501 722.835 62.2501C722.135 63.5501 721.585 64.5001 721.185 65.1001L712.235 79.7001H727.985L725.335 64.9501C724.868 62.4834 724.585 60.6334 724.485 59.4001ZM743.351 57.4001H755.351C757.018 57.4001 758.451 57.5168 759.651 57.7501C760.885 57.9834 762.051 58.4001 763.151 59.0001C764.284 59.6001 765.135 60.5001 765.701 61.7001C766.301 62.9001 766.601 64.3834 766.601 66.1501C766.601 68.2834 766.068 70.2334 765.001 72.0001C763.935 73.7334 762.518 75.0334 760.751 75.9001C758.984 76.7334 756.068 77.1501 752.001 77.1501H741.351L738.001 93.0001H735.801L743.351 57.4001ZM745.151 59.3001L741.751 75.3001H751.901C756.101 75.3001 759.034 74.7668 760.701 73.7001C761.834 72.9668 762.734 71.9334 763.401 70.6001C764.101 69.2334 764.451 67.7834 764.451 66.2501C764.451 63.5168 763.601 61.6834 761.901 60.7501C760.234 59.7834 757.868 59.3001 754.801 59.3001H745.151ZM796.19 57.4001L795.79 59.2501H783.39L776.29 93.0001H774.09L781.24 59.2501H768.39L768.79 57.4001H796.19ZM801.218 57.4001L793.668 93.0001H791.468L799.018 57.4001H801.218ZM833.546 57.4001L812.746 93.0001H810.096L804.146 57.4001H806.396L810.696 83.9501C810.863 84.8501 811.063 86.1501 811.296 87.8501C811.529 89.5501 811.679 90.6334 811.746 91.1001C812.579 89.5001 813.846 87.2168 815.546 84.2501L831.146 57.4001H833.546ZM860.207 57.4001L859.807 59.3001H838.707L835.707 73.6001H855.407L855.007 75.4501H835.307L832.007 91.1001H853.757L853.357 93.0001H829.407L836.957 57.4001H860.207ZM863.94 87.9001L862.89 92.9001C862.49 94.7334 861.957 96.1501 861.29 97.1501C860.624 98.1501 859.507 98.9001 857.94 99.4001L858.29 97.7501C858.957 97.5168 859.49 97.1168 859.89 96.5501C860.324 95.9834 860.607 95.4668 860.74 95.0001C860.907 94.5334 861.09 93.8668 861.29 93.0001H860.39L861.49 87.9001H863.94ZM148.149 208L141.549 172.4H139.249L117.249 208H119.749L126.749 196.5H143.849L145.899 208H148.149ZM138.399 177.25C139.133 175.95 139.683 175 140.049 174.4C140.149 175.633 140.433 177.483 140.899 179.95L143.549 194.7H127.799L136.749 180.1C137.149 179.5 137.699 178.55 138.399 177.25ZM178.766 208L186.316 172.4H184.216L177.316 205.7C176.349 203.4 175.249 200.983 174.016 198.45L161.416 172.4H158.916L151.366 208H153.516L159.316 180.5C159.782 178.3 160.132 176.367 160.366 174.7C161.299 176.867 161.932 178.283 162.266 178.95L176.366 208H178.766ZM202.994 172.4H193.244L185.794 208H196.244C199.411 208 202.011 207.767 204.044 207.3C206.111 206.833 208.144 205.783 210.144 204.15C212.611 202.15 214.527 199.583 215.894 196.45C217.294 193.283 217.994 189.933 217.994 186.4C217.994 180.733 216.261 176.75 212.794 174.45C210.794 173.083 207.527 172.4 202.994 172.4ZM188.344 206.1L194.994 174.3H203.444C207.711 174.3 210.844 175.25 212.844 177.15C214.877 179.05 215.894 182.1 215.894 186.3C215.894 189.667 215.277 192.833 214.044 195.8C212.844 198.733 210.961 201.183 208.394 203.15C205.861 205.117 202.894 206.1 199.494 206.1H188.344ZM251.139 172.4H241.389L233.939 208H244.389C247.555 208 250.155 207.767 252.189 207.3C254.255 206.833 256.289 205.783 258.289 204.15C260.755 202.15 262.672 199.583 264.039 196.45C265.439 193.283 266.139 189.933 266.139 186.4C266.139 180.733 264.405 176.75 260.939 174.45C258.939 173.083 255.672 172.4 251.139 172.4ZM236.489 206.1L243.139 174.3H251.589C255.855 174.3 258.989 175.25 260.989 177.15C263.022 179.05 264.039 182.1 264.039 186.3C264.039 189.667 263.422 192.833 262.189 195.8C260.989 198.733 259.105 201.183 256.539 203.15C254.005 205.117 251.039 206.1 247.639 206.1H236.489ZM298.467 174.3L298.867 172.4H275.617L268.067 208H292.017L292.417 206.1H270.667L273.967 190.45H293.667L294.067 188.6H274.367L277.367 174.3H298.467ZM324.15 182.65H326.2C326.234 182.317 326.25 182 326.25 181.7C326.25 178.5 325.2 176.067 323.1 174.4C321 172.7 317.95 171.85 313.95 171.85C310.15 171.85 307.134 172.717 304.9 174.45C302.667 176.183 301.55 178.517 301.55 181.45C301.55 182.217 301.617 182.933 301.75 183.6C301.917 184.267 302.184 184.867 302.55 185.4C302.917 185.933 303.25 186.417 303.55 186.85C303.884 187.25 304.384 187.65 305.05 188.05C305.717 188.417 306.234 188.717 306.6 188.95C306.967 189.183 307.584 189.45 308.45 189.75C309.35 190.05 309.967 190.267 310.3 190.4C310.634 190.5 311.284 190.7 312.25 191C313.217 191.267 313.817 191.433 314.05 191.5C316.317 192.167 318.084 193 319.35 194C320.617 194.967 321.25 196.433 321.25 198.4C321.25 200.967 320.217 203.033 318.15 204.6C316.117 206.133 313.417 206.9 310.05 206.9C306.584 206.9 303.867 206.117 301.9 204.55C299.934 202.95 298.95 200.483 298.95 197.15V196.2H296.85C296.85 196.4 296.834 196.617 296.8 196.85V197.4C296.8 201 297.95 203.783 300.25 205.75C302.55 207.717 305.784 208.7 309.95 208.7C313.984 208.7 317.217 207.767 319.65 205.9C322.117 204 323.35 201.483 323.35 198.35C323.35 195.75 322.6 193.833 321.1 192.6C319.634 191.333 317.467 190.3 314.6 189.5C314.367 189.433 313.8 189.283 312.9 189.05C312.034 188.783 311.417 188.6 311.05 188.5C310.684 188.367 310.1 188.167 309.3 187.9C308.5 187.6 307.9 187.333 307.5 187.1C307.1 186.867 306.6 186.55 306 186.15C305.434 185.717 305 185.283 304.7 184.85C304.434 184.417 304.184 183.9 303.95 183.3C303.75 182.7 303.65 182.05 303.65 181.35C303.65 179.017 304.567 177.167 306.4 175.8C308.267 174.4 310.784 173.7 313.95 173.7C320.75 173.7 324.15 176.517 324.15 182.15V182.65ZM357.595 174.25L357.995 172.4H330.595L330.195 174.25H343.045L335.895 208H338.095L345.195 174.25H357.595ZM372.972 172.4H360.872L353.322 208H355.522L358.972 191.8H368.822C370.322 191.8 371.506 191.867 372.372 192C373.272 192.1 374.156 192.35 375.022 192.75C375.922 193.117 376.556 193.733 376.922 194.6C377.322 195.467 377.522 196.6 377.522 198C377.522 198.4 377.472 199.383 377.372 200.95C377.306 202.517 377.272 203.683 377.272 204.45C377.272 205.783 377.406 206.967 377.672 208H379.922C379.589 206.967 379.422 205.75 379.422 204.35C379.422 203.65 379.456 202.617 379.522 201.25C379.622 199.883 379.672 198.85 379.672 198.15C379.672 196.083 379.289 194.483 378.522 193.35C377.789 192.183 376.439 191.433 374.472 191.1C377.472 190.933 379.889 189.933 381.722 188.1C383.556 186.233 384.472 183.883 384.472 181.05C384.472 179.283 384.156 177.817 383.522 176.65C382.922 175.45 382.039 174.567 380.872 174C379.739 173.4 378.539 172.983 377.272 172.75C376.039 172.517 374.606 172.4 372.972 172.4ZM369.872 189.95H359.322L362.622 174.35H372.622C373.756 174.35 374.756 174.4 375.622 174.5C376.489 174.6 377.356 174.8 378.222 175.1C379.089 175.367 379.806 175.75 380.372 176.25C380.972 176.75 381.439 177.417 381.772 178.25C382.139 179.083 382.322 180.083 382.322 181.25C382.322 182.55 382.039 183.8 381.472 185C380.906 186.2 380.139 187.167 379.172 187.9C378.206 188.667 377.022 189.2 375.622 189.5C374.256 189.8 372.339 189.95 369.872 189.95ZM419.166 194.55C420 191.85 420.416 189.05 420.416 186.15C420.416 181.717 419.116 178.183 416.516 175.55C413.916 172.883 410.433 171.55 406.066 171.55C402.1 171.55 398.633 172.617 395.666 174.75C392.7 176.85 390.483 179.567 389.016 182.9C387.583 186.2 386.866 189.817 386.866 193.75C386.866 198.383 388.166 202.067 390.766 204.8C393.366 207.5 396.883 208.85 401.316 208.85C404.316 208.85 407.05 208.217 409.516 206.95C411.983 205.65 414 203.933 415.566 201.8C417.133 199.633 418.333 197.217 419.166 194.55ZM398.516 175.2C400.716 174.033 403.15 173.45 405.816 173.45C409.716 173.45 412.766 174.633 414.966 177C417.166 179.367 418.266 182.533 418.266 186.5C418.266 188.433 418.033 190.383 417.566 192.35C417.1 194.283 416.383 196.133 415.416 197.9C414.483 199.667 413.35 201.233 412.016 202.6C410.716 203.933 409.15 205 407.316 205.8C405.483 206.6 403.516 207 401.416 207C397.65 207 394.633 205.8 392.366 203.4C390.133 201 389.016 197.783 389.016 193.75C389.016 191.217 389.383 188.75 390.116 186.35C390.85 183.95 391.883 181.783 393.216 179.85C394.583 177.917 396.35 176.367 398.516 175.2ZM433.327 208L436.427 193.4L454.477 172.4H451.877L439.377 186.95C438.077 188.45 436.844 189.933 435.677 191.4C435.477 190.867 434.76 189.233 433.527 186.5L427.077 172.4H424.727L434.327 193.05L431.177 208H433.327ZM477.91 182.65H479.96C479.993 182.317 480.01 182 480.01 181.7C480.01 178.5 478.96 176.067 476.86 174.4C474.76 172.7 471.71 171.85 467.71 171.85C463.91 171.85 460.893 172.717 458.66 174.45C456.427 176.183 455.31 178.517 455.31 181.45C455.31 182.217 455.377 182.933 455.51 183.6C455.677 184.267 455.943 184.867 456.31 185.4C456.677 185.933 457.01 186.417 457.31 186.85C457.643 187.25 458.143 187.65 458.81 188.05C459.477 188.417 459.993 188.717 460.36 188.95C460.727 189.183 461.343 189.45 462.21 189.75C463.11 190.05 463.727 190.267 464.06 190.4C464.393 190.5 465.043 190.7 466.01 191C466.977 191.267 467.577 191.433 467.81 191.5C470.077 192.167 471.843 193 473.11 194C474.377 194.967 475.01 196.433 475.01 198.4C475.01 200.967 473.977 203.033 471.91 204.6C469.877 206.133 467.177 206.9 463.81 206.9C460.343 206.9 457.627 206.117 455.66 204.55C453.693 202.95 452.71 200.483 452.71 197.15V196.2H450.61C450.61 196.4 450.593 196.617 450.56 196.85V197.4C450.56 201 451.71 203.783 454.01 205.75C456.31 207.717 459.543 208.7 463.71 208.7C467.743 208.7 470.977 207.767 473.41 205.9C475.877 204 477.11 201.483 477.11 198.35C477.11 195.75 476.36 193.833 474.86 192.6C473.393 191.333 471.227 190.3 468.36 189.5C468.127 189.433 467.56 189.283 466.66 189.05C465.793 188.783 465.177 188.6 464.81 188.5C464.443 188.367 463.86 188.167 463.06 187.9C462.26 187.6 461.66 187.333 461.26 187.1C460.86 186.867 460.36 186.55 459.76 186.15C459.193 185.717 458.76 185.283 458.46 184.85C458.193 184.417 457.943 183.9 457.71 183.3C457.51 182.7 457.41 182.05 457.41 181.35C457.41 179.017 458.327 177.167 460.16 175.8C462.027 174.4 464.543 173.7 467.71 173.7C474.51 173.7 477.91 176.517 477.91 182.15V182.65ZM529.42 194.55C530.254 191.85 530.67 189.05 530.67 186.15C530.67 181.717 529.37 178.183 526.77 175.55C524.17 172.883 520.687 171.55 516.32 171.55C512.354 171.55 508.887 172.617 505.92 174.75C502.954 176.85 500.737 179.567 499.27 182.9C497.837 186.2 497.12 189.817 497.12 193.75C497.12 198.383 498.42 202.067 501.02 204.8C503.62 207.5 507.137 208.85 511.57 208.85C514.57 208.85 517.304 208.217 519.77 206.95C522.237 205.65 524.254 203.933 525.82 201.8C527.387 199.633 528.587 197.217 529.42 194.55ZM508.77 175.2C510.97 174.033 513.404 173.45 516.07 173.45C519.97 173.45 523.02 174.633 525.22 177C527.42 179.367 528.52 182.533 528.52 186.5C528.52 188.433 528.287 190.383 527.82 192.35C527.354 194.283 526.637 196.133 525.67 197.9C524.737 199.667 523.604 201.233 522.27 202.6C520.97 203.933 519.404 205 517.57 205.8C515.737 206.6 513.77 207 511.67 207C507.904 207 504.887 205.8 502.62 203.4C500.387 201 499.27 197.783 499.27 193.75C499.27 191.217 499.637 188.75 500.37 186.35C501.104 183.95 502.137 181.783 503.47 179.85C504.837 177.917 506.604 176.367 508.77 175.2ZM534.681 206.1L541.831 172.4H539.631L532.081 208H554.331L554.731 206.1H534.681ZM574.381 172.4H564.631L557.181 208H567.631C570.797 208 573.398 207.767 575.431 207.3C577.497 206.833 579.531 205.783 581.531 204.15C583.997 202.15 585.914 199.583 587.281 196.45C588.681 193.283 589.381 189.933 589.381 186.4C589.381 180.733 587.648 176.75 584.181 174.45C582.181 173.083 578.914 172.4 574.381 172.4ZM559.731 206.1L566.381 174.3H574.831C579.098 174.3 582.231 175.25 584.231 177.15C586.264 179.05 587.281 182.1 587.281 186.3C587.281 189.667 586.664 192.833 585.431 195.8C584.231 198.733 582.348 201.183 579.781 203.15C577.247 205.117 574.281 206.1 570.881 206.1H559.731ZM639.625 194.55C640.459 191.85 640.875 189.05 640.875 186.15C640.875 181.717 639.575 178.183 636.975 175.55C634.375 172.883 630.892 171.55 626.525 171.55C622.559 171.55 619.092 172.617 616.125 174.75C613.159 176.85 610.942 179.567 609.475 182.9C608.042 186.2 607.325 189.817 607.325 193.75C607.325 198.383 608.625 202.067 611.225 204.8C613.825 207.5 617.342 208.85 621.775 208.85C624.775 208.85 627.509 208.217 629.975 206.95C632.442 205.65 634.459 203.933 636.025 201.8C637.592 199.633 638.792 197.217 639.625 194.55ZM618.975 175.2C621.175 174.033 623.609 173.45 626.275 173.45C630.175 173.45 633.225 174.633 635.425 177C637.625 179.367 638.725 182.533 638.725 186.5C638.725 188.433 638.492 190.383 638.025 192.35C637.559 194.283 636.842 196.133 635.875 197.9C634.942 199.667 633.809 201.233 632.475 202.6C631.175 203.933 629.609 205 627.775 205.8C625.942 206.6 623.975 207 621.875 207C618.109 207 615.092 205.8 612.825 203.4C610.592 201 609.475 197.783 609.475 193.75C609.475 191.217 609.842 188.75 610.575 186.35C611.309 183.95 612.342 181.783 613.675 179.85C615.042 177.917 616.809 176.367 618.975 175.2ZM669.586 208L677.136 172.4H675.036L668.136 205.7C667.169 203.4 666.069 200.983 664.836 198.45L652.236 172.4H649.736L642.186 208H644.336L650.136 180.5C650.603 178.3 650.953 176.367 651.186 174.7C652.119 176.867 652.753 178.283 653.086 178.95L667.186 208H669.586ZM706.914 174.3L707.314 172.4H684.064L676.514 208H700.464L700.864 206.1H679.114L682.414 190.45H702.114L702.514 188.6H682.814L685.814 174.3H706.914ZM732.598 182.65H734.648C734.681 182.317 734.698 182 734.698 181.7C734.698 178.5 733.648 176.067 731.548 174.4C729.448 172.7 726.398 171.85 722.398 171.85C718.598 171.85 715.581 172.717 713.348 174.45C711.114 176.183 709.998 178.517 709.998 181.45C709.998 182.217 710.064 182.933 710.198 183.6C710.364 184.267 710.631 184.867 710.998 185.4C711.364 185.933 711.698 186.417 711.998 186.85C712.331 187.25 712.831 187.65 713.498 188.05C714.164 188.417 714.681 188.717 715.048 188.95C715.414 189.183 716.031 189.45 716.898 189.75C717.798 190.05 718.414 190.267 718.748 190.4C719.081 190.5 719.731 190.7 720.698 191C721.664 191.267 722.264 191.433 722.498 191.5C724.764 192.167 726.531 193 727.798 194C729.064 194.967 729.698 196.433 729.698 198.4C729.698 200.967 728.664 203.033 726.598 204.6C724.564 206.133 721.864 206.9 718.498 206.9C715.031 206.9 712.314 206.117 710.348 204.55C708.381 202.95 707.398 200.483 707.398 197.15V196.2H705.298C705.298 196.4 705.281 196.617 705.248 196.85V197.4C705.248 201 706.398 203.783 708.698 205.75C710.998 207.717 714.231 208.7 718.398 208.7C722.431 208.7 725.664 207.767 728.098 205.9C730.564 204 731.798 201.483 731.798 198.35C731.798 195.75 731.048 193.833 729.548 192.6C728.081 191.333 725.914 190.3 723.048 189.5C722.814 189.433 722.248 189.283 721.348 189.05C720.481 188.783 719.864 188.6 719.498 188.5C719.131 188.367 718.548 188.167 717.748 187.9C716.948 187.6 716.348 187.333 715.948 187.1C715.548 186.867 715.048 186.55 714.448 186.15C713.881 185.717 713.448 185.283 713.148 184.85C712.881 184.417 712.631 183.9 712.398 183.3C712.198 182.7 712.098 182.05 712.098 181.35C712.098 179.017 713.014 177.167 714.848 175.8C716.714 174.4 719.231 173.7 722.398 173.7C729.198 173.7 732.598 176.517 732.598 182.15V182.65ZM740.792 208L741.892 202.9H739.392L738.292 208H740.792ZM32.0992 138.55C31.6992 143.05 30.1326 146.567 27.3992 149.1C24.6992 151.6 21.1326 152.85 16.6992 152.85C11.6326 152.85 7.61589 151.183 4.64922 147.85C1.68255 144.483 0.199219 139.95 0.199219 134.25C0.199219 128.917 1.68255 124.483 4.64922 120.95C7.64922 117.383 11.7826 115.6 17.0492 115.6C20.8159 115.6 24.1326 116.617 26.9992 118.65C29.8659 120.683 31.4659 123.5 31.7992 127.1H27.0992C26.5659 124.767 25.3992 122.95 23.5992 121.65C21.7992 120.317 19.5826 119.65 16.9492 119.65C12.9826 119.65 9.98255 121.05 7.94922 123.85C5.94922 126.65 4.94922 130.1 4.94922 134.2C4.94922 138.733 6.01589 142.3 8.14922 144.9C10.2826 147.5 13.1992 148.8 16.8992 148.8C19.9326 148.8 22.3492 147.933 24.1492 146.2C25.9492 144.433 27.0326 141.883 27.3992 138.55H32.0992ZM38.0332 116.4H53.6832C61.6499 116.4 65.6332 119.683 65.6332 126.25C65.6332 128.317 65.0665 130.15 63.9332 131.75C62.8332 133.317 61.3665 134.367 59.5332 134.9C60.7332 135.167 61.6999 135.55 62.4332 136.05C63.1665 136.55 63.6999 137.25 64.0332 138.15C64.3665 139.05 64.5832 139.85 64.6832 140.55C64.7832 141.25 64.8665 142.283 64.9332 143.65C64.9332 143.783 64.9499 144.117 64.9832 144.65C65.0165 145.15 65.0332 145.5 65.0332 145.7C65.0332 145.867 65.0499 146.183 65.0832 146.65L65.2332 147.7C65.2665 147.933 65.3165 148.25 65.3832 148.65C65.4499 149.05 65.5332 149.383 65.6332 149.65C65.7332 149.883 65.8499 150.167 65.9832 150.5C66.1165 150.8 66.2665 151.083 66.4332 151.35C66.5999 151.583 66.7832 151.8 66.9832 152H61.5832C61.3499 151.667 61.1499 151.25 60.9832 150.75C60.8499 150.25 60.7499 149.667 60.6832 149C60.6165 148.3 60.5665 147.75 60.5332 147.35C60.4999 146.917 60.4665 146.3 60.4332 145.5C60.3999 144.7 60.3832 144.25 60.3832 144.15C60.2165 141.117 59.5832 139.1 58.4832 138.1C57.4165 137.1 55.2832 136.6 52.0832 136.6H42.7332V152H38.0332V116.4ZM42.7332 120.4V132.85H51.5832C52.6832 132.85 53.5999 132.817 54.3332 132.75C55.0999 132.683 55.9332 132.533 56.8332 132.3C57.7332 132.067 58.4499 131.733 58.9832 131.3C59.5499 130.867 60.0165 130.25 60.3832 129.45C60.7499 128.65 60.9332 127.683 60.9332 126.55C60.9332 124.15 60.1999 122.533 58.7332 121.7C57.2999 120.833 55.3332 120.4 52.8332 120.4H42.7332ZM96.9117 116.4V120.5H76.9617V131.65H95.6117V135.6H76.9617V147.9H97.1617V152H72.2617V116.4H96.9117ZM131.678 152H126.428L122.478 141.1H107.528L103.478 152H98.4781L112.478 116.4H117.778L131.678 152ZM121.078 137.35L115.028 120.9L108.878 137.35H121.078ZM159.95 116.4V120.5H148V152H143.3V120.5H131.35V116.4H159.95ZM188.611 116.4V120.5H168.661V131.65H187.311V135.6H168.661V147.9H188.861V152H163.961V116.4H188.611ZM219.727 126.85H215.177C214.677 122.017 211.727 119.6 206.327 119.6C203.761 119.6 201.777 120.117 200.377 121.15C198.977 122.183 198.277 123.633 198.277 125.5C198.277 126.167 198.377 126.75 198.577 127.25C198.777 127.75 199.111 128.2 199.577 128.6C200.077 128.967 200.544 129.283 200.977 129.55C201.411 129.817 202.094 130.083 203.027 130.35C203.961 130.617 204.711 130.817 205.277 130.95C205.844 131.05 206.727 131.233 207.927 131.5C209.394 131.8 210.611 132.083 211.577 132.35C212.544 132.583 213.694 132.983 215.027 133.55C216.361 134.117 217.411 134.75 218.177 135.45C218.977 136.117 219.661 137.017 220.227 138.15C220.827 139.283 221.127 140.567 221.127 142C221.127 144.5 220.427 146.6 219.027 148.3C217.627 149.967 215.927 151.133 213.927 151.8C211.927 152.467 209.711 152.8 207.277 152.8C202.811 152.8 199.227 151.75 196.527 149.65C193.861 147.517 192.527 144.383 192.527 140.25H197.077C197.177 143.283 198.194 145.5 200.127 146.9C202.061 148.267 204.577 148.95 207.677 148.95C210.111 148.95 212.194 148.45 213.927 147.45C215.661 146.417 216.527 144.75 216.527 142.45C216.527 141.383 216.294 140.483 215.827 139.75C215.361 138.983 214.627 138.367 213.627 137.9C212.627 137.4 211.627 137 210.627 136.7C209.627 136.4 208.311 136.067 206.677 135.7C206.444 135.667 206.277 135.633 206.177 135.6C202.511 134.767 200.111 134.1 198.977 133.6C195.511 132.1 193.777 129.517 193.777 125.85C193.777 122.45 195.027 119.917 197.527 118.25C200.061 116.55 203.111 115.7 206.677 115.7C210.577 115.7 213.694 116.633 216.027 118.5C218.361 120.367 219.594 123.15 219.727 126.85ZM240.665 116.4H245.815L264.615 145.3V116.4H269.165V152H263.865L245.165 123.45V152H240.665V116.4ZM301.599 116.4V120.5H281.649V131.65H300.299V135.6H281.649V147.9H301.849V152H276.949V116.4H301.599ZM304.266 116.4H309.116L316.166 146.15L324.216 116.4H329.366L337.316 146.15L344.616 116.4H349.316L339.816 152H334.866L326.666 122.2L318.366 152H313.416L304.266 116.4ZM391.171 116.4V120.5H372.471V131.6H388.971V135.55H372.471V152H367.771V116.4H391.171ZM411.432 115.55C416.832 115.55 421.032 117.25 424.032 120.65C427.032 124.017 428.532 128.433 428.532 133.9C428.532 139.4 427.048 143.933 424.082 147.5C421.115 151.067 416.915 152.85 411.482 152.85C408.715 152.85 406.232 152.35 404.032 151.35C401.832 150.35 400.032 148.967 398.632 147.2C397.265 145.433 396.215 143.417 395.482 141.15C394.782 138.883 394.432 136.433 394.432 133.8C394.432 128.233 395.965 123.8 399.032 120.5C402.132 117.2 406.265 115.55 411.432 115.55ZM411.432 119.65C407.465 119.65 404.415 121.05 402.282 123.85C400.182 126.617 399.132 130.05 399.132 134.15C399.132 138.617 400.248 142.183 402.482 144.85C404.748 147.483 407.765 148.8 411.532 148.8C415.265 148.8 418.248 147.467 420.482 144.8C422.715 142.133 423.832 138.583 423.832 134.15C423.832 129.75 422.698 126.233 420.432 123.6C418.198 120.967 415.198 119.65 411.432 119.65ZM434.42 116.4H450.07C458.037 116.4 462.02 119.683 462.02 126.25C462.02 128.317 461.453 130.15 460.32 131.75C459.22 133.317 457.753 134.367 455.92 134.9C457.12 135.167 458.087 135.55 458.82 136.05C459.553 136.55 460.087 137.25 460.42 138.15C460.753 139.05 460.97 139.85 461.07 140.55C461.17 141.25 461.253 142.283 461.32 143.65C461.32 143.783 461.337 144.117 461.37 144.65C461.403 145.15 461.42 145.5 461.42 145.7C461.42 145.867 461.437 146.183 461.47 146.65L461.62 147.7C461.653 147.933 461.703 148.25 461.77 148.65C461.837 149.05 461.92 149.383 462.02 149.65C462.12 149.883 462.237 150.167 462.37 150.5C462.503 150.8 462.653 151.083 462.82 151.35C462.987 151.583 463.17 151.8 463.37 152H457.97C457.737 151.667 457.537 151.25 457.37 150.75C457.237 150.25 457.137 149.667 457.07 149C457.003 148.3 456.953 147.75 456.92 147.35C456.887 146.917 456.853 146.3 456.82 145.5C456.787 144.7 456.77 144.25 456.77 144.15C456.603 141.117 455.97 139.1 454.87 138.1C453.803 137.1 451.67 136.6 448.47 136.6H439.12V152H434.42V116.4ZM439.12 120.4V132.85H447.97C449.07 132.85 449.987 132.817 450.72 132.75C451.487 132.683 452.32 132.533 453.22 132.3C454.12 132.067 454.837 131.733 455.37 131.3C455.937 130.867 456.403 130.25 456.77 129.45C457.137 128.65 457.32 127.683 457.32 126.55C457.32 124.15 456.587 122.533 455.12 121.7C453.687 120.833 451.72 120.4 449.22 120.4H439.12ZM468.698 116.4H475.198L486.648 146.55L497.698 116.4H504.248V152H499.798V122.3L488.648 152H484.548L473.198 122.3V152H468.698V116.4ZM537.403 126.85H532.853C532.353 122.017 529.403 119.6 524.003 119.6C521.436 119.6 519.453 120.117 518.053 121.15C516.653 122.183 515.953 123.633 515.953 125.5C515.953 126.167 516.053 126.75 516.253 127.25C516.453 127.75 516.786 128.2 517.253 128.6C517.753 128.967 518.22 129.283 518.653 129.55C519.086 129.817 519.77 130.083 520.703 130.35C521.636 130.617 522.386 130.817 522.953 130.95C523.52 131.05 524.403 131.233 525.603 131.5C527.07 131.8 528.286 132.083 529.253 132.35C530.22 132.583 531.37 132.983 532.703 133.55C534.036 134.117 535.086 134.75 535.853 135.45C536.653 136.117 537.336 137.017 537.903 138.15C538.503 139.283 538.803 140.567 538.803 142C538.803 144.5 538.103 146.6 536.703 148.3C535.303 149.967 533.603 151.133 531.603 151.8C529.603 152.467 527.386 152.8 524.953 152.8C520.486 152.8 516.903 151.75 514.203 149.65C511.536 147.517 510.203 144.383 510.203 140.25H514.753C514.853 143.283 515.87 145.5 517.803 146.9C519.736 148.267 522.253 148.95 525.353 148.95C527.786 148.95 529.87 148.45 531.603 147.45C533.336 146.417 534.203 144.75 534.203 142.45C534.203 141.383 533.97 140.483 533.503 139.75C533.036 138.983 532.303 138.367 531.303 137.9C530.303 137.4 529.303 137 528.303 136.7C527.303 136.4 525.986 136.067 524.353 135.7C524.12 135.667 523.953 135.633 523.853 135.6C520.186 134.767 517.786 134.1 516.653 133.6C513.186 132.1 511.453 129.517 511.453 125.85C511.453 122.45 512.703 119.917 515.203 118.25C517.736 116.55 520.786 115.7 524.353 115.7C528.253 115.7 531.37 116.633 533.703 118.5C536.036 120.367 537.27 123.15 537.403 126.85ZM367.508 290V279.92H368.516V290H367.508ZM375.066 279.728C378.01 279.728 380.01 281.856 380.01 284.96C380.01 286.448 379.546 287.696 378.762 288.608L379.786 289.728L379.162 290.288L378.138 289.2C377.322 289.84 376.266 290.192 375.066 290.192C372.122 290.192 370.122 288.064 370.122 284.96C370.122 281.856 372.122 279.728 375.066 279.728ZM378.122 287.936C378.666 287.2 378.954 286.192 378.954 284.96C378.954 282.288 377.434 280.576 375.066 280.576C372.698 280.576 371.178 282.288 371.178 284.96C371.178 287.632 372.698 289.344 375.066 289.344C376.058 289.344 376.89 289.072 377.53 288.56L376.346 287.28L377.002 286.704L378.122 287.936ZM386.081 279.728C389.025 279.728 391.025 281.856 391.025 284.96C391.025 288.064 389.025 290.192 386.081 290.192C383.137 290.192 381.137 288.064 381.137 284.96C381.137 281.856 383.137 279.728 386.081 279.728ZM386.081 289.344C388.449 289.344 389.969 287.632 389.969 284.96C389.969 282.288 388.449 280.576 386.081 280.576C383.713 280.576 382.193 282.288 382.193 284.96C382.193 287.632 383.713 289.344 386.081 289.344ZM396.121 290.192C393.721 290.192 391.945 288.832 391.945 286.384L392.857 286.304C392.937 288.304 394.281 289.408 396.121 289.408C397.785 289.408 398.825 288.672 398.825 287.424C398.825 286.4 398.217 285.856 396.761 285.568L394.713 285.168C393.273 284.88 392.281 284.112 392.281 282.592C392.281 280.928 393.609 279.728 395.737 279.728C398.185 279.728 399.641 281.072 399.641 283.344L398.713 283.424C398.681 281.584 397.593 280.512 395.753 280.512C394.153 280.512 393.257 281.296 393.257 282.56C393.257 283.696 393.977 284.064 395.305 284.32L397.097 284.672C398.873 285.024 399.785 285.744 399.785 287.344C399.785 289.12 398.249 290.192 396.121 290.192ZM400.458 290L404.602 279.92H405.69L409.946 290H408.874L407.514 286.752H402.746L401.45 290H400.458ZM405.13 281.008H405.066L403.098 285.904H407.162L405.13 281.008ZM411.867 283.328H410.987V279.92H411.867V283.328ZM417.199 290.192C414.799 290.192 413.023 288.832 413.023 286.384L413.935 286.304C414.015 288.304 415.359 289.408 417.199 289.408C418.863 289.408 419.903 288.672 419.903 287.424C419.903 286.4 419.295 285.856 417.839 285.568L415.791 285.168C414.351 284.88 413.359 284.112 413.359 282.592C413.359 280.928 414.687 279.728 416.815 279.728C419.263 279.728 420.719 281.072 420.719 283.344L419.791 283.424C419.759 281.584 418.671 280.512 416.831 280.512C415.231 280.512 414.335 281.296 414.335 282.56C414.335 283.696 415.055 284.064 416.383 284.32L418.175 284.672C419.951 285.024 420.863 285.744 420.863 287.344C420.863 289.12 419.327 290.192 417.199 290.192ZM425.367 290V279.92H426.375V289.152H432.167V290H425.367ZM433.602 290V279.92H434.61V290H433.602ZM439.719 284.384L444.743 290H443.495L438.967 285.008L437.703 286.256V290H436.695V279.92H437.703V285.152L442.951 279.92H444.183L439.719 284.384ZM446.765 289.152H452.765V290H445.789V279.92H452.621V280.768H446.765V284.352H451.453V285.2H446.765V289.152ZM462.152 279.92H463.112L465.512 288.88H465.576L467.768 279.92H468.712L466.152 290H464.888L462.664 281.488H462.6L460.344 290H459.08L456.52 279.92H457.496L459.736 288.832H459.8L462.152 279.92ZM468.786 290L472.93 279.92H474.018L478.274 290H477.202L475.842 286.752H471.074L469.778 290H468.786ZM473.458 281.008H473.394L471.426 285.904H475.49L473.458 281.008ZM482.368 280.768V290H481.36V280.768H477.632V279.92H486.144V280.768H482.368ZM488.484 289.152H494.484V290H487.508V279.92H494.34V280.768H488.484V284.352H493.172V285.2H488.484V289.152ZM503.386 287.621C503.51 289.043 503.561 289.638 503.892 290H502.804C502.612 289.728 502.468 288.96 502.388 287.728C502.324 286.624 501.796 285.744 500.292 285.744H497.156V290H496.164V279.92H499.972C502.516 279.92 503.732 281.088 503.732 282.832C503.732 284.4 502.644 285.184 501.412 285.328C502.692 285.568 503.284 286.368 503.38 287.552L503.386 287.621ZM497.156 280.768V284.912H500.004C501.876 284.912 502.692 284.176 502.692 282.832C502.692 281.584 501.876 280.768 500.004 280.768H497.156Z" fill="white"/>
</svg>
