<svg width="85" height="29" viewBox="0 0 85 29" fill="none" xmlns="http://www.w3.org/2000/svg">
<path d="M1.6516 1.65283L1.62022 1.90388H5.60562L5.637 1.65283H1.6516ZM2.59303 3.91227L0.584639 17.7827C0.176685 20.6384 0.647402 21.7995 2.05955 21.7995C3.8169 21.7995 5.1349 18.4731 6.07634 14.5191H5.88805C4.978 18.0338 4.09933 20.356 2.96961 20.356C2.12231 20.356 1.8085 19.7284 2.09093 17.4689L4.06795 3.91227H2.59303Z" fill="white"/>
<path d="M7.80402 11.8517C7.05087 17.312 10.0635 21.7995 15.4924 21.7995C20.2937 21.7995 22.5218 18.6928 23.526 14.5505L22.9611 17.2179L21.392 28.264H22.8983L26.3189 3.91227H24.844L24.0908 9.30983L23.9025 12.1027C24.0594 7.11315 22.1766 3.56708 16.6221 3.56708C11.758 3.56708 8.40026 7.30143 7.80402 11.8517ZM16.0886 20.4501C10.848 20.4501 8.68269 16.3706 9.27893 11.9145C9.87517 7.89768 12.417 4.91647 16.9045 4.91647C21.9569 4.91647 24.3733 8.46254 23.7142 13.2638C23.118 17.4375 20.2937 20.4501 16.0886 20.4501Z" fill="white"/>
<path d="M37.2765 21.7995C43.082 21.7995 46.0946 17.6572 46.0946 12.699C46.0946 7.64663 42.831 3.56708 37.2765 3.56708C31.7221 3.56708 28.4584 7.74077 28.4584 12.7304C28.4584 17.7514 31.5024 21.7995 37.2765 21.7995ZM37.2765 20.4501C32.5694 20.4501 29.9333 17.2493 29.9333 12.7304C29.9333 8.27425 32.6321 4.91647 37.2765 4.91647C41.9209 4.91647 44.6197 8.14873 44.6197 12.699C44.6197 17.1551 42.0779 20.4501 37.2765 20.4501Z" fill="white"/>
<path d="M56.8547 20.4501C53.089 20.4501 50.8295 19.0066 48.8525 16.7785L47.5659 18.0024C48.6642 19.1321 49.9195 20.0422 51.2688 20.7639C52.6496 21.4543 54.5011 21.7995 56.8547 21.7995C61.656 21.7995 63.6644 19.2263 63.6644 16.7158C63.6644 13.8287 61.3422 12.9187 55.8505 12.5421C51.2375 12.1969 50.1077 10.7847 50.1077 8.6822C50.1077 6.64243 51.7082 4.91647 55.317 4.91647C58.4865 4.91647 60.6832 6.01481 62.4719 8.49392L63.7585 7.3642C61.7501 5.01061 59.1141 3.56708 55.2229 3.56708C50.955 3.56708 48.5701 5.66962 48.5701 8.71359C48.5701 11.2241 50.5157 12.3224 55.7563 12.699C60.5577 13.0442 62.2209 14.0484 62.2209 16.2764C62.2209 17.3748 61.7815 18.3476 60.9342 19.1949C60.0869 20.0422 58.7062 20.4501 56.8547 20.4501Z" fill="white"/>
<path d="M71.5771 21.7995C75.8135 21.7995 79.2655 18.5673 80.458 14.1739V18.9125C80.458 20.8267 81.2111 21.7995 82.9998 21.7995C83.6274 21.7995 84.1609 21.6426 84.4434 21.4857V20.0422C84.2237 20.1991 83.8471 20.3246 83.3136 20.3246C82.3094 20.3246 81.9329 19.9794 81.9329 18.7242V9.56088C81.9329 7.8663 81.368 6.45414 80.2383 5.29304C79.1399 4.13194 77.3198 3.56708 74.8407 3.56708C71.075 3.56708 68.2193 5.04199 66.3678 8.33701L67.6544 9.09016C69.1607 5.98343 71.734 4.91647 74.8407 4.91647C76.9747 4.91647 78.4496 5.38719 79.2341 6.29724C80.05 7.20729 80.458 8.27425 80.458 9.56088C80.458 11.0672 77.5709 11.6007 74.3073 12.1969C73.1461 12.4479 71.8281 12.699 70.667 13.0442C69.4118 13.4208 68.2507 13.9229 67.4034 14.6446C66.5561 15.3664 66.0226 16.3392 66.0226 17.6258C66.0226 18.6928 66.4306 19.6656 67.2151 20.5129C67.9996 21.3602 69.4746 21.7995 71.5771 21.7995ZM74.3386 12.4166C77.1629 11.8203 79.8617 11.381 80.458 10.2199V13.6404C79.4538 18.1907 76.0332 20.4815 72.2989 20.4815C69.1294 20.4815 67.4975 19.1321 67.4975 17.2179C67.4975 14.1739 69.757 13.358 74.3386 12.4166Z" fill="white"/>
<path fill-rule="evenodd" clip-rule="evenodd" d="M1.44986 1.42432H5.89534L5.80689 2.13189H1.36141L1.44986 1.42432ZM7.57755 11.8211C8.18575 7.18183 11.6205 3.33856 16.6219 3.33856C19.4508 3.33856 21.3865 4.24441 22.5857 5.82562C23.2454 6.69545 23.6726 7.75727 23.9089 8.95965L24.6451 3.68376H26.5812L23.0965 28.492H21.1288L22.6692 17.6479C22.2454 18.4932 21.7274 19.2505 21.095 19.8888C19.7653 21.2307 17.9476 22.0275 15.4922 22.0275C12.7093 22.0275 10.5293 20.8745 9.14632 19.0089C7.7669 17.1481 7.19463 14.5985 7.57755 11.8211ZM23.6779 14.5814L23.749 14.5975L23.1858 17.2574L21.6548 28.0355H22.6997L26.0561 4.14028H25.0424L24.3178 9.33306L24.13 12.1178L24.0425 12.1135C24.0294 12.4985 23.9953 12.8926 23.9402 13.2946L23.94 13.2959C23.8769 13.7374 23.7892 14.1666 23.6779 14.5814ZM23.202 8.03495C23.036 7.72169 22.8457 7.42594 22.6313 7.14951C21.4266 5.5965 19.4865 4.68795 16.9043 4.68795C14.6063 4.68795 12.7898 5.45298 11.4724 6.74601C10.1582 8.03591 9.35653 9.83524 9.05291 11.8807L9.05245 11.8839C8.74877 14.1535 9.14509 16.3498 10.3087 17.9854C11.4781 19.629 13.4026 20.6781 16.0884 20.6781C18.5771 20.6781 20.5925 19.6528 21.9741 17.975C21.6293 18.5684 21.2308 19.1032 20.7707 19.5674C19.535 20.8145 17.8381 21.571 15.4922 21.571C12.8461 21.571 10.8053 20.4803 9.51306 18.737C8.21737 16.9892 7.65989 14.5652 8.0299 11.8826L8.03011 11.8811C8.61465 7.42014 11.8953 3.79509 16.6219 3.79509C19.3475 3.79509 21.1304 4.66227 22.222 6.1015C22.6444 6.65849 22.968 7.30718 23.202 8.03495ZM30.6152 6.12412C32.1708 4.40683 34.4379 3.33856 37.2763 3.33856C40.113 3.33856 42.3802 4.38209 43.9367 6.0841C45.4908 7.78353 46.3227 10.1241 46.3227 12.6987C46.3227 15.2226 45.5558 17.5554 44.0326 19.2604C42.5062 20.9691 40.2373 22.0275 37.2763 22.0275C34.3324 22.0275 32.0636 20.9936 30.5326 19.3007C29.0047 17.6111 28.2299 15.2854 28.2299 12.7301C28.2299 10.1864 29.062 7.83863 30.6152 6.12412ZM30.9535 6.43062C29.4862 8.05036 28.6865 10.2842 28.6865 12.7301C28.6865 15.1958 29.4337 17.4047 30.8713 18.9945C32.3059 20.5809 34.4461 21.571 37.2763 21.571C40.1208 21.571 42.261 20.5583 43.6922 18.9563C45.1267 17.3505 45.8661 15.1331 45.8661 12.6987C45.8661 10.221 45.0662 7.99563 43.5998 6.39219C42.1359 4.79133 39.994 3.79509 37.2763 3.79509C34.5602 3.79509 32.4183 4.81367 30.9535 6.43062ZM50.153 4.82053C51.3347 3.87266 53.0538 3.33856 55.2226 3.33856C59.1828 3.33856 61.8816 4.81302 63.9319 7.21578L64.078 7.38697L62.4335 8.83092L62.2866 8.62722C61.4094 7.41146 60.4398 6.54436 59.3099 5.97944C58.1796 5.41428 56.8748 5.14448 55.3168 5.14448C53.5462 5.14448 52.3005 5.56802 51.5021 6.21185C50.7085 6.85188 50.3358 7.72601 50.3358 8.68195C50.3358 9.68711 50.6023 10.4871 51.3879 11.0898C52.1927 11.7071 53.5726 12.1424 55.8665 12.3141C58.611 12.5024 60.6066 12.825 61.9189 13.4832C62.5813 13.8154 63.0797 14.2378 63.4103 14.7794C63.7408 15.3208 63.8924 15.9628 63.8924 16.7155C63.8924 18.0332 63.3643 19.3684 62.2095 20.3712C61.0556 21.3731 59.2952 22.0275 56.8545 22.0275C54.4821 22.0275 52.5911 21.6801 51.1665 20.9678L51.1609 20.965C49.793 20.2334 48.5184 19.3095 47.402 18.1613L47.2411 17.9958L48.8662 16.45L49.023 16.6268C49.9992 17.7269 51.0359 18.623 52.2844 19.2453C53.5316 19.867 55.0023 20.2216 56.8545 20.2216C58.681 20.2216 59.988 19.8178 60.7726 19.0332C61.583 18.2228 61.9924 17.3061 61.9924 16.2762C61.9924 15.7477 61.8939 15.3079 61.6865 14.9372C61.4797 14.5674 61.1553 14.25 60.6768 13.9802C59.7084 13.4344 58.1369 13.0988 55.7397 12.9264C53.1158 12.7379 51.2753 12.3674 50.0867 11.7057C49.487 11.3718 49.0464 10.9602 48.7576 10.4556C48.4691 9.95144 48.3416 9.37076 48.3416 8.71333C48.3416 7.12645 48.9659 5.77263 50.153 4.82053ZM51.838 11.8959C51.5625 11.7618 51.3209 11.6137 51.1101 11.452C50.1775 10.7366 49.8792 9.77932 49.8792 8.68195C49.8792 7.59812 50.3068 6.58937 51.2155 5.85649C52.1196 5.12739 53.4786 4.68795 55.3168 4.68795C56.9283 4.68795 58.3065 4.96732 59.5141 5.57111C60.6568 6.14247 61.634 6.99799 62.5079 8.1581L63.4371 7.34219C61.4897 5.13845 58.9501 3.79509 55.2226 3.79509C53.1236 3.79509 51.5163 4.31226 50.4386 5.17665C49.3662 6.03681 48.7981 7.25624 48.7981 8.71333C48.7981 9.31114 48.9137 9.80919 49.1538 10.2288C49.3937 10.648 49.767 11.0052 50.3088 11.3068C50.7213 11.5365 51.2274 11.7317 51.838 11.8959ZM60.7914 13.5228C60.8286 13.5424 60.8651 13.5623 60.9009 13.5825C61.4384 13.8855 61.8299 14.2584 62.0849 14.7144C62.3395 15.1694 62.4489 15.6907 62.4489 16.2762C62.4489 17.443 61.9796 18.4719 61.0954 19.356C60.1854 20.2661 58.7308 20.6781 56.8545 20.6781C54.9409 20.6781 53.399 20.311 52.0808 19.6539C50.8328 19.0318 49.7963 18.1554 48.8395 17.1055L47.8916 18.0072C48.9319 19.0421 50.1098 19.8847 51.3735 20.5609C52.7102 21.2285 54.5213 21.571 56.8545 21.571C59.215 21.571 60.8594 20.9388 61.9101 20.0265C62.9598 19.115 63.4359 17.9083 63.4359 16.7155C63.4359 16.0247 63.2972 15.4703 63.0207 15.0173C62.7443 14.5646 62.3189 14.1946 61.7143 13.8913C61.4415 13.7545 61.1345 13.6323 60.7914 13.5228ZM69.776 4.51626C71.2327 3.71329 72.9277 3.33856 74.8405 3.33856C77.345 3.33856 79.2414 3.90783 80.4029 5.1349C81.5749 6.34007 82.1609 7.80961 82.1609 9.56062V18.7239C82.1609 19.3435 82.2573 19.6663 82.4158 19.8418C82.5673 20.0095 82.8256 20.0961 83.3134 20.0961C83.8149 20.0961 84.1405 19.9776 84.3104 19.8562L84.6714 19.5984V21.6198L84.554 21.685C84.2324 21.8636 83.6595 22.0275 82.9996 22.0275C82.0646 22.0275 81.354 21.7721 80.8843 21.2218C80.4211 20.6792 80.2295 19.8924 80.2295 18.9122V15.5799C78.728 19.3522 75.4903 22.0275 71.5769 22.0275C69.4578 22.0275 67.8991 21.5876 67.0474 20.6677C66.2282 19.783 65.7941 18.7563 65.7941 17.6256C65.7941 16.2661 66.3617 15.2317 67.2551 14.4706C68.1378 13.7187 69.3342 13.2054 70.6012 12.8253C71.5329 12.5483 72.5664 12.3309 73.5298 12.1282C73.7784 12.076 74.0224 12.0246 74.2588 11.9735L74.266 11.972C75.9042 11.6727 77.4216 11.3934 78.5307 11.0045C79.0853 10.81 79.5179 10.5946 79.8085 10.3496C80.0936 10.1092 80.2295 9.85257 80.2295 9.56062C80.2295 8.32856 79.8412 7.31631 79.0639 6.44936L79.061 6.44603C78.3432 5.61339 76.955 5.14448 74.8405 5.14448C73.3121 5.14448 71.9323 5.40707 70.7552 6.03914C69.5813 6.66951 68.5937 7.67546 67.8596 9.18949L67.7519 9.41159L66.0587 8.42045L66.1686 8.22494C67.1125 6.54504 68.3183 5.31982 69.776 4.51626ZM80.5669 14.1578L80.686 14.1736V18.9122C80.686 19.8463 80.8709 20.503 81.2315 20.9254C81.5855 21.34 82.1458 21.571 82.9996 21.571C83.511 21.571 83.9477 21.4604 84.2149 21.3435V20.4122C83.9728 20.4997 83.6706 20.5526 83.3134 20.5526C82.797 20.5526 82.365 20.4666 82.077 20.1478C81.7963 19.837 81.7044 19.3596 81.7044 18.7239V9.56062C81.7044 7.92309 81.1611 6.56876 80.0744 5.45197L80.0722 5.44965C79.037 4.35523 77.2935 3.79509 74.8405 3.79509C72.9875 3.79509 71.3719 4.15782 69.9964 4.91606C68.6778 5.64295 67.5677 6.73996 66.6783 8.25414L67.5592 8.7698C68.3201 7.2972 69.3326 6.28488 70.5392 5.63693C71.802 4.95884 73.2622 4.68795 74.8405 4.68795C76.9925 4.68795 78.5536 5.15992 79.4052 6.14621C80.2588 7.09902 80.686 8.22018 80.686 9.56062C80.686 9.78843 80.6311 9.99518 80.5323 10.1825L80.686 10.2196V13.6651L80.6806 13.6894C80.6456 13.8482 80.6076 14.0043 80.5669 14.1578ZM68.8544 13.9817C68.3662 14.2233 67.9253 14.4994 67.5512 14.8181C66.7501 15.5006 66.2507 16.4118 66.2507 17.6256C66.2507 18.6288 66.6325 19.5476 67.3824 20.3576C68.0997 21.1323 69.4908 21.571 71.5769 21.571C73.8957 21.571 75.9825 20.5717 77.5712 18.9242C76.0791 20.1116 74.2296 20.7095 72.2986 20.7095C70.6854 20.7095 69.4325 20.3667 68.5764 19.7528C67.7121 19.133 67.2691 18.2479 67.2691 17.2176C67.2691 16.4281 67.4157 15.7667 67.7216 15.2063C67.9879 14.7183 68.3683 14.3191 68.8544 13.9817ZM80.2295 10.8475C80.0906 10.9647 79.9319 11.0708 79.7589 11.1679C79.3569 11.3935 78.8573 11.5816 78.299 11.7485C77.4106 12.014 76.3431 12.2343 75.2357 12.4629C74.9541 12.521 74.67 12.5796 74.3855 12.6396L74.3843 12.6399C72.087 13.1119 70.4173 13.5453 69.3196 14.2227C68.7771 14.5576 68.3829 14.9475 68.1223 15.425C67.8613 15.9031 67.7256 16.4851 67.7256 17.2176C67.7256 18.1016 68.0984 18.8483 68.8424 19.3818C69.5946 19.9212 70.7423 20.253 72.2986 20.253C75.9228 20.253 79.2424 18.0413 80.2295 13.6152V10.8475ZM2.39521 3.68376H4.33167L2.31691 17.4993C2.17592 18.6282 2.19212 19.3017 2.32255 19.6861C2.38482 19.8697 2.46803 19.9714 2.55972 20.0312C2.65421 20.093 2.78402 20.1275 2.96937 20.1275C3.16603 20.1275 3.37671 20.0281 3.60744 19.7819C3.83909 19.5347 4.07117 19.1593 4.30402 18.659C4.76919 17.6594 5.21215 16.2177 5.66684 14.4616L5.71113 14.2906H6.36509L6.29815 14.5717C5.82613 16.5542 5.25642 18.3947 4.5776 19.7444C4.23836 20.4189 3.86582 20.9832 3.45481 21.3816C3.04246 21.7814 2.57666 22.0275 2.05932 22.0275C1.67558 22.0275 1.33462 21.9486 1.05143 21.7647C0.76652 21.5796 0.560873 21.3019 0.425646 20.942C0.160663 20.2368 0.15382 19.1825 0.358436 17.7502L2.39521 3.68376ZM2.79039 4.14028L0.810369 17.8148C0.810352 17.8149 0.810386 17.8146 0.810369 17.8148C0.607086 19.2379 0.631587 20.1922 0.852994 20.7815C0.96097 21.0688 1.11228 21.2598 1.30006 21.3818C1.48954 21.5048 1.73698 21.571 2.05932 21.571C2.42064 21.571 2.7786 21.4013 3.13705 21.0538C3.35019 20.8472 3.55825 20.5825 3.76055 20.2655C3.52441 20.4641 3.26114 20.584 2.96937 20.584C2.73107 20.584 2.50392 20.5401 2.3101 20.4135C2.11347 20.2851 1.97702 20.0886 1.89023 19.8328C1.72262 19.3388 1.72306 18.5695 1.8642 17.4404L1.86478 17.4357L3.80374 4.14028H2.79039ZM9.50472 11.9461C9.79752 9.97545 10.5649 8.27639 11.7922 7.07182C13.0166 5.87006 14.7148 5.14448 16.9043 5.14448C19.3745 5.14448 21.1688 6.00896 22.2706 7.42932C23.376 8.85435 23.8115 10.8739 23.4879 13.2322C22.904 17.3172 20.1567 20.2216 16.0884 20.2216C13.5335 20.2216 11.7551 19.2309 10.6807 17.7208C9.60085 16.2029 9.21257 14.132 9.50472 11.9461ZM32.0328 7.30471C30.8221 8.65159 30.1614 10.5471 30.1614 12.7301C30.1614 14.9463 30.8074 16.8167 32.008 18.1306C33.2061 19.4417 34.9772 20.2216 37.2763 20.2216C39.6215 20.2216 41.3919 19.4189 42.5783 18.0931C43.7679 16.7638 44.3912 14.885 44.3912 12.6987C44.3912 10.4678 43.73 8.58119 42.5209 7.25491C41.3141 5.9313 39.5426 5.14448 37.2763 5.14448C35.0127 5.14448 33.2408 5.9608 32.0328 7.30471ZM31.6933 6.99953C32.9958 5.55052 34.8955 4.68795 37.2763 4.68795C39.6544 4.68795 41.5544 5.51726 42.8582 6.94734C44.1596 8.37476 44.8477 10.3794 44.8477 12.6987C44.8477 14.9686 44.2002 16.9653 42.9185 18.3976C41.6336 19.8334 39.7324 20.6781 37.2763 20.6781C34.8682 20.6781 32.9677 19.8576 31.671 18.4386C30.3768 17.0223 29.7049 15.0328 29.7049 12.7301C29.7049 10.457 30.3935 8.44557 31.6933 6.99953Z" fill="white"/>
<path d="M0.443359 1.08008H6.83466V2.26703H0.443359V1.08008Z" fill="white"/>
<path fill-rule="evenodd" clip-rule="evenodd" d="M0 2.52238L0.456522 0.696289L1.3423 0.917735L0.885782 2.74382L0 2.52238Z" fill="#1B1B1B"/>
<path fill-rule="evenodd" clip-rule="evenodd" d="M6.39062 2.52189L6.84715 0.695801L7.73293 0.917246L7.27641 2.74333L6.39062 2.52189Z" fill="#1B1B1B"/>
</svg>
